<?xml version="1.0" encoding="UTF-8" standalone="no"?><!DOCTYPE svg PUBLIC "-//W3C//DTD SVG 1.1//EN" "http://www.w3.org/Graphics/SVG/1.1/DTD/svg11.dtd"><svg width="100%" height="100%" viewBox="0 0 20 20" version="1.1" xmlns="http://www.w3.org/2000/svg" xmlns:xlink="http://www.w3.org/1999/xlink" xml:space="preserve" xmlns:serif="http://www.serif.com/" style="fill-rule:evenodd;clip-rule:evenodd;stroke-linecap:round;stroke-linejoin:round;stroke-miterlimit:1.5;"><path d="M14.112,2.769c0.161,0.161 0.463,0.232 0.643,0.392c0.298,0.264 0.647,0.594 0.839,0.951c1.052,1.953 1.511,4.139 2.042,6.266c0.292,1.165 0.532,2.144 0.049,3.305c-0.165,0.396 -0.479,0.781 -0.72,1.142c-0.817,1.225 -2.073,2.77 -3.636,2.965c-1.867,0.233 -3.856,-0.111 -5.679,-0.475c-1.849,-0.37 -3.645,-0.452 -4.895,-2.014c-0.155,-0.195 -0.159,-0.44 -0.279,-0.644c-0.475,-0.801 -0.538,-1.896 -0.616,-2.825c-0.08,-0.961 -0.201,-1.959 -0.112,-2.937c0.128,-1.406 0.799,-2.752 1.595,-3.888c0.471,-0.674 0.965,-1.477 1.762,-1.818c1.066,-0.457 2.307,-0.722 3.468,-0.783c1.078,-0.057 2.093,0.039 3.133,0.279c0.178,0.041 0.429,0.04 0.588,0.112c0.974,0.444 1.975,1.42 2.573,2.294c0.415,0.606 0.867,1.185 0.867,1.93" style="fill:none;stroke:#000;stroke-width:1.86px;"/></svg>