<?xml version="1.0" encoding="UTF-8" standalone="no"?><!DOCTYPE svg PUBLIC "-//W3C//DTD SVG 1.1//EN" "http://www.w3.org/Graphics/SVG/1.1/DTD/svg11.dtd"><svg width="100%" height="100%" viewBox="0 0 20 20" version="1.1" xmlns="http://www.w3.org/2000/svg" xmlns:xlink="http://www.w3.org/1999/xlink" xml:space="preserve" xmlns:serif="http://www.serif.com/" style="fill-rule:evenodd;clip-rule:evenodd;stroke-linecap:round;stroke-linejoin:round;stroke-miterlimit:1.5;"><path d="M18.895,12.308c-0.627,1.253 -0.991,2.787 -2.322,3.552c-0.742,0.427 -1.605,0.585 -2.433,0.699c-0.541,0.075 -1.063,0.202 -1.595,0.308c-0.3,0.06 -0.625,-0.037 -0.923,-0.056c-1.101,-0.069 -2.164,-0.267 -3.244,-0.503c-0.868,-0.19 -1.828,-0.407 -2.574,-0.923c-0.681,-0.472 -1.131,-1.145 -1.622,-1.791c-0.397,-0.521 -0.955,-0.922 -1.315,-1.482c-0.858,-1.335 -1.345,-3.229 -1.147,-4.811c0.101,-0.803 0.507,-1.468 0.7,-2.238c0.246,-0.987 0.727,-2.238 1.454,-2.965c0.674,-0.674 1.989,-0.73 2.881,-0.811c0.751,-0.069 1.471,-0.309 2.238,-0.224c2.594,0.288 5.231,1.196 6.881,3.245c0.892,1.107 1.494,2.51 1.986,3.832c0.196,0.525 0.368,1.211 0.252,1.79c-0.04,0.201 -0.183,0.382 -0.224,0.587c-0.048,0.243 -0.055,0.558 -0.168,0.784c-0.249,0.499 -0.561,1.023 -0.811,1.398c-0.099,0.149 -0.392,0.395 -0.392,0.504" style="fill:none;stroke:#000;stroke-width:1.86px;"/></svg>