<?xml version="1.0" encoding="UTF-8" standalone="no"?><!DOCTYPE svg PUBLIC "-//W3C//DTD SVG 1.1//EN" "http://www.w3.org/Graphics/SVG/1.1/DTD/svg11.dtd"><svg width="100%" height="100%" viewBox="0 0 20 20" version="1.1" xmlns="http://www.w3.org/2000/svg" xmlns:xlink="http://www.w3.org/1999/xlink" xml:space="preserve" xmlns:serif="http://www.serif.com/" style="fill-rule:evenodd;clip-rule:evenodd;stroke-linecap:round;stroke-linejoin:round;stroke-miterlimit:1.5;"><path d="M4.294,16.308c-0.626,-0.157 -0.835,-0.775 -1.063,-1.315c-0.562,-1.327 -0.979,-2.683 -0.979,-4.14l0,-1.846c0,-0.385 0,-0.87 0.168,-1.231c0.381,-0.821 1.131,-1.295 1.846,-1.79c1.559,-1.079 3.243,-1.966 5.035,-2.601c1.409,-0.501 3.364,-1.295 4.739,-0.237c1.234,0.949 1.998,2.533 2.366,4.013c0.182,0.735 0.193,1.311 0.223,2.07c0.048,1.18 0.087,2.378 -0.056,3.552c-0.144,1.19 -0.246,2.436 -1.37,3.105c-0.743,0.442 -1.643,0.532 -2.462,0.755c-1.445,0.394 -2.886,0.655 -4.391,0.56c-0.819,-0.052 -1.651,-0.292 -2.462,-0.42c-0.715,-0.113 -1.891,-0.214 -2.378,-0.867c-0.367,-0.493 -0.251,-1.163 -0.251,-1.734" style="fill:none;stroke:#000;stroke-width:1.86px;"/></svg>