<?xml version="1.0" encoding="UTF-8" standalone="no"?><!DOCTYPE svg PUBLIC "-//W3C//DTD SVG 1.1//EN" "http://www.w3.org/Graphics/SVG/1.1/DTD/svg11.dtd"><svg width="100%" height="100%" viewBox="0 0 20 20" version="1.1" xmlns="http://www.w3.org/2000/svg" xmlns:xlink="http://www.w3.org/1999/xlink" xml:space="preserve" xmlns:serif="http://www.serif.com/" style="fill-rule:evenodd;clip-rule:evenodd;stroke-linecap:round;stroke-linejoin:round;stroke-miterlimit:1.5;"><path d="M1.944,10.657c0.06,0 0.056,-0.346 0.056,-0.391c0,-0.346 -0.028,-0.694 -0.028,-1.035c0,-0.224 -0.06,-0.542 0,-0.755c0.067,-0.239 0.177,-0.449 0.224,-0.7c0.067,-0.361 0.064,-0.731 0.14,-1.091c0.063,-0.299 0.122,-0.601 0.195,-0.895c0.118,-0.469 0.614,-0.971 0.979,-1.259c0.983,-0.772 1.93,-1.417 3.133,-1.818c0.65,-0.216 1.452,-0.223 2.126,-0.223c0.627,0 1.51,-0.152 2.098,0.083c0.657,0.263 1.44,0.59 2.042,0.979c0.609,0.395 1.2,1.042 1.706,1.567c0.823,0.853 1.305,2.016 2.042,2.937c0.209,0.261 0.607,0.574 0.728,0.895c0.383,1.023 0.667,2.23 0.447,3.329c-0.07,0.351 -0.285,0.698 -0.419,1.035c-0.197,0.492 -0.505,1.24 -0.951,1.538c-0.289,0.193 -0.529,0.457 -0.84,0.616c-1.21,0.616 -2.587,0.859 -3.916,1.007c-0.339,0.037 -0.664,0.167 -1.007,0.195c-1.428,0.119 -2.868,0.082 -4.196,-0.531c-0.984,-0.455 -1.705,-1.398 -2.461,-2.154c-0.799,-0.799 -1.701,-1.638 -1.902,-2.797c-0.088,-0.503 0.219,-0.927 0.391,-1.371c0.184,-0.473 0.24,-0.973 0.42,-1.454" style="fill:none;stroke:#000;stroke-width:1.86px;"/></svg>