<?xml version="1.0" encoding="UTF-8" standalone="no"?><!DOCTYPE svg PUBLIC "-//W3C//DTD SVG 1.1//EN" "http://www.w3.org/Graphics/SVG/1.1/DTD/svg11.dtd"><svg width="100%" height="100%" viewBox="0 0 20 20" version="1.1" xmlns="http://www.w3.org/2000/svg" xmlns:xlink="http://www.w3.org/1999/xlink" xml:space="preserve" xmlns:serif="http://www.serif.com/" style="fill-rule:evenodd;clip-rule:evenodd;stroke-linecap:round;stroke-linejoin:round;stroke-miterlimit:1.5;"><path d="M9.636,18.042c-0.591,0 -1.104,-0.035 -1.65,-0.308c-0.279,-0.139 -0.434,-0.576 -0.673,-0.775c-0.643,-0.536 -1.08,-1.209 -1.481,-1.938c-0.505,-0.919 -0.931,-1.76 -1.091,-2.825c-0.154,-1.026 -0.234,-2.07 -0.363,-3.105c-0.085,-0.678 -0.273,-1.643 -0.084,-2.322c0.408,-1.468 1.615,-2.57 2.965,-3.189c1.854,-0.85 3.708,-1.309 5.706,-0.643c0.523,0.174 0.965,0.523 1.427,0.811c0.87,0.544 1.564,1.218 2.181,2.042c0.306,0.407 0.727,0.855 0.896,1.343c0.297,0.859 0.576,1.794 0.755,2.685c0.183,0.918 -0.148,1.916 -0.224,2.825c-0.098,1.174 -0.106,2.483 -0.951,3.413c-0.355,0.39 -0.891,0.607 -1.371,0.811c-0.772,0.329 -1.677,0.535 -2.517,0.588c-1.919,0.119 -3.587,-0.726 -5.287,-1.455c-0.505,-0.216 -1.482,-0.335 -1.482,-1.063" style="fill:none;stroke:#000;stroke-width:1.86px;"/></svg>