<?xml version="1.0" encoding="UTF-8" standalone="no"?>
<!DOCTYPE svg PUBLIC "-//W3C//DTD SVG 1.1//EN" "http://www.w3.org/Graphics/SVG/1.1/DTD/svg11.dtd">
<svg width="100%" height="100%" viewBox="0 0 821 903" version="1.1" xmlns="http://www.w3.org/2000/svg" xmlns:xlink="http://www.w3.org/1999/xlink" xml:space="preserve" xmlns:serif="http://www.serif.com/" style="fill-rule:evenodd;clip-rule:evenodd;stroke-linecap:round;stroke-linejoin:round;stroke-miterlimit:1.5;">
    <g transform="matrix(0.48,0,0,0.48,-1053.01,-1049.15)">
        <g id="Artboard2" transform="matrix(0.855227,0,0,1.02758,2326.51,1791.06)">
            <rect x="-155.225" y="384.073" width="1998.16" height="1830.61" style="fill:none;"/>
            <g transform="matrix(2.09611,0,-0.0814542,1.8777,-997.564,-3968.08)">
                <rect x="992.126" y="2409.45" width="377.953" height="377.953" style="fill:rgb(248,167,34);stroke:rgb(140,0,179);stroke-width:0.55px;"/>
            </g>
            <g transform="matrix(2.07674,0,0.0363417,1.75042,-1269.27,-2825.81)">
                <rect x="992.126" y="2409.45" width="377.953" height="377.953" style="fill:rgb(211,97,71);"/>
            </g>
            <g transform="matrix(1.8742,0,0.150801,1.84796,-2187.07,-3085.28)">
                <rect x="992.126" y="2409.45" width="377.953" height="377.953" style="fill:rgb(35,82,113);"/>
            </g>
            <g transform="matrix(0.615649,0,-0.0889289,0.581389,94.5597,981.088)">
                <path d="M177.451,912.636C201.696,909.205 223.493,908.316 242.917,907.711C250.526,907.474 257.73,907.305 264.558,907.148C272.211,906.972 279.362,906.804 286.07,906.769C331.569,906.527 355.851,913.87 355.851,913.87C363.073,916.996 371.117,914.689 373.801,908.721C376.486,902.754 372.802,895.372 365.579,892.246L303.256,875.168C291.374,873.463 277.725,872.111 262.483,872.268C250.317,872.394 237.157,873.51 223.12,875.7C205.872,878.39 187.565,882.92 167.624,888.885C160.412,890.44 156.758,897.025 159.47,903.579C162.182,910.133 170.239,914.192 177.451,912.636Z" style="fill:rgb(174,232,236);"/>
            </g>
            <g transform="matrix(0.615649,0,-0.0889289,0.581389,211.366,1260.44)">
                <path d="M184.092,908.832C192.251,900.933 201.613,896.027 211.185,892.485C221.544,888.651 232.567,887.485 243.651,887.358C249.276,887.294 254.921,887.622 260.544,888.085C269.501,888.822 278.383,890.046 286.986,891.741C317.141,897.683 343.698,908.14 354.513,913.221C361.416,916.952 369.8,915.427 373.223,909.818C376.646,904.209 373.82,896.626 366.917,892.896C355.313,885.748 326.709,869.446 292.614,859.759C281.967,856.735 270.785,854.493 259.531,853.431C251.947,852.716 244.326,852.619 236.83,853.152C227.361,853.826 218.012,855.316 209.173,858.186C190.606,864.213 173.673,874.822 160.984,892.689C156.659,897.742 158.325,905.461 164.702,909.916C171.079,914.371 179.767,913.885 184.092,908.832Z" style="fill:rgb(174,232,236);"/>
            </g>
            <g transform="matrix(0.466452,-0.0457449,0.254312,0.753548,219.188,848.646)">
                <path d="M177.483,909.107C202.193,905.028 223.744,903.797 242.977,903.135C250.297,902.883 257.202,902.791 263.787,902.737C271.048,902.676 277.878,902.661 284.283,902.81C324.441,903.746 347.498,910.387 347.498,910.387C354.545,913.436 366.19,912.629 373.484,908.584C380.779,904.54 380.98,898.78 373.932,895.73L318.567,879.964C306.374,878.059 292.022,876.61 275.508,876.542C261.928,876.487 246.882,877.375 230.747,879.47C211.19,882.008 190.283,886.232 167.593,892.414C157.824,894.521 152.109,899.971 154.838,904.578C157.567,909.185 167.714,911.214 177.483,909.107Z" style="fill:rgb(174,232,236);"/>
            </g>
            <g transform="matrix(0.466452,-0.0457449,0.254312,0.753548,255.541,1106.79)">
                <path d="M342.798,902.441C340.782,906.938 345.518,911.093 354.193,912.042C363.676,913.079 374.297,909.896 377.897,904.938C381.512,900.989 380.969,892.671 371.818,884.069C362.339,875.159 342.434,866.009 310.945,863.025C300.881,862.071 289.471,861.907 276.877,862.782C266.732,863.488 255.713,864.848 244.049,867.212C220.216,872.04 193.285,880.454 162.968,893.766C154.309,897.045 151.567,902.842 156.848,906.703C162.13,910.564 173.448,911.035 182.108,907.755C200.519,901.882 217.208,897.984 232.178,894.802C250.527,890.902 266.027,889.225 279.479,888.503C309.947,886.868 329.318,892.286 337.762,898.492C339.946,900.098 340.108,902.816 342.594,902.482C342.669,902.472 342.737,902.459 342.798,902.441Z" style="fill:rgb(174,232,236);"/>
            </g>
            <g transform="matrix(0.466452,-0.0457449,0.254312,0.753548,-64.8887,1284.16)">
                <path d="M189.51,902.917C196.656,895.746 208.624,894.819 221.503,895.096C228.902,895.256 236.538,896.15 244.634,897.077C252.842,898.018 261.294,899.18 269.84,900.36C301.69,904.758 333.624,910.201 353.463,911.953C362.783,913.202 373.599,910.23 377.601,905.321C381.604,900.412 377.287,895.412 367.967,894.163C358.331,892.321 346.252,888.731 332.125,885.075C319.842,881.897 306.53,878.534 292.619,875.87C282.791,873.989 272.677,872.477 262.692,871.538C250.637,870.404 238.763,869.982 227.69,870.552C194.564,872.255 166.825,879.633 155.566,898.604C151.675,903.528 156.121,908.491 165.487,909.682C174.854,910.872 185.618,907.841 189.51,902.917Z" style="fill:rgb(174,232,236);"/>
            </g>
            <g transform="matrix(0.680679,-0.0338873,0.208678,1.21804,-80.8515,527.343)">
                <path d="M367.823,898.04C368.463,897.587 365.017,896.949 362.216,895.962C351.8,892.291 328.683,885.404 292.612,882.888C284.664,882.333 276.056,882.051 266.852,882.147C258.695,882.232 250.053,882.603 241.005,883.379C219.13,885.253 194.921,889.125 168.286,895.495C161.772,896.819 158.388,900.254 160.735,903.161C163.082,906.067 170.276,907.351 176.79,906.026C192.673,903.398 207.39,901.806 221.08,900.626C231.462,899.731 241.163,899.28 250.295,898.933C264.65,898.387 277.476,898.442 288.908,898.93C314.779,900.034 333.375,903.162 343.587,905.551C347.773,906.53 350.655,907.241 351.972,907.625C353.398,908.042 354.328,908.297 354.742,908.381C361.293,909.706 365.884,908.226 367.676,907.608C370.9,906.497 375.043,904.455 372.746,900.969C371.898,899.683 370.113,898.675 367.823,898.04Z" style="fill:rgb(174,232,236);"/>
            </g>
            <g transform="matrix(0.680679,-0.0338873,0.208678,1.21804,168.193,787.729)">
                <path d="M361.5,897.273C362.423,895.776 352.654,895.451 344.727,893.816C331.203,891.028 312.518,887.321 290.317,885.167C277.84,883.957 264.252,883.277 250.142,883.475C238.878,883.633 227.285,884.364 215.622,885.782C199.346,887.76 183.024,890.929 167.089,895.771C160.852,897.389 158.23,900.938 161.238,903.692C164.245,906.446 171.75,907.368 177.987,905.75C189.603,903.227 201.139,901.817 212.433,900.831C224.509,899.777 236.22,899.632 247.564,899.711C259.436,899.794 270.822,900.301 281.524,901.02C302.033,902.399 320.007,904.468 333.053,906.208C343.491,907.601 351.199,908.616 355.294,908.815C359.171,909.003 362.066,908.857 363.955,908.508C370.644,907.433 374.623,904.119 372.835,901.111C371.407,898.71 366.731,897.225 361.5,897.273Z" style="fill:rgb(174,232,236);"/>
            </g>
            <g transform="matrix(0.538259,-0.00911592,0.0441646,0.757783,352.496,998.846)">
                <path d="M177.6,909.539C201.993,905.625 223.64,904.333 242.924,903.587C250.401,903.297 257.469,903.142 264.183,903.03C271.652,902.907 278.646,902.836 285.21,902.923C327.593,903.487 351.119,910.66 351.119,910.66C358.077,913.671 368.026,912.71 373.322,908.514C378.618,904.318 377.269,898.467 370.311,895.456L310.845,879.299C298.653,877.549 284.479,876.229 268.408,876.299C255.506,876.355 241.383,877.328 226.295,879.41C208.035,881.93 188.591,886.115 167.475,891.982C159.19,893.769 154.731,899.153 157.525,903.999C160.319,908.844 169.315,911.327 177.6,909.539Z" style="fill:rgb(174,232,236);"/>
            </g>
            <g transform="matrix(0.538259,-0.00911592,0.0441646,0.757783,381.749,1276.68)">
                <path d="M177.6,909.539C201.411,905.752 221.876,905.104 239.77,905.271C246.736,905.337 253.24,905.61 259.387,905.958C266.212,906.344 272.555,906.82 278.45,907.508C315.395,911.815 334.505,923.211 334.505,923.211C339.561,927.339 349.458,928.171 356.593,925.068C363.727,921.964 365.414,916.094 360.358,911.966L310.652,887.046C299.172,883.698 285.384,880.853 269.209,879.658C256.387,878.711 242.02,878.821 226.409,880.408C208.422,882.238 188.931,885.984 167.475,891.982C159.19,893.769 154.731,899.153 157.525,903.999C160.319,908.844 169.315,911.327 177.6,909.539Z" style="fill:rgb(174,232,236);"/>
            </g>
            <g transform="matrix(3.7879,-0.131509,0.0851008,1.62958,-5307.02,-1050.31)">
                <g transform="matrix(0.432181,5.48511e-18,4.0399e-18,1.16442,956.682,-1699.96)">
                    <rect x="992.126" y="2409.45" width="377.953" height="377.953" style="fill:rgb(16,103,100);"/>
                </g>
                <g transform="matrix(0.450752,-0.00581984,0.00740472,1.17204,910.734,-1718.79)">
                    <rect x="992.126" y="2409.45" width="377.953" height="377.953" style="fill:rgb(1,200,235);"/>
                    <path d="M1375.54,2409.42C1375.54,2407.19 1373.12,2405.39 1370.12,2405.39C1370.12,2405.39 1331.7,2405.61 1279.42,2404.16C1214.59,2402.36 1129.02,2395.93 1067.86,2395.3C1023.4,2394.84 992.249,2396.9 992.249,2396.9C987.753,2396.9 983.431,2398.23 980.24,2400.61C977.05,2402.98 975.255,2406.2 975.255,2409.54C975.255,2409.54 980.576,2469.44 983.573,2541.78C985.36,2584.91 987.121,2632.4 986.218,2674.05C985.866,2690.29 984.763,2705.59 983.343,2719.42C979.159,2760.14 973.656,2787.5 973.656,2787.5C973.656,2795.05 981.844,2801.14 991.991,2801.14C991.991,2801.14 1113.39,2795.41 1218.84,2793.11C1299.18,2791.36 1370.04,2791.87 1370.04,2791.87C1371.63,2791.87 1373.17,2791.39 1374.31,2790.55C1375.44,2789.7 1376.08,2788.56 1376.08,2787.37C1376.08,2787.37 1376.29,2772.88 1378,2749.56C1380.66,2713.21 1388.11,2656.01 1392.48,2598.3C1392.83,2593.76 1393.43,2589.23 1393.24,2584.69C1393.12,2581.63 1392.43,2578.66 1391.98,2575.63C1389.16,2556.81 1385.65,2538.74 1383.3,2521.25C1381.57,2508.48 1380.21,2496.37 1379.31,2484.99C1375.76,2440.6 1375.54,2409.42 1375.54,2409.42ZM1364.56,2413.5C1364.38,2423.27 1363.65,2450.06 1360.85,2485.09C1359.94,2496.48 1358.58,2508.6 1356.86,2521.39C1354.51,2538.91 1351,2557.01 1348.18,2575.87C1347.73,2578.9 1347.04,2581.88 1346.91,2584.94C1346.73,2589.48 1347.33,2594.01 1347.68,2598.55C1352.05,2656.21 1359.5,2713.33 1362.16,2749.65C1363.31,2765.31 1363.78,2776.99 1363.96,2782.97C1345.08,2783.05 1285.23,2783.14 1218.95,2781.69C1136.63,2779.89 1044.63,2776.01 1008.27,2774.39C1006.29,2762.55 1003.37,2743.25 1000.91,2719.32C999.489,2705.51 998.386,2690.22 998.034,2673.98C997.131,2632.35 998.892,2584.84 1000.68,2541.69C1002.83,2489.87 1006.16,2444.42 1007.88,2422.78C1021.26,2423.31 1042.26,2423.86 1067.58,2423.6C1128.76,2422.97 1214.45,2416.54 1279.32,2414.74C1319.94,2413.62 1352.18,2413.5 1364.56,2413.5L1364.56,2413.5Z" style="fill:rgb(1,200,235);"/>
                </g>
                <g transform="matrix(0.01784,-2.4758e-19,0,0.671418,1377.9,-76.6494)">
                    <path d="M2434,1866.59C2436.5,1896.56 2438.82,1915.71 2438.82,1915.71" style="fill:rgb(16,103,100);"/>
                    <path d="M2276.72,1866.63C2269.65,1870.8 2260.36,1874.7 2256.74,1878.43C2254.08,1881.18 2253.99,1883.81 2254.8,1886.3C2260.81,1904.77 2281.53,1915.78 2281.53,1915.78C2282.07,1920.24 2352.99,1923.83 2439.8,1923.8C2526.61,1923.76 2596.64,1920.11 2596.1,1915.65C2596.1,1915.65 2614.16,1904.63 2616.69,1886.18C2617.03,1883.69 2616.45,1881.06 2613.3,1878.32C2609.01,1874.59 2599.05,1870.7 2591.29,1866.54C2590.92,1862.08 2520.14,1858.48 2433.33,1858.5C2346.52,1858.53 2276.35,1862.17 2276.72,1866.63Z" style="fill:white;"/>
                </g>
                <g transform="matrix(0.0446271,-6.19326e-19,0,0.511695,1342.89,423.461)">
                    <path d="M2434,1866.59C2436.5,1896.56 2438.82,1915.71 2438.82,1915.71" style="fill:rgb(16,103,100);"/>
                    <path d="M2371.13,1866.75C2368.51,1870.94 2365.01,1874.82 2363.76,1878.58C2362.85,1881.33 2362.95,1883.96 2363.42,1886.45C2366.87,1904.96 2375.95,1915.95 2375.95,1915.95C2376.66,1921.8 2405.41,1926.45 2440.1,1926.32C2474.8,1926.19 2502.39,1921.33 2501.68,1915.48C2501.68,1915.48 2508.1,1904.48 2508.07,1886.02C2508.07,1883.54 2507.69,1880.91 2506.28,1878.17C2504.36,1874.43 2500.19,1870.58 2496.88,1866.42C2496.39,1860.57 2467.82,1855.89 2433.12,1855.98C2398.42,1856.07 2370.65,1860.9 2371.13,1866.75Z" style="fill:white;"/>
                </g>
                <g transform="matrix(0.01784,0,0,0.562059,1433.81,154.266)">
                    <path d="M2434,1866.59C2436.5,1896.56 2438.82,1915.71 2438.82,1915.71" style="fill:rgb(16,103,100);"/>
                    <path d="M2276.72,1866.65C2269.64,1870.83 2260.37,1874.71 2256.74,1878.46C2254.09,1881.2 2253.99,1883.83 2254.8,1886.32C2260.81,1904.81 2281.53,1915.8 2281.53,1915.8C2282.18,1921.13 2353.18,1925.42 2439.99,1925.37C2526.8,1925.32 2596.75,1920.95 2596.1,1915.62C2596.1,1915.62 2614.16,1904.62 2616.69,1886.15C2617.03,1883.66 2616.45,1881.04 2613.3,1878.3C2609,1874.56 2599.06,1870.68 2591.29,1866.52C2590.85,1861.19 2520.01,1856.89 2433.2,1856.93C2346.39,1856.97 2276.27,1861.32 2276.72,1866.65Z" style="fill:white;"/>
                </g>
                <g transform="matrix(0.230302,0.00881695,0,0.401949,937.045,685.582)">
                    <path d="M2434,1866.59C2436.5,1896.56 2438.82,1915.71 2438.82,1915.71" style="fill:rgb(16,103,100);"/>
                    <path d="M2421.87,1868.11C2421.64,1872.42 2421.25,1876.38 2421.28,1880.23C2421.3,1883.03 2421.52,1885.69 2421.8,1888.2C2423.9,1906.92 2426.74,1917.79 2426.74,1917.79C2427.63,1925.16 2433.77,1930.21 2440.43,1929.06C2447.1,1927.91 2451.79,1921 2450.89,1913.63C2450.89,1913.63 2451.08,1902.61 2449.69,1884.32C2449.5,1881.85 2449.23,1879.25 2448.77,1876.56C2448.12,1872.85 2447.05,1869.15 2446.14,1865.06C2445.52,1857.65 2439.58,1852.32 2432.89,1853.17C2426.19,1854.01 2421.26,1860.71 2421.87,1868.11Z" style="fill:white;"/>
                </g>
                <g transform="matrix(0.01784,-2.4758e-19,0,0.671418,1400.06,12.6633)">
                    <path d="M2434,1866.59C2436.5,1896.56 2438.82,1915.71 2438.82,1915.71" style="fill:rgb(16,103,100);"/>
                    <path d="M2276.72,1866.63C2269.65,1870.8 2260.36,1874.7 2256.74,1878.43C2254.08,1881.18 2253.99,1883.81 2254.8,1886.3C2260.81,1904.77 2281.53,1915.78 2281.53,1915.78C2282.07,1920.24 2352.99,1923.83 2439.8,1923.8C2526.61,1923.76 2596.64,1920.11 2596.1,1915.65C2596.1,1915.65 2614.16,1904.63 2616.69,1886.18C2617.03,1883.69 2616.45,1881.06 2613.3,1878.32C2609.01,1874.59 2599.05,1870.7 2591.29,1866.54C2590.92,1862.08 2520.14,1858.48 2433.33,1858.5C2346.52,1858.53 2276.35,1862.17 2276.72,1866.63Z" style="fill:white;"/>
                </g>
                <g transform="matrix(0.045728,-6.34603e-19,0,0.549853,1305.26,439.889)">
                    <path d="M2434,1866.59C2436.5,1896.56 2438.82,1915.71 2438.82,1915.71" style="fill:rgb(16,103,100);"/>
                    <path d="M2372.65,1866.74C2370.09,1870.92 2366.69,1874.8 2365.48,1878.56C2364.59,1881.31 2364.7,1883.94 2365.16,1886.43C2368.57,1904.93 2377.47,1915.92 2377.47,1915.92C2378.12,1921.37 2406.15,1925.7 2440.01,1925.58C2473.87,1925.47 2500.83,1920.95 2500.17,1915.5C2500.17,1915.5 2506.4,1904.5 2506.33,1886.05C2506.32,1883.56 2505.95,1880.93 2504.57,1878.2C2502.69,1874.46 2498.6,1870.6 2495.36,1866.44C2494.91,1860.99 2467.05,1856.63 2433.18,1856.72C2399.32,1856.8 2372.19,1861.29 2372.65,1866.74Z" style="fill:white;"/>
                </g>
                <g transform="matrix(0.01784,0,0,0.671418,1466.27,-88.2182)">
                    <path d="M2434,1866.59C2436.5,1896.56 2438.82,1915.71 2438.82,1915.71" style="fill:rgb(16,103,100);"/>
                    <path d="M2276.72,1866.63C2269.65,1870.8 2260.36,1874.7 2256.74,1878.43C2254.08,1881.18 2253.99,1883.81 2254.8,1886.3C2260.81,1904.77 2281.53,1915.78 2281.53,1915.78C2282.07,1920.24 2352.99,1923.83 2439.8,1923.8C2526.61,1923.76 2596.64,1920.11 2596.1,1915.65C2596.1,1915.65 2614.16,1904.63 2616.69,1886.18C2617.03,1883.69 2616.45,1881.06 2613.3,1878.32C2609.01,1874.59 2599.05,1870.7 2591.29,1866.54C2590.92,1862.08 2520.14,1858.48 2433.33,1858.5C2346.52,1858.53 2276.35,1862.17 2276.72,1866.63Z" style="fill:white;"/>
                </g>
                <g transform="matrix(0.138411,-1.92084e-18,0,0.548836,1159.98,268.718)">
                    <path d="M2434,1866.59C2436.5,1896.56 2438.82,1915.71 2438.82,1915.71" style="fill:rgb(16,103,100);"/>
                    <path d="M2413.75,1867.01C2413.14,1871.21 2412.24,1875.12 2412.07,1878.89C2411.94,1881.65 2412.14,1884.29 2412.45,1886.78C2414.75,1905.33 2418.58,1916.31 2418.58,1916.31C2419.24,1921.76 2428.84,1925.92 2440.01,1925.59C2451.18,1925.25 2459.72,1920.56 2459.05,1915.11C2459.05,1915.11 2460.23,1904.1 2459.04,1885.7C2458.88,1883.22 2458.6,1880.6 2457.98,1877.87C2457.14,1874.14 2455.56,1870.31 2454.26,1866.17C2453.81,1860.72 2444.36,1856.48 2433.18,1856.7C2422,1856.94 2413.29,1861.55 2413.75,1867.01Z" style="fill:white;"/>
                </g>
                <g transform="matrix(0.01784,0,0,0.671418,1368.28,83.6172)">
                    <path d="M2434,1866.59C2436.5,1896.56 2438.82,1915.71 2438.82,1915.71" style="fill:rgb(16,103,100);"/>
                    <path d="M2276.72,1866.63C2269.65,1870.8 2260.36,1874.7 2256.74,1878.43C2254.08,1881.18 2253.99,1883.81 2254.8,1886.3C2260.81,1904.77 2281.53,1915.78 2281.53,1915.78C2282.07,1920.24 2352.99,1923.83 2439.8,1923.8C2526.61,1923.76 2596.64,1920.11 2596.1,1915.65C2596.1,1915.65 2614.16,1904.63 2616.69,1886.18C2617.03,1883.69 2616.45,1881.06 2613.3,1878.32C2609.01,1874.59 2599.05,1870.7 2591.29,1866.54C2590.92,1862.08 2520.14,1858.48 2433.33,1858.5C2346.52,1858.53 2276.35,1862.17 2276.72,1866.63Z" style="fill:white;"/>
                </g>
                <g transform="matrix(-0.194622,5.40185e-18,0,0.282537,1990.27,845.131)">
                    <path d="M2434,1866.59C2436.5,1896.56 2438.82,1915.71 2438.82,1915.71" style="fill:rgb(16,103,100);"/>
                    <path d="M2448.33,1864.5C2449.36,1868.59 2450.55,1872.11 2451.25,1875.85C2451.75,1878.5 2452.03,1881.09 2452.2,1883.56C2453.53,1901.76 2453.05,1912.68 2453.05,1912.68C2454.32,1923.15 2448.97,1933.01 2441.12,1934.68C2433.26,1936.36 2425.85,1929.21 2424.58,1918.74C2424.58,1918.74 2421.48,1907.94 2419.29,1888.98C2419,1886.46 2418.78,1883.77 2418.8,1880.94C2418.82,1876.98 2419.34,1873.08 2419.67,1868.67C2418.8,1858.13 2424.51,1848.64 2432.42,1847.49C2440.33,1846.34 2447.46,1853.96 2448.33,1864.5Z" style="fill:white;"/>
                </g>
            </g>
            <g transform="matrix(-2.14938,-0.0275646,0.0379521,-1.91775,3704.67,5927.05)">
                <path d="M1373.8,2409.45C1373.8,2408.53 1373.41,2407.65 1372.71,2406.99C1372.01,2406.34 1371.06,2405.98 1370.08,2405.98C1370.08,2405.98 1337.13,2405.79 1290.7,2404.18C1236.89,2402.3 1165.36,2395.61 1105.5,2395.48C1041.85,2395.35 992.116,2400.33 992.116,2400.33C986.718,2400.33 982.345,2404.4 982.345,2409.44C982.345,2409.44 983.86,2433.64 985.241,2469.91C986.22,2495.6 987.251,2527.27 987.808,2560.63C988.44,2598.45 988.455,2638.38 988.389,2674.01C988.271,2737.53 987.386,2787.4 987.386,2787.4C987.386,2788.57 987.886,2789.7 988.776,2790.53C989.666,2791.36 990.873,2791.82 992.131,2791.82C992.131,2791.82 1046,2792.67 1113.08,2794.66C1172.7,2796.43 1242.56,2799.97 1294.5,2801.17C1338.92,2802.21 1370.1,2801.98 1370.1,2801.98C1378.72,2801.98 1385.71,2795.46 1385.71,2787.42C1385.71,2787.42 1379.11,2634.27 1375.99,2522.84C1374.21,2459.33 1373.8,2409.45 1373.8,2409.45ZM1366.32,2412.95C1366.19,2425.35 1365.67,2469.23 1364.17,2522.83C1361.62,2613.57 1356.78,2731.99 1355.07,2772.81C1341.73,2772.85 1320.35,2773.03 1294.47,2773.63C1242.53,2774.84 1172.68,2778.37 1113.06,2780.14C1057.65,2781.79 1011.25,2782.65 996.792,2782.9C996.576,2769.29 995.96,2726.27 995.863,2674.02C995.797,2638.38 995.812,2598.45 996.444,2560.63C997.001,2527.28 998.032,2495.61 999.011,2469.93C999.864,2447.52 1000.77,2429.72 1001.34,2419.38C1018.55,2420.79 1058.19,2423.52 1105.53,2423.42C1165.39,2423.29 1236.9,2416.6 1290.71,2414.72C1327.9,2413.43 1356.44,2413.05 1366.32,2412.95L1366.32,2412.95Z" style="fill:rgb(248,167,34);"/>
            </g>
            <g transform="matrix(-1.8848,0.0532996,-0.14575,-1.86086,3022.22,6498.39)">
                <path d="M1396.33,2408.76C1396.33,2396.83 1385.07,2387.36 1370.9,2387.36C1370.9,2387.36 1332.89,2392.52 1279.82,2397.21C1260.99,2398.88 1240.53,2400.3 1219.2,2401.37C1189.17,2402.89 1157.87,2403.76 1128.38,2404.29C1054.44,2405.62 992.298,2404.81 992.298,2404.81C990.806,2404.81 989.359,2405.32 988.288,2406.22C987.216,2407.12 986.611,2408.34 986.611,2409.59L986.395,2787.55C986.395,2790.16 988.853,2792.22 991.948,2792.22L1369.76,2796.14C1372.56,2796.14 1375.29,2795.18 1377.3,2793.48C1379.32,2791.78 1380.46,2789.49 1380.46,2787.13C1380.46,2787.13 1382.84,2692.6 1386.81,2597.99C1390.78,2503.28 1396.33,2408.76 1396.33,2408.76ZM1344.88,2428.49C1346.68,2460.46 1350.44,2529.59 1353.35,2598.86C1356.59,2676 1358.78,2753.14 1359.47,2778.78C1302.36,2779.37 1039.45,2782.09 997.854,2782.52C997.854,2782.52 997.643,2414.03 997.643,2414.03C1014.6,2413.87 1067.38,2413.52 1128,2414.61C1157.45,2415.14 1188.69,2416.01 1218.6,2417.52C1239.86,2418.6 1260.21,2420.02 1278.92,2421.69C1305.84,2424.08 1328.83,2426.6 1344.88,2428.49L1344.88,2428.49Z" style="fill:rgb(35,82,113);"/>
            </g>
            <g transform="matrix(1.19752,0,0,1.07204,-221.606,211.45)">
                <path d="M918.484,1095.64C913.799,1095.72 909.34,1097.53 906.091,1100.66C902.841,1103.8 901.067,1108.01 901.159,1112.37C901.159,1112.37 906.746,1420.41 904.543,1597.32C903.653,1668.74 900.673,1718.64 900.673,1718.64C901.005,1734.32 914.767,1746.86 931.629,1746.86C931.629,1746.86 1126.53,1768.54 1297.43,1779.21C1331.59,1781.34 1364.69,1782.44 1394.97,1782.77C1479.38,1783.68 1541.29,1780.58 1541.29,1780.58C1577.38,1780.58 1607.02,1754.1 1608.47,1720.58L1606.27,1102.39C1606.69,1092.55 1602.73,1082.99 1595.32,1075.95C1587.91,1068.91 1577.72,1065.03 1567.13,1065.21L918.484,1095.64ZM918.808,1112.05L1567.83,1100.96L1541.29,1718.08L931.629,1718.08L918.808,1112.05Z" style="fill:rgb(211,97,71);"/>
            </g>
            <g transform="matrix(0.805326,0,0,0.629023,794.021,531.208)">
                <path d="M529.327,813.814C529.327,813.814 537.446,807.649 548.847,797.428C554.427,792.424 560.659,786.3 567.319,779.752C572.604,774.555 578.122,769.078 583.548,763.357C593.791,752.558 603.355,740.896 612.671,731.311C615.28,728.626 617.788,726.02 620.411,723.865C635.119,711.783 646.616,705.604 646.616,705.604C652.238,700.417 652.851,691.342 647.983,685.352C643.115,679.361 634.599,678.708 628.977,683.895C628.977,683.895 621.592,695.136 608.266,708.918C605.889,711.376 603.109,713.648 600.242,716.016C590.006,724.469 577.807,732.886 566.31,742.143C560.22,747.047 554.344,752.082 548.76,756.913C541.725,763 535.146,768.695 529.7,773.864C518.574,784.425 511.687,792.105 511.687,792.105C506.065,797.292 505.452,806.367 510.32,812.357C515.188,818.348 523.704,819.001 529.327,813.814Z" style="fill:rgb(255,229,190);"/>
            </g>
            <g transform="matrix(0.805326,0,0,0.629023,1097.61,228.628)">
                <path d="M528.967,810.491C528.967,810.491 535.808,803.046 545.307,791.217C549.96,785.423 555.123,778.476 560.642,771.048C565.02,765.155 569.59,758.953 574.064,752.558C582.494,740.506 590.314,727.791 597.994,717.042C600.15,714.025 602.218,711.105 604.418,708.556C616.685,694.341 626.574,686.004 626.574,686.004C630.475,681.029 629.851,673.615 625.182,669.458C620.513,665.301 613.555,665.966 609.654,670.941C609.654,670.941 603.713,682.793 592.767,698.184C590.804,700.944 588.475,703.632 586.072,706.429C577.511,716.393 567.159,726.854 557.529,737.838C552.418,743.666 547.503,749.562 542.84,755.2C536.962,762.308 531.464,768.958 526.941,774.867C517.706,786.931 512.046,795.428 512.046,795.428C508.145,800.403 508.769,807.818 513.438,811.974C518.108,816.131 525.066,815.466 528.967,810.491Z" style="fill:rgb(255,229,190);"/>
            </g>
            <g transform="matrix(0.805326,0,0,0.629023,670.635,684.907)">
                <path d="M529.402,810.878C529.402,810.878 535.614,800.969 546.139,787.73C557.688,773.202 575.181,755.661 589.745,737.77C596.888,728.996 603.332,720.199 608.889,712.537C619.872,697.395 627.009,686.392 627.009,686.392C631.111,681.16 630.455,673.365 625.546,668.994C620.636,664.624 613.32,665.323 609.218,670.554C609.218,670.554 600.326,679.994 588.295,694.203C582.207,701.394 575.229,709.715 568.397,718.765C554.464,737.218 541.376,758.681 530.013,773.374C519.658,786.765 511.611,795.041 511.611,795.041C507.51,800.272 508.166,808.067 513.075,812.438C517.984,816.808 525.3,816.11 529.402,810.878Z" style="fill:rgb(255,229,190);"/>
            </g>
            <g transform="matrix(0.805326,0,0,0.629023,974.227,707.1)">
                <path d="M528.109,811.162C528.109,811.162 535.862,802.239 547.808,790.515C554.184,784.257 562.139,777.792 569.832,770.282C572.858,767.327 575.902,764.286 578.742,761.039C588.848,749.483 597.093,736.392 605.596,727.162C617.013,714.77 626.409,707.717 626.409,707.717C630.657,703.246 630.7,695.941 626.504,691.415C622.308,686.888 615.453,686.842 611.204,691.313C611.204,691.313 604.469,701.235 592.697,713.245C583.93,722.19 571.543,730.811 560.571,741.435C557.489,744.42 554.598,747.625 551.787,750.813C544.643,758.916 538.477,767.311 532.525,774.026C521.374,786.608 512.905,794.758 512.905,794.758C508.656,799.228 508.613,806.533 512.809,811.06C517.005,815.587 523.86,815.632 528.109,811.162Z" style="fill:rgb(255,229,190);"/>
            </g>
            <g transform="matrix(0.805326,0,0,0.629023,879.771,187.996)">
                <path d="M530.847,812.165C530.847,812.165 537.813,804.845 547.348,793.033C552.015,787.252 557.141,780.272 562.62,772.808C566.968,766.885 571.499,760.651 575.901,754.193C584.214,742 591.721,729.08 599.319,718.221C601.446,715.181 603.488,712.233 605.712,709.708C618.194,695.543 628.454,687.678 628.454,687.678C633.222,681.597 632.46,672.535 626.753,667.455C621.046,662.374 612.541,663.186 607.774,669.267C607.774,669.267 602.334,681.424 591.473,697.032C589.537,699.813 587.177,702.478 584.748,705.25C576.071,715.148 565.474,725.317 555.691,736.202C550.511,741.967 545.559,747.826 540.862,753.439C534.944,760.511 529.409,767.128 524.9,773.05C515.688,785.149 510.166,793.754 510.166,793.754C505.398,799.835 506.161,808.897 511.868,813.978C517.575,819.058 526.079,818.246 530.847,812.165Z" style="fill:rgb(255,229,190);"/>
            </g>
            <g transform="matrix(0.805326,0,0,0.629023,548.807,187.996)">
                <path d="M530.847,812.165C530.847,812.165 537.813,804.845 547.348,793.033C552.015,787.252 557.141,780.272 562.62,772.808C566.968,766.885 571.499,760.651 575.901,754.193C584.214,742 591.721,729.08 599.319,718.221C601.446,715.181 603.488,712.233 605.712,709.708C618.194,695.543 628.454,687.678 628.454,687.678C633.222,681.597 632.46,672.535 626.753,667.455C621.046,662.374 612.541,663.186 607.774,669.267C607.774,669.267 602.334,681.424 591.473,697.032C589.537,699.813 587.177,702.478 584.748,705.25C576.071,715.148 565.474,725.317 555.691,736.202C550.511,741.967 545.559,747.826 540.862,753.439C534.944,760.511 529.409,767.128 524.9,773.05C515.688,785.149 510.166,793.754 510.166,793.754C505.398,799.835 506.161,808.897 511.868,813.978C517.575,819.058 526.079,818.246 530.847,812.165Z" style="fill:rgb(255,229,190);"/>
            </g>
            <g transform="matrix(0.805326,0,0,0.629023,555.346,452.89)">
                <path d="M528.85,812.515C528.85,812.515 534.705,803.262 545.62,791.048C547.866,788.534 550.507,786.097 553.278,783.549C562.753,774.838 574.801,766.137 585.686,755.588C588.773,752.597 591.591,749.306 594.432,746.081C601.408,738.162 607.628,729.95 613.976,722.911C616.48,720.136 618.904,717.459 621.431,715.18C636.216,701.853 647.825,694.567 647.825,694.567C652.774,689.66 653.054,681.394 648.449,676.12C643.844,670.846 636.087,670.548 631.137,675.455C631.137,675.455 623.481,687.268 609.941,702.021C607.626,704.543 604.946,706.926 602.167,709.387C595.122,715.627 586.987,721.646 579.071,728.49C575.848,731.277 572.565,734.035 569.543,737.1C558.885,747.908 549.872,760.087 541.036,769.529C538.452,772.29 535.98,774.921 533.465,777.128C521.246,787.848 512.163,793.404 512.163,793.404C507.213,798.311 506.934,806.576 511.539,811.85C516.144,817.124 523.901,817.422 528.85,812.515Z" style="fill:rgb(255,229,190);"/>
            </g>
            <g transform="matrix(0.805326,0,0,0.629023,745.705,348.421)">
                <path d="M643.084,773.839C643.084,773.839 634.668,768.002 621.587,760.174C615.179,756.339 607.583,752.179 599.462,747.733C593.02,744.206 586.246,740.533 579.312,736.998C566.247,730.338 552.681,724.439 540.996,718.33C537.715,716.614 534.543,714.973 531.692,713.125C515.802,702.825 505.903,693.934 505.903,693.934C500.564,690.824 493.86,692.918 490.942,698.607C488.023,704.296 489.988,711.439 495.327,714.549C495.327,714.549 507.695,718.628 524.41,727.319C527.409,728.879 530.418,730.838 533.544,732.854C544.679,740.037 556.662,749.021 568.977,757.143C575.513,761.454 582.071,765.547 588.335,769.421C596.232,774.305 603.619,778.873 610.108,782.55C623.354,790.057 632.508,794.454 632.508,794.454C637.847,797.564 644.551,795.47 647.47,789.781C650.388,784.092 648.423,776.949 643.084,773.839Z" style="fill:rgb(255,229,190);"/>
            </g>
            <g transform="matrix(0.805326,0,0,0.629023,990.078,414.892)">
                <path d="M632.731,770.842C632.731,770.842 623.439,773.777 609.939,779.371C603.331,782.109 595.799,785.67 587.748,789.48C581.358,792.504 574.674,795.708 568.004,799.174C555.409,805.72 543.209,813.309 531.821,819.04C528.633,820.644 525.56,822.211 522.511,823.312C505.398,829.496 492.984,831.25 492.984,831.25C486.093,834.229 482.768,842.609 485.564,849.952C488.359,857.295 496.224,860.838 503.115,857.859C503.115,857.859 513.167,849.902 529.487,841.634C532.394,840.161 535.623,839.003 538.959,837.787C550.875,833.445 564.589,829.832 577.904,825.177C584.955,822.712 591.845,820.049 598.406,817.474C606.673,814.23 614.404,811.194 620.935,808.253C634.277,802.244 642.862,797.451 642.862,797.451C649.753,794.472 653.078,786.092 650.282,778.749C647.487,771.406 639.622,767.863 632.731,770.842Z" style="fill:rgb(255,229,190);"/>
            </g>
            <g transform="matrix(0.805326,0,0,0.629023,794.021,531.208)">
                <path d="M643.357,771.069C643.357,771.069 635.524,766.187 623.258,760.019C617.256,757.001 610.124,753.87 602.499,750.524C596.445,747.867 590.088,745.119 583.566,742.564C571.241,737.735 558.508,733.942 547.486,729.444C544.404,728.186 541.419,726.987 538.756,725.482C523.774,717.012 514.771,708.995 514.771,708.995C507.997,705.724 500.006,708.93 496.937,716.147C493.868,723.365 496.876,731.88 503.65,735.15C503.65,735.15 515.243,737.075 531.099,743.492C533.916,744.632 536.731,746.233 539.651,747.873C550.092,753.736 561.164,761.435 572.699,768.124C578.802,771.664 584.933,774.944 590.799,778.042C598.187,781.944 605.1,785.592 611.187,788.41C623.627,794.169 632.236,797.224 632.236,797.224C639.01,800.494 647.001,797.289 650.07,790.071C653.139,782.854 650.131,774.339 643.357,771.069Z" style="fill:rgb(255,229,190);"/>
            </g>
            <g transform="matrix(0.805326,0,0,0.629023,1097.61,228.628)">
                <path d="M642.167,773.362C642.167,773.362 633.882,768.656 621.072,762.562C614.799,759.577 607.385,756.419 599.458,753.043C593.17,750.365 586.561,747.585 579.81,744.959C567.081,740.01 553.945,735.88 542.551,731.303C539.354,730.019 536.264,728.794 533.464,727.327C517.835,719.136 507.99,711.62 507.99,711.62C502.404,709.05 495.911,711.795 493.499,717.747C491.086,723.699 493.663,730.618 499.249,733.189C499.249,733.189 511.133,735.672 527.445,742.178C530.367,743.344 533.323,744.901 536.392,746.5C547.331,752.2 559.159,759.557 571.267,766.037C577.69,769.474 584.12,772.693 590.261,775.735C598.002,779.569 605.243,783.154 611.584,785.974C624.53,791.731 633.426,794.931 633.426,794.931C639.012,797.501 645.505,794.756 647.917,788.804C650.33,782.852 647.753,775.933 642.167,773.362Z" style="fill:rgb(255,229,190);"/>
            </g>
            <g transform="matrix(0.805326,0,0,0.629023,670.635,684.907)">
                <path d="M643.394,773.331C643.394,773.331 631.62,767.867 615.292,758.138C597.381,747.466 574.738,730.668 552.586,717.151C541.715,710.518 531.014,704.653 521.706,699.604C503.328,689.635 490.182,683.303 490.182,683.303C484.58,680.011 477.524,682.185 474.434,688.154C471.345,694.123 473.385,701.642 478.987,704.934C478.987,704.934 491.028,713.401 508.747,724.644C517.722,730.338 528.087,736.852 539.152,743.108C561.701,755.858 587.117,767.299 605.145,777.745C621.58,787.267 632.199,794.962 632.199,794.962C637.801,798.254 644.857,796.08 647.947,790.111C651.036,784.142 648.996,776.623 643.394,773.331Z" style="fill:rgb(255,229,190);"/>
            </g>
            <g transform="matrix(0.805326,0,0,0.629023,974.227,707.1)">
                <path d="M485.819,732.069C485.819,732.069 498.213,736.748 515.386,744.69C524.542,748.925 534.716,754.706 545.725,759.83C550.061,761.847 554.485,763.851 559.006,765.573C575.066,771.689 591.737,775.387 604.776,780.709C622.304,787.864 633.756,794.899 633.756,794.899C639.303,797.255 645.601,794.369 647.812,788.459C650.023,782.549 647.314,775.838 641.768,773.482C641.768,773.482 628.914,770.195 611.573,762.54C598.673,756.846 584.185,747.31 568.581,739.978C564.188,737.914 559.683,736.125 555.233,734.412C543.935,730.061 532.818,726.8 523.439,723.163C505.847,716.34 493.831,710.652 493.831,710.652C488.284,708.296 481.986,711.182 479.775,717.092C477.564,723.002 480.273,729.713 485.819,732.069Z" style="fill:rgb(255,229,190);"/>
            </g>
            <g transform="matrix(0.805326,0,0,0.629023,879.771,187.996)">
                <path d="M485.532,739.428C485.532,739.428 495.008,741.932 509.411,744.424C516.462,745.644 524.708,746.655 533.525,747.733C540.522,748.588 547.862,749.448 555.314,750.074C569.386,751.255 583.617,751.325 596.251,752.555C599.788,752.9 603.207,753.214 606.382,753.916C624.202,757.856 635.829,763.068 635.829,763.068C643.186,764.225 650.04,758.8 651.126,750.961C652.212,743.122 647.121,735.818 639.764,734.661C639.764,734.661 627.22,736.071 609.092,734.356C605.861,734.051 602.503,733.3 599.023,732.54C586.595,729.828 572.952,725.514 559.16,722.313C551.856,720.618 544.596,719.181 537.665,717.846C528.932,716.164 520.763,714.593 513.683,713.59C499.218,711.542 489.467,711.021 489.467,711.021C482.11,709.864 475.256,715.289 474.17,723.128C473.084,730.967 478.175,738.271 485.532,739.428Z" style="fill:rgb(255,229,190);"/>
            </g>
            <g transform="matrix(0.805326,0,0,0.629023,548.807,187.996)">
                <path d="M644.303,771.574C644.303,771.574 634.949,764.933 620.345,756.095C613.193,751.767 604.698,747.099 595.614,742.11C588.408,738.152 580.831,734.034 573.065,730.087C558.421,722.646 543.2,716.155 530.107,709.316C526.435,707.397 522.882,705.562 519.707,703.467C501.97,691.763 491.091,681.546 491.091,681.546C484.579,677.72 476.377,680.246 472.786,687.185C469.194,694.124 471.566,702.864 478.078,706.691C478.078,706.691 491.992,711.042 510.747,720.781C514.104,722.524 517.456,724.746 520.938,727.032C533.353,735.181 546.627,745.434 560.348,754.66C567.624,759.553 574.936,764.183 581.923,768.565C590.73,774.088 598.968,779.253 606.22,783.389C621.027,791.834 631.29,796.719 631.29,796.719C637.802,800.545 646.004,798.019 649.595,791.08C653.187,784.141 650.815,775.401 644.303,771.574Z" style="fill:rgb(255,229,190);"/>
            </g>
            <g transform="matrix(0.805326,0,0,0.629023,555.346,452.89)">
                <path d="M644.149,772.987C644.149,772.987 635.624,770.426 623.657,763.889C621.21,762.553 618.752,760.809 616.184,758.979C607.387,752.709 598.311,743.789 587.643,736.964C577.189,730.275 565.604,725.891 555.967,720.456C553.27,718.936 550.644,717.502 548.339,715.817C534.782,705.913 526.859,697.18 526.859,697.18C521.079,693.445 513.54,695.412 510.033,701.571C506.527,707.73 508.374,715.764 514.154,719.5C514.154,719.5 525.083,722.951 539.591,731.185C542.058,732.586 544.464,734.405 546.976,736.25C555.952,742.846 564.955,751.767 575.352,758.555C585.962,765.483 597.579,769.937 606.863,775.353C609.573,776.934 612.16,778.451 614.403,780.146C625.373,788.434 631.444,795.306 631.444,795.306C637.224,799.042 644.763,797.075 648.27,790.916C651.776,784.756 649.929,776.723 644.149,772.987Z" style="fill:rgb(255,229,190);"/>
            </g>
            <g transform="matrix(0.805326,-5.91329e-15,-5.17398e-15,0.629023,729.854,342.3)">
                <path d="M581.412,686.644C581.412,686.644 580.574,695.113 580.3,707.837C580.165,714.066 580.324,721.304 580.496,729.042C580.633,735.184 580.805,741.622 581.168,748.131C581.852,760.422 583.4,772.725 583.886,783.778C584.023,786.872 584.168,789.862 583.991,792.684C583,808.523 580.344,819.155 580.344,819.155C580.292,825.638 585.189,830.946 591.274,831.002C597.358,831.058 602.34,825.84 602.392,819.357C602.392,819.357 599.909,808.678 599.172,792.823C599.041,789.998 599.235,787.012 599.421,783.92C600.085,772.877 601.831,760.605 602.714,748.329C603.181,741.827 603.457,735.393 603.693,729.255C603.989,721.521 604.265,714.286 604.231,708.056C604.162,695.329 603.46,686.846 603.46,686.846C603.512,680.363 598.615,675.054 592.531,674.999C586.447,674.943 581.465,680.161 581.412,686.644Z" style="fill:rgb(255,229,190);"/>
            </g>
            <g transform="matrix(0.805326,0,0,0.629023,990.078,414.892)">
                <path d="M555.82,733.258C555.82,733.258 554.791,742.597 554.449,756.648C554.282,763.523 554.473,771.513 554.679,780.055C554.843,786.837 555.051,793.942 555.491,801.127C556.322,814.713 558.207,828.262 558.796,840.481C558.961,843.897 559.137,847.198 558.92,850.313C557.697,867.86 554.449,879.52 554.449,879.52C554.375,887.444 560.352,893.941 567.788,894.02C575.225,894.099 581.322,887.731 581.396,879.807C581.396,879.807 578.368,868.08 577.474,850.51C577.316,847.392 577.554,844.095 577.782,840.683C578.6,828.479 580.738,814.972 581.824,801.407C582.398,794.233 582.739,787.134 583.03,780.356C583.396,771.821 583.737,763.836 583.699,756.959C583.62,742.904 582.767,733.545 582.767,733.545C582.841,725.621 576.864,719.124 569.428,719.045C561.991,718.966 555.894,725.335 555.82,733.258Z" style="fill:rgb(255,229,190);"/>
            </g>
            <g transform="matrix(0.805326,0,0,0.629023,794.021,531.208)">
                <path d="M583.92,657.569C583.92,657.569 580.682,672.557 578.271,689.811C575.113,712.401 573.152,738.695 573.152,738.695C573.152,738.695 573.092,768.912 569.488,794.803C568.953,798.651 567.983,802.29 567.132,805.773C563.561,820.384 560.17,831.141 560.17,831.141C559.097,838.982 564.201,846.276 571.559,847.419C578.918,848.562 585.764,843.124 586.837,835.283C586.837,835.283 586.469,823.943 586.962,808.853C587.08,805.257 587.126,801.475 587.644,797.624C591.128,771.714 599.167,742.737 599.167,742.737C599.167,742.737 604.334,716.94 607.361,694.33C609.673,677.061 610.586,661.712 610.586,661.712C611.659,653.871 606.556,646.576 599.197,645.433C591.838,644.29 584.993,649.728 583.92,657.569Z" style="fill:rgb(255,229,190);"/>
            </g>
            <g transform="matrix(0.805326,0,0,0.629023,1097.61,228.628)">
                <path d="M558.286,672.557C558.286,672.557 557.606,682.888 557.568,698.362C557.549,705.94 557.844,714.743 558.159,724.153C558.41,731.618 558.702,739.45 559.186,747.361C560.097,762.269 561.877,777.259 562.567,790.667C562.761,794.43 562.962,798.06 562.838,801.499C562.143,820.681 559.684,833.777 559.684,833.777C559.74,840.26 564.726,845.475 570.81,845.415C576.894,845.355 581.788,840.043 581.732,833.56C581.732,833.56 579.046,820.515 578.019,801.35C577.835,797.914 577.973,794.28 578.102,790.514C578.559,777.095 580.079,762.073 580.732,747.148C581.078,739.229 581.234,731.393 581.356,723.925C581.508,714.51 581.65,705.703 581.5,698.126C581.193,682.656 580.334,672.34 580.334,672.34C580.278,665.857 575.293,660.642 569.208,660.702C563.124,660.762 558.23,666.074 558.286,672.557Z" style="fill:rgb(255,229,190);"/>
            </g>
            <g transform="matrix(0.805326,0,0,0.629023,670.635,684.907)">
                <path d="M533.653,682.596C533.653,682.596 538.196,692.449 543.098,707.551C548.477,724.125 553.096,747.183 559.541,767.89C562.701,778.041 566.246,787.597 569.362,795.872C575.525,812.234 580.442,823.379 580.442,823.379C582.578,829.804 589.207,833.174 595.238,830.898C601.268,828.623 604.43,821.558 602.295,815.133C602.295,815.133 599.533,803.175 594.659,786.326C592.194,777.806 589.304,768.002 585.764,757.995C578.543,737.581 568.514,716.565 562.905,700.077C557.795,685.054 555.506,674.35 555.506,674.35C553.371,667.924 546.741,664.555 540.71,666.83C534.68,669.106 531.518,676.17 533.653,682.596Z" style="fill:rgb(255,229,190);"/>
            </g>
            <g transform="matrix(0.805326,0,0,0.629023,974.227,707.1)">
                <path d="M579.189,846.538C579.189,846.538 578.32,832.502 578.374,812.476C578.403,801.799 579.363,789.506 579.424,776.655C579.448,771.594 579.426,766.451 579.122,761.325C578.041,743.118 574.635,725.267 574.066,710.343C573.3,690.28 574.834,676.235 574.834,676.235C574.672,669.875 569.694,664.852 563.725,665.025C557.756,665.198 553.043,670.503 553.205,676.863C553.205,676.863 555.455,690.798 555.716,710.876C555.91,725.811 553.421,743.833 553.273,762.076C553.231,767.211 553.471,772.348 553.754,777.4C554.472,790.228 556.059,802.447 556.633,813.107C557.71,833.101 557.56,847.166 557.56,847.166C557.723,853.526 562.701,858.549 568.669,858.375C574.638,858.202 579.352,852.898 579.189,846.538Z" style="fill:rgb(255,229,190);"/>
            </g>
            <g transform="matrix(0.805326,0,0,0.629023,879.771,187.996)">
                <path d="M549.301,668.797C549.301,668.797 549.674,678.995 551.425,694.133C552.283,701.542 553.661,710.093 555.136,719.234C556.307,726.49 557.569,734.09 559.073,741.737C561.914,756.182 565.8,770.467 568.198,783.482C568.869,787.125 569.535,790.642 569.783,794.021C571.179,812.999 569.707,826.092 569.707,826.092C570.726,833.942 577.533,839.433 584.9,838.348C592.266,837.263 597.42,830.01 596.402,822.16C596.402,822.16 591.652,809.983 588.164,791.314C587.542,787.989 587.288,784.412 587.006,780.712C586.001,767.492 586.103,752.619 585.16,737.895C584.661,730.099 583.941,722.42 583.221,715.097C582.313,705.873 581.462,697.244 580.401,689.865C578.233,674.788 575.995,664.865 575.995,664.865C574.977,657.016 568.169,651.524 560.803,652.609C553.436,653.694 548.282,660.948 549.301,668.797Z" style="fill:rgb(255,229,190);"/>
            </g>
            <g transform="matrix(0.805326,0,0,0.629023,548.807,187.996)">
                <path d="M531.878,683.265C531.878,683.265 533.983,692.6 538.279,706.2C540.382,712.855 543.188,720.449 546.189,728.566C548.572,735.01 551.103,741.749 553.878,748.48C559.122,761.202 565.349,773.515 569.917,785.015C571.195,788.231 572.445,791.333 573.265,794.399C577.88,811.662 578.667,824.048 578.667,824.048C581.15,831.518 588.856,835.435 595.866,832.789C602.876,830.144 606.552,821.932 604.07,814.463C604.07,814.463 597.365,804.309 590.756,787.799C589.582,784.866 588.722,781.617 587.815,778.262C584.573,766.26 582.14,752.516 578.702,739.112C576.883,732.021 574.869,725.087 572.915,718.481C570.453,710.16 568.149,702.377 565.852,695.796C561.159,682.346 557.281,673.68 557.281,673.68C554.799,666.21 547.092,662.294 540.082,664.939C533.072,667.584 529.396,675.796 531.878,683.265Z" style="fill:rgb(255,229,190);"/>
            </g>
            <g transform="matrix(0.805326,0,0,0.629023,555.346,452.89)">
                <path d="M555.13,645.33C555.13,645.33 558.991,656.014 562.281,672.947C562.959,676.435 563.354,680.231 563.761,684.209C565.153,697.808 565.084,713.72 567.102,729.659C567.674,734.179 568.631,738.635 569.523,743.073C571.714,753.967 574.561,764.362 576.424,774.177C577.159,778.049 577.863,781.791 578.199,785.393C580.165,806.449 579.248,821.143 579.248,821.143C580.226,828.271 586.451,833.212 593.14,832.171C599.829,831.129 604.467,824.496 603.489,817.368C603.489,817.368 598.663,803.568 594.89,782.793C594.245,779.239 593.914,775.439 593.578,771.505C592.727,761.533 592.663,750.704 591.835,739.597C591.498,735.073 591.218,730.512 590.552,726.006C588.204,710.119 583.864,694.894 581.544,681.439C580.866,677.504 580.225,673.746 579.937,670.197C578.541,652.969 579.371,641.554 579.371,641.554C578.393,634.426 572.168,629.485 565.478,630.527C558.789,631.569 554.152,638.202 555.13,645.33Z" style="fill:rgb(255,229,190);"/>
            </g>
            <g transform="matrix(0.805326,0,0,0.629023,990.078,414.892)">
                <path d="M515.502,816.29C515.502,816.29 521.372,819.872 530.686,824.084C535.235,826.142 540.663,828.15 546.464,830.294C551.078,832 555.912,833.746 560.889,835.286C570.348,838.213 580.026,840.04 588.482,842.833C590.829,843.608 593.111,844.344 595.119,845.414C606.608,851.538 613.075,857.885 613.075,857.885C619.979,860.828 627.827,857.245 630.59,849.888C633.352,842.531 629.989,834.168 623.084,831.224C623.084,831.224 614.294,831.067 602.011,827.057C599.865,826.356 597.736,825.212 595.534,824.048C587.605,819.856 579.415,814.066 570.671,809.233C566.071,806.69 561.44,804.402 556.996,802.246C551.407,799.534 546.177,797 541.551,795.146C532.081,791.35 525.512,789.629 525.512,789.629C518.607,786.686 510.759,790.269 507.997,797.627C505.234,804.984 508.597,813.346 515.502,816.29Z" style="fill:rgb(255,229,190);"/>
            </g>
            <g transform="matrix(2.83431,0,0,2.5008,-495.738,-5416.78)">
                <path d="M543.779,2762.07C543.779,2762.07 525.843,2787.63 525.843,2798.59C525.843,2807.92 533.88,2815.5 543.779,2815.5C553.678,2815.5 561.714,2807.92 561.714,2798.59C561.714,2787.63 543.779,2762.07 543.779,2762.07Z" style="fill:white;"/>
            </g>
            <g transform="matrix(3.19465,0,0,2.66507,-488.663,-5853.03)">
                <path d="M543.779,2762.07C543.779,2762.07 525.843,2786.95 525.843,2797.61C525.843,2807.49 533.88,2815.5 543.779,2815.5C553.678,2815.5 561.714,2807.49 561.714,2797.61C561.714,2786.95 543.779,2762.07 543.779,2762.07Z" style="fill:white;"/>
            </g>
            <g transform="matrix(3.19465,0,0,2.66507,-261.091,-5926.88)">
                <path d="M543.779,2762.07C543.779,2762.07 525.843,2786.95 525.843,2797.61C525.843,2807.49 533.88,2815.5 543.779,2815.5C553.678,2815.5 561.714,2807.49 561.714,2797.61C561.714,2786.95 543.779,2762.07 543.779,2762.07Z" style="fill:white;"/>
            </g>
            <g transform="matrix(2.85643,0,0,2.17116,-535.372,-4287.67)">
                <path d="M543.779,2762.07C543.779,2762.07 525.843,2785.73 525.843,2795.86C525.843,2806.7 533.88,2815.5 543.779,2815.5C553.678,2815.5 561.714,2806.7 561.714,2795.86C561.714,2785.73 543.779,2762.07 543.779,2762.07Z" style="fill:white;"/>
            </g>
            <g transform="matrix(3.19465,0,0,2.41812,-261.091,-5040.98)">
                <path d="M543.779,2762.07C543.779,2762.07 525.843,2785.67 525.843,2795.78C525.843,2806.67 533.88,2815.5 543.779,2815.5C553.678,2815.5 561.714,2806.67 561.714,2795.78C561.714,2785.67 543.779,2762.07 543.779,2762.07Z" style="fill:white;"/>
            </g>
            <g transform="matrix(3.19465,0,0,2.22772,-414.557,-4420.51)">
                <path d="M543.779,2762.07C543.779,2762.07 525.843,2784.49 525.843,2794.1C525.843,2805.91 533.88,2815.5 543.779,2815.5C553.678,2815.5 561.714,2805.91 561.714,2794.1C561.714,2784.49 543.779,2762.07 543.779,2762.07Z" style="fill:white;"/>
            </g>
            <g transform="matrix(3.19465,0,0,2.66507,-205.833,-5489.97)">
                <path d="M543.779,2762.07C543.779,2762.07 525.843,2786.95 525.843,2797.61C525.843,2807.49 533.88,2815.5 543.779,2815.5C553.678,2815.5 561.714,2807.49 561.714,2797.61C561.714,2786.95 543.779,2762.07 543.779,2762.07Z" style="fill:white;"/>
            </g>
            <g transform="matrix(3.19465,0,0,2.18463,-578.19,-4159.8)">
                <path d="M543.779,2762.07C543.779,2762.07 525.843,2784.19 525.843,2793.67C525.843,2805.72 533.88,2815.5 543.779,2815.5C553.678,2815.5 561.714,2805.72 561.714,2793.67C561.714,2784.19 543.779,2762.07 543.779,2762.07Z" style="fill:white;"/>
            </g>
        </g>
    </g>
</svg>
