<?xml version="1.0" encoding="UTF-8" standalone="no"?>
<!DOCTYPE svg PUBLIC "-//W3C//DTD SVG 1.1//EN" "http://www.w3.org/Graphics/SVG/1.1/DTD/svg11.dtd">
<svg width="100%" height="100%" viewBox="0 0 1709 1882" version="1.1" xmlns="http://www.w3.org/2000/svg" xmlns:xlink="http://www.w3.org/1999/xlink" xml:space="preserve" xmlns:serif="http://www.serif.com/" style="fill-rule:evenodd;clip-rule:evenodd;stroke-linecap:round;stroke-linejoin:round;stroke-miterlimit:1.5;">
    <g transform="matrix(1,0,0,1,0,-2313.8)">
        <g id="Artboard2" transform="matrix(0.855227,0,0,1.02758,132.753,1919.14)">
            <rect x="-155.225" y="384.073" width="1998.16" height="1830.61" style="fill:none;"/>
            <g transform="matrix(2.20883,0,-0.0858345,1.95877,-1081.09,-4229.54)">
                <rect x="992.126" y="2409.45" width="377.953" height="377.953" style="fill:rgb(163,54,148);stroke:rgb(163,54,148);stroke-width:0.52px;"/>
            </g>
            <g transform="matrix(2.18842,0,0.038296,1.82599,-1367.4,-3037.95)">
                <rect x="992.126" y="2409.45" width="377.953" height="377.953" style="fill:rgb(186,255,224);"/>
            </g>
            <g transform="matrix(1.97499,0,0.158911,1.92774,-2334.56,-3308.63)">
                <rect x="992.126" y="2409.45" width="377.953" height="377.953" style="fill:rgb(11,117,179);"/>
            </g>
            <g transform="matrix(0.648757,0,-0.0937112,0.60649,69.7673,933.307)">
                <path d="M177.189,912.151C201.442,908.645 223.268,907.66 242.715,907.017C250.342,906.764 257.567,906.585 264.415,906.428C272.093,906.251 279.271,906.093 286.003,906.069C331.761,905.902 356.166,913.445 356.166,913.445C363.035,916.418 370.649,914.177 373.16,908.444C375.671,902.711 372.133,895.644 365.264,892.671L303.213,875.823C291.374,874.15 277.779,872.829 262.598,872.989C250.471,873.116 237.35,874.216 223.346,876.369C206.127,879.016 187.816,883.481 167.887,889.37C161.039,890.847 157.563,897.15 160.131,903.437C162.698,909.723 170.341,913.628 177.189,912.151Z" style="fill:rgb(174,232,236);"/>
            </g>
            <g transform="matrix(0.648757,0,-0.0937112,0.60649,192.855,1224.72)">
                <path d="M183.476,908.542C191.673,900.532 201.077,895.51 210.732,891.916C221.191,888.021 232.326,886.787 243.535,886.649C249.21,886.579 254.906,886.902 260.579,887.371C269.593,888.116 278.531,889.367 287.185,891.087C317.442,897.101 344.063,907.706 354.899,912.83C361.47,916.382 369.411,914.886 372.621,909.493C375.831,904.1 373.102,896.838 366.531,893.286C354.943,886.19 326.373,869.997 292.384,860.406C281.808,857.421 270.707,855.201 259.536,854.149C252.024,853.441 244.476,853.34 237.048,853.857C227.673,854.51 218.418,855.98 209.654,858.793C191.166,864.727 174.307,875.262 161.6,892.979C157.472,897.801 159.022,905.203 165.059,909.498C171.096,913.793 179.349,913.364 183.476,908.542Z" style="fill:rgb(174,232,236);"/>
            </g>
            <g transform="matrix(0.491536,-0.04772,0.267988,0.786082,201.098,795.147)">
                <path d="M177.115,908.773C201.918,904.623 223.599,903.301 242.929,902.612C250.307,902.349 257.269,902.248 263.906,902.193C271.227,902.132 278.112,902.129 284.568,902.288C325.049,903.283 348.184,910.112 348.184,910.112C354.889,913.013 365.948,912.209 372.864,908.316C379.78,904.423 379.951,898.906 373.246,896.005L318.168,880.448C306.054,878.577 291.812,877.152 275.434,877.086C261.948,877.031 247.011,877.906 230.977,879.961C211.493,882.458 190.616,886.638 167.961,892.748C158.666,894.753 153.17,899.971 155.696,904.393C158.221,908.815 167.819,910.778 177.115,908.773Z" style="fill:rgb(174,232,236);"/>
            </g>
            <g transform="matrix(0.491536,-0.04772,0.267988,0.786082,239.406,1064.43)">
                <path d="M343.75,902.393C341.716,906.733 346.187,910.756 354.463,911.669C363.457,912.663 373.559,909.61 377.01,904.858C380.54,900.955 379.965,892.713 370.812,884.238C361.34,875.467 341.672,866.449 310.592,863.543C300.666,862.615 289.428,862.455 277.022,863.316C266.987,864.012 256.09,865.357 244.54,867.68C220.779,872.457 193.885,880.817 163.565,894.034C155.303,897.163 152.616,902.718 157.568,906.43C162.521,910.143 173.249,910.616 181.511,907.487C199.957,901.552 216.684,897.581 231.701,894.369C250.207,890.41 265.872,888.646 279.456,887.963C295.798,887.141 308.9,887.949 318.833,890.44C327.646,892.651 334.598,895.323 338.667,898.262C340.959,899.917 340.977,902.794 343.536,902.445L343.75,902.393Z" style="fill:rgb(174,232,236);"/>
            </g>
            <g transform="matrix(0.491536,-0.04772,0.267988,0.786082,-98.2556,1249.46)">
                <path d="M188.63,902.828C195.971,895.369 208.324,894.3 221.714,894.584C229.214,894.744 236.973,895.626 245.173,896.565C253.423,897.511 261.912,898.683 270.489,899.878C302.239,904.302 334.033,909.808 353.806,911.589C362.652,912.775 372.93,909.914 376.743,905.206C380.556,900.498 376.47,895.713 367.624,894.527C357.955,892.702 345.791,889.145 331.615,885.51C319.345,882.365 306.044,879.03 292.168,876.385C282.4,874.524 272.358,873.021 262.444,872.081C250.547,870.952 238.826,870.523 227.885,871.057C195.13,872.657 167.771,879.969 156.446,898.693C152.717,903.412 156.899,908.17 165.78,909.311C174.662,910.452 184.9,907.547 188.63,902.828Z" style="fill:rgb(174,232,236);"/>
            </g>
            <g transform="matrix(0.717284,-0.0353504,0.2199,1.27063,-115.077,459.971)">
                <path d="M367.402,898.225C368.037,897.768 364.588,897.139 361.782,896.157C351.383,892.519 328.34,885.691 292.453,883.217C284.55,882.672 275.995,882.394 266.848,882.489C258.737,882.573 250.143,882.941 241.142,883.704C219.332,885.552 195.164,889.388 168.565,895.705C162.369,896.964 159.12,900.253 161.312,903.043C163.505,905.833 170.316,907.076 176.511,905.816C192.424,903.157 207.183,901.527 220.909,900.328C231.331,899.418 241.076,898.949 250.248,898.598C264.678,898.045 277.575,898.106 289.066,898.603C315.072,899.729 333.739,902.921 343.989,905.338C348.189,906.329 351.074,907.053 352.395,907.44C353.765,907.843 354.661,908.088 355.059,908.169C361.2,909.413 365.516,908.03 367.204,907.454C370.344,906.384 374.353,904.412 372.126,901.033C371.311,899.795 369.597,898.83 367.402,898.225Z" style="fill:rgb(174,232,236);"/>
            </g>
            <g transform="matrix(0.717284,-0.0353504,0.2199,1.27063,147.36,731.599)">
                <path d="M361.345,897.513C362.282,895.988 352.414,895.702 344.416,894.066C330.911,891.304 312.252,887.629 290.113,885.494C277.697,884.297 264.188,883.621 250.153,883.811C238.96,883.962 227.434,884.682 215.835,886.075C199.618,888.024 183.339,891.167 167.431,895.966C161.494,897.506 158.962,900.905 161.781,903.551C164.599,906.197 171.708,907.095 177.645,905.555C189.315,902.998 200.916,901.546 212.278,900.542C224.422,899.468 236.214,899.299 247.63,899.375C259.561,899.454 271.005,899.966 281.756,900.695C302.307,902.09 320.306,904.198 333.366,905.959C343.727,907.356 351.383,908.376 355.449,908.578C359.153,908.762 361.924,908.62 363.732,908.288C370.09,907.267 373.9,904.094 372.234,901.208C370.889,898.876 366.38,897.44 361.345,897.513Z" style="fill:rgb(174,232,236);"/>
            </g>
            <g transform="matrix(0.567204,-0.0095095,0.0465396,0.7905,341.575,951.832)">
                <path d="M177.286,909.186C201.723,905.208 223.443,903.832 242.784,903.057C250.299,902.756 257.406,902.59 264.156,902.478C271.669,902.354 278.707,902.292 285.31,902.388C328.021,903.008 351.659,910.371 351.659,910.371C358.283,913.238 367.719,912.288 372.717,908.252C377.715,904.216 376.395,898.612 369.771,895.745L310.583,879.794C298.456,878.075 284.367,876.779 268.399,876.851C255.566,876.909 241.521,877.869 226.503,879.917C208.299,882.399 188.875,886.536 167.79,892.335C159.916,894.033 155.652,899.187 158.272,903.837C160.893,908.488 169.413,910.884 177.286,909.186Z" style="fill:rgb(174,232,236);"/>
            </g>
            <g transform="matrix(0.567204,-0.0095095,0.0465396,0.7905,372.401,1241.66)">
                <path d="M177.286,909.186C201.157,905.334 221.717,904.598 239.687,904.738C246.709,904.793 253.27,905.056 259.467,905.405C266.357,905.793 272.759,906.283 278.708,906.982C316.035,911.369 335.203,923.015 335.203,923.015C340.031,926.957 349.43,927.726 356.179,924.73C362.929,921.735 364.488,916.104 359.66,912.162L310.059,887.474C298.65,884.177 284.972,881.376 268.938,880.198C256.22,879.264 241.978,879.372 226.491,880.925C208.597,882.718 189.172,886.419 167.79,892.335C159.916,894.033 155.652,899.187 158.272,903.837C160.893,908.488 169.413,910.884 177.286,909.186Z" style="fill:rgb(174,232,236);"/>
            </g>
            <g transform="matrix(3.9916,-0.137186,0.0896772,1.69994,-5622.29,-1185.8)">
                <g transform="matrix(0.432181,5.48511e-18,4.0399e-18,1.16442,956.682,-1699.96)">
                    <rect x="992.126" y="2409.45" width="377.953" height="377.953" style="fill:rgb(169,72,73);"/>
                </g>
                <g transform="matrix(0.450752,-0.00581984,0.00740472,1.17204,910.734,-1718.79)">
                    <rect x="992.126" y="2409.45" width="377.953" height="377.953" style="fill:rgb(169,72,73);"/>
                    <path d="M1375.26,2409.42C1375.26,2407.28 1372.97,2405.56 1370.12,2405.56C1370.12,2405.56 1331.71,2405.76 1279.43,2404.36C1214.61,2402.63 1129.02,2396.4 1067.87,2395.84C1023.41,2395.43 992.259,2397.49 992.259,2397.49C988.017,2397.49 983.936,2398.77 980.924,2401.03C977.912,2403.3 976.217,2406.36 976.217,2409.55C976.217,2409.55 981.245,2469.46 984.058,2541.78C985.736,2584.91 987.379,2632.41 986.508,2674.05C986.168,2690.29 985.116,2705.59 983.768,2719.42C979.802,2760.12 974.598,2787.51 974.598,2787.51C974.598,2794.74 982.357,2800.57 991.98,2800.57C991.98,2800.57 1113.4,2795.04 1218.84,2792.85C1299.17,2791.18 1370.03,2791.7 1370.03,2791.7C1371.56,2791.7 1373.02,2791.24 1374.11,2790.43C1375.19,2789.62 1375.8,2788.51 1375.8,2787.37C1375.8,2787.37 1375.87,2772.87 1377.69,2749.56C1378.99,2733.04 1381.99,2712.37 1384.17,2689.05C1386.77,2661.07 1389.3,2629.77 1391.38,2598.29C1391.68,2593.75 1392.32,2589.21 1392.1,2584.68C1391.95,2581.62 1391.19,2578.65 1390.74,2575.62C1387.91,2556.83 1384.77,2538.72 1382.56,2521.24C1380.94,2508.48 1379.66,2496.36 1378.81,2484.98C1375.48,2440.59 1375.26,2409.42 1375.26,2409.42ZM1364.84,2413.33C1364.67,2422.96 1363.99,2449.86 1361.35,2485.09C1360.49,2496.48 1359.22,2508.61 1357.6,2521.4C1355.38,2538.9 1352.25,2557.05 1349.42,2575.88C1348.96,2578.92 1348.2,2581.89 1348.06,2584.96C1347.84,2589.49 1348.48,2594.02 1348.78,2598.56C1350.86,2630.01 1353.38,2661.28 1355.99,2689.22C1358.17,2712.52 1361.17,2733.15 1362.46,2749.65C1363.7,2765.46 1364.13,2777.21 1364.28,2783.13C1345.75,2783.22 1285.6,2783.34 1218.96,2781.95C1136.09,2780.23 1043.37,2776.44 1007.54,2774.9C1005.66,2763.11 1002.85,2743.59 1000.48,2719.32C999.136,2705.51 998.084,2690.22 997.744,2673.98C996.873,2632.35 998.516,2584.83 1000.19,2541.68C1002.23,2489.38 1005.42,2443.54 1007.03,2422.16C1020.36,2422.7 1041.7,2423.3 1067.57,2423.06C1128.73,2422.5 1214.46,2416.27 1279.31,2414.54C1320.26,2413.45 1352.68,2413.33 1364.84,2413.33L1364.84,2413.33Z" style="fill:rgb(168,73,73);"/>
                </g>
                <g transform="matrix(0.01784,-2.4758e-19,0,0.671418,1377.9,-76.6494)">
                    <path d="M2434,1866.59C2436.5,1896.56 2438.82,1915.71 2438.82,1915.71" style="fill:rgb(169,72,73);"/>
                    <path d="M2284.74,1866.64C2278.05,1870.8 2269.25,1874.71 2265.84,1878.44C2263.32,1881.19 2263.25,1883.82 2264.03,1886.3C2269.82,1904.77 2289.55,1915.78 2289.55,1915.78C2290.07,1920.06 2357.38,1923.5 2439.76,1923.46C2522.14,1923.42 2588.6,1919.92 2588.08,1915.64C2588.08,1915.64 2605.15,1904.62 2607.46,1886.17C2607.77,1883.68 2607.21,1881.06 2604.21,1878.31C2600.12,1874.58 2590.64,1870.69 2583.27,1866.53C2582.91,1862.26 2515.74,1858.81 2433.36,1858.84C2350.98,1858.87 2284.38,1862.36 2284.74,1866.64Z" style="fill:rgb(200,232,136);"/>
                </g>
                <g transform="matrix(0.0446271,-6.19326e-19,0,0.511695,1342.89,423.461)">
                    <path d="M2434,1866.59C2436.5,1896.56 2438.82,1915.71 2438.82,1915.71" style="fill:rgb(169,72,73);"/>
                    <path d="M2374.34,1866.76C2371.87,1870.94 2368.57,1874.83 2367.4,1878.58C2366.54,1881.33 2366.65,1883.96 2367.11,1886.46C2370.47,1904.96 2379.16,1915.95 2379.16,1915.95C2379.84,1921.56 2407.12,1926.01 2440.05,1925.88C2472.97,1925.75 2499.15,1921.09 2498.47,1915.48C2498.47,1915.48 2504.5,1904.47 2504.38,1886.02C2504.37,1883.53 2503.99,1880.91 2502.65,1878.17C2500.81,1874.43 2496.83,1870.58 2493.67,1866.42C2493.2,1860.81 2466.09,1856.33 2433.16,1856.42C2400.23,1856.51 2373.87,1861.15 2374.34,1866.76Z" style="fill:rgb(200,232,136);"/>
                </g>
                <g transform="matrix(0.01784,0,0,0.562059,1433.81,154.266)">
                    <path d="M2434,1866.59C2436.5,1896.56 2438.82,1915.71 2438.82,1915.71" style="fill:rgb(169,72,73);"/>
                    <path d="M2284.74,1866.66C2278.05,1870.83 2269.26,1874.72 2265.84,1878.46C2263.33,1881.21 2263.25,1883.84 2264.03,1886.33C2269.82,1904.81 2289.56,1915.81 2289.56,1915.81C2290.18,1920.92 2357.56,1925.02 2439.94,1924.97C2522.32,1924.92 2588.7,1920.73 2588.08,1915.62C2588.08,1915.62 2605.15,1904.61 2607.46,1886.15C2607.77,1883.66 2607.21,1881.03 2604.21,1878.29C2600.11,1874.55 2590.65,1870.68 2583.27,1866.52C2582.84,1861.41 2515.62,1857.29 2433.23,1857.33C2350.85,1857.37 2284.32,1861.55 2284.74,1866.66Z" style="fill:rgb(200,232,136);"/>
                </g>
                <g transform="matrix(0.230302,0.00881695,0,0.401949,937.045,685.582)">
                    <path d="M2434,1866.59C2436.5,1896.56 2438.82,1915.71 2438.82,1915.71" style="fill:rgb(169,72,73);"/>
                    <path d="M2422.49,1868.07C2422.29,1872.37 2421.94,1876.33 2421.98,1880.18C2422.02,1882.98 2422.24,1885.64 2422.52,1888.15C2424.6,1906.85 2427.36,1917.73 2427.36,1917.73C2428.21,1924.79 2434.04,1929.62 2440.37,1928.5C2446.69,1927.39 2451.13,1920.75 2450.28,1913.69C2450.28,1913.69 2450.39,1902.66 2448.98,1884.38C2448.78,1881.9 2448.52,1879.3 2448.06,1876.61C2447.44,1872.9 2446.4,1869.19 2445.52,1865.1C2444.93,1858 2439.29,1852.9 2432.93,1853.72C2426.58,1854.54 2421.9,1860.97 2422.49,1868.07Z" style="fill:rgb(200,232,136);"/>
                </g>
                <g transform="matrix(0.01784,-2.4758e-19,0,0.671418,1400.06,12.6633)">
                    <path d="M2434,1866.59C2436.5,1896.56 2438.82,1915.71 2438.82,1915.71" style="fill:rgb(169,72,73);"/>
                    <path d="M2284.74,1866.64C2278.05,1870.8 2269.25,1874.71 2265.84,1878.44C2263.32,1881.19 2263.25,1883.82 2264.03,1886.3C2269.82,1904.77 2289.55,1915.78 2289.55,1915.78C2290.07,1920.06 2357.38,1923.5 2439.76,1923.46C2522.14,1923.42 2588.6,1919.92 2588.08,1915.64C2588.08,1915.64 2605.15,1904.62 2607.46,1886.17C2607.77,1883.68 2607.21,1881.06 2604.21,1878.31C2600.12,1874.58 2590.64,1870.69 2583.27,1866.53C2582.91,1862.26 2515.74,1858.81 2433.36,1858.84C2350.98,1858.87 2284.38,1862.36 2284.74,1866.64Z" style="fill:rgb(200,232,136);"/>
                </g>
                <g transform="matrix(0.045728,-6.34603e-19,0,0.549853,1305.26,439.889)">
                    <path d="M2434,1866.59C2436.5,1896.56 2438.82,1915.71 2438.82,1915.71" style="fill:rgb(169,72,73);"/>
                    <path d="M2375.78,1866.74C2373.37,1870.92 2370.16,1874.81 2369.02,1878.56C2368.19,1881.31 2368.31,1883.94 2368.76,1886.43C2372.08,1904.93 2380.6,1915.92 2380.6,1915.92C2381.23,1921.15 2407.83,1925.29 2439.96,1925.17C2472.1,1925.06 2497.67,1920.72 2497.04,1915.5C2497.04,1915.5 2502.89,1904.49 2502.73,1886.04C2502.71,1883.56 2502.34,1880.93 2501.02,1878.19C2499.22,1874.46 2495.32,1870.59 2492.23,1866.43C2491.8,1861.21 2465.35,1857.04 2433.22,1857.12C2401.08,1857.21 2375.34,1861.52 2375.78,1866.74Z" style="fill:rgb(200,232,136);"/>
                </g>
                <g transform="matrix(0.01784,0,0,0.671418,1466.27,-88.2182)">
                    <path d="M2434,1866.59C2436.5,1896.56 2438.82,1915.71 2438.82,1915.71" style="fill:rgb(169,72,73);"/>
                    <path d="M2284.74,1866.64C2278.05,1870.8 2269.25,1874.71 2265.84,1878.44C2263.32,1881.19 2263.25,1883.82 2264.03,1886.3C2269.82,1904.77 2289.55,1915.78 2289.55,1915.78C2290.07,1920.06 2357.38,1923.5 2439.76,1923.46C2522.14,1923.42 2588.6,1919.92 2588.08,1915.64C2588.08,1915.64 2605.15,1904.62 2607.46,1886.17C2607.77,1883.68 2607.21,1881.06 2604.21,1878.31C2600.12,1874.58 2590.64,1870.69 2583.27,1866.53C2582.91,1862.26 2515.74,1858.81 2433.36,1858.84C2350.98,1858.87 2284.38,1862.36 2284.74,1866.64Z" style="fill:rgb(200,232,136);"/>
                </g>
                <g transform="matrix(0.138411,-1.92084e-18,0,0.548836,1159.98,268.718)">
                    <path d="M2434,1866.59C2436.5,1896.56 2438.82,1915.71 2438.82,1915.71" style="fill:rgb(169,72,73);"/>
                    <path d="M2414.78,1867C2414.22,1871.2 2413.39,1875.12 2413.24,1878.88C2413.13,1881.64 2413.33,1884.28 2413.64,1886.78C2415.91,1905.32 2419.61,1916.3 2419.61,1916.3C2420.24,1921.53 2429.36,1925.5 2439.96,1925.17C2450.56,1924.85 2458.66,1920.35 2458.02,1915.12C2458.02,1915.12 2459.07,1904.11 2457.85,1885.71C2457.69,1883.23 2457.41,1880.61 2456.81,1877.88C2455.99,1874.15 2454.48,1870.31 2453.23,1866.17C2452.79,1860.95 2443.83,1856.89 2433.22,1857.12C2422.61,1857.34 2414.35,1861.77 2414.78,1867Z" style="fill:rgb(200,232,136);"/>
                </g>
                <g transform="matrix(0.01784,0,0,0.671418,1368.28,83.6172)">
                    <path d="M2434,1866.59C2436.5,1896.56 2438.82,1915.71 2438.82,1915.71" style="fill:rgb(169,72,73);"/>
                    <path d="M2284.74,1866.64C2278.05,1870.8 2269.25,1874.71 2265.84,1878.44C2263.32,1881.19 2263.25,1883.82 2264.03,1886.3C2269.82,1904.77 2289.55,1915.78 2289.55,1915.78C2290.07,1920.06 2357.38,1923.5 2439.76,1923.46C2522.14,1923.42 2588.6,1919.92 2588.08,1915.64C2588.08,1915.64 2605.15,1904.62 2607.46,1886.17C2607.77,1883.68 2607.21,1881.06 2604.21,1878.31C2600.12,1874.58 2590.64,1870.69 2583.27,1866.53C2582.91,1862.26 2515.74,1858.81 2433.36,1858.84C2350.98,1858.87 2284.38,1862.36 2284.74,1866.64Z" style="fill:rgb(200,232,136);"/>
                </g>
                <g transform="matrix(-0.194622,5.40185e-18,0,0.282537,1990.27,845.131)">
                    <path d="M2434,1866.59C2436.5,1896.56 2438.82,1915.71 2438.82,1915.71" style="fill:rgb(169,72,73);"/>
                    <path d="M2447.6,1864.59C2448.59,1868.67 2449.74,1872.22 2450.42,1875.95C2450.91,1878.61 2451.18,1881.2 2451.36,1883.66C2452.71,1901.86 2452.32,1912.79 2452.32,1912.79C2453.54,1922.83 2448.47,1932.29 2441.02,1933.9C2433.57,1935.51 2426.53,1928.67 2425.31,1918.63C2425.31,1918.63 2422.3,1907.81 2420.13,1888.88C2419.84,1886.35 2419.62,1883.67 2419.63,1880.85C2419.63,1876.89 2420.1,1872.98 2420.41,1868.59C2419.57,1858.48 2424.98,1849.38 2432.48,1848.28C2439.99,1847.17 2446.76,1854.48 2447.6,1864.59Z" style="fill:rgb(200,232,136);"/>
                </g>
            </g>
            <g transform="matrix(-2.26496,-0.0287547,0.039993,-2.00055,3874.02,6092.81)">
                <path d="M1373.61,2409.45C1373.61,2408.57 1373.24,2407.72 1372.57,2407.1C1371.91,2406.47 1371.01,2406.12 1370.07,2406.12C1370.07,2406.12 1337.13,2406.03 1290.7,2404.38C1247.64,2402.85 1193.29,2399.07 1142.53,2397.12C1129.86,2396.64 1117.45,2396.01 1105.49,2396.09C1041.86,2396.53 992.113,2400.79 992.113,2400.79C987.042,2400.79 982.934,2404.66 982.934,2409.44C982.934,2409.44 984.351,2433.65 985.644,2469.91C986.56,2495.6 987.53,2527.28 988.05,2560.62C988.64,2598.45 988.645,2638.38 988.579,2674.01C988.461,2737.53 987.628,2787.4 987.628,2787.4C987.628,2788.52 988.103,2789.6 988.948,2790.4C989.793,2791.19 990.938,2791.64 992.132,2791.64C992.132,2791.64 1046,2792.46 1113.08,2794.38C1172.7,2796.09 1242.57,2799.52 1294.51,2800.66C1338.93,2801.63 1370.1,2801.36 1370.1,2801.36C1378.27,2801.36 1384.89,2795.12 1384.89,2787.42C1384.89,2787.42 1378.63,2634.26 1375.67,2522.84C1373.99,2459.33 1373.61,2409.45 1373.61,2409.45ZM1366.52,2412.8C1366.4,2424.98 1365.91,2469.01 1364.48,2522.83C1362.06,2614.02 1357.43,2733.16 1355.83,2773.41C1342.55,2773.43 1320.84,2773.57 1294.47,2774.15C1242.53,2775.29 1172.67,2778.72 1113.06,2780.42C1057.35,2782.02 1010.74,2782.85 996.557,2783.09C996.356,2769.69 995.77,2726.51 995.673,2674.02C995.607,2638.39 995.612,2598.45 996.202,2560.64C996.722,2527.29 997.692,2495.61 998.608,2469.93C999.423,2447.08 1000.29,2429.01 1000.81,2418.78C1017.74,2419.99 1057.72,2422.48 1105.53,2422.81C1117.49,2422.89 1129.9,2422.26 1142.57,2421.78C1193.33,2419.83 1247.66,2416.04 1290.72,2414.52C1328.14,2413.19 1356.82,2412.87 1366.52,2412.8L1366.52,2412.8Z" style="fill:rgb(179,0,176);"/>
            </g>
            <g transform="matrix(-1.98615,0.0556008,-0.153588,-1.9412,3154.86,6688.82)">
                <path d="M1394.99,2408.77C1394.99,2397.34 1384.32,2388.27 1370.88,2388.27C1370.88,2388.27 1332.82,2393.25 1279.81,2397.76C1260.99,2399.36 1240.52,2400.72 1219.19,2401.75C1189.17,2403.19 1157.86,2404.01 1128.38,2404.51C1054.44,2405.77 992.294,2405 992.294,2405C990.879,2405 989.506,2405.49 988.489,2406.36C987.471,2407.22 986.897,2408.39 986.897,2409.59L986.687,2787.55C986.687,2790.05 989.017,2792.03 991.951,2792.03L1369.76,2795.81C1372.44,2795.81 1375.04,2794.89 1376.96,2793.25C1378.89,2791.62 1379.97,2789.41 1379.97,2787.13C1379.97,2787.13 1382.24,2692.6 1385.99,2597.99C1389.75,2503.3 1394.99,2408.77 1394.99,2408.77ZM1346.13,2427.83C1347.81,2459.51 1351.39,2529.12 1354.17,2598.86C1357.25,2676.32 1359.32,2753.78 1359.97,2779.1C1359.97,2779.1 1042.49,2782.28 997.562,2782.72C997.562,2782.72 997.357,2413.84 997.357,2413.84C1013.99,2413.69 1067.03,2413.35 1128,2414.39C1157.45,2414.89 1188.69,2415.71 1218.61,2417.15C1239.86,2418.18 1260.22,2419.54 1278.93,2421.14C1306.54,2423.5 1330.02,2425.99 1346.13,2427.83L1346.13,2427.83Z" style="fill:rgb(0,116,179);"/>
            </g>
            <g transform="matrix(1.26192,0,0,1.11833,-263.401,130.44)">
                <path d="M918.504,1096.32C914.056,1096.39 909.824,1098.13 906.739,1101.14C903.655,1104.14 901.971,1108.18 902.059,1112.36C902.059,1112.36 907.581,1420.39 905.841,1597.31C905.139,1668.7 902.508,1718.62 902.508,1718.62C902.823,1733.52 915.768,1745.43 931.629,1745.43C931.629,1745.43 1126.63,1766.26 1297.43,1776.59C1331.59,1778.66 1364.69,1779.77 1394.97,1780.09C1479.38,1781 1541.29,1777.99 1541.29,1777.99C1575.53,1777.99 1603.66,1752.62 1605.04,1720.5L1604.44,1102.35C1604.85,1092.88 1601.08,1083.68 1594.03,1076.9C1586.97,1070.13 1577.25,1066.38 1567.17,1066.56L918.504,1096.32ZM918.808,1112.05L1567.83,1100.96L1541.29,1718.08L931.629,1718.08L918.808,1112.05Z" style="fill:rgb(195,228,211);"/>
            </g>
            <g transform="matrix(0.848633,0,0,0.656181,806.843,464.003)">
                <path d="M528.828,813.409C528.828,813.409 536.915,807.215 548.305,796.989C553.882,791.982 560.123,785.866 566.794,779.326C572.087,774.137 577.616,768.668 583.061,762.962C593.334,752.197 602.983,740.585 612.32,731.026C614.936,728.347 617.452,725.747 620.068,723.587C634.715,711.492 646.118,705.199 646.118,705.199C651.476,700.256 652.097,691.56 647.505,685.793C642.912,680.025 634.833,679.356 629.475,684.3C629.475,684.3 621.954,695.466 608.609,709.196C606.225,711.649 603.453,713.927 600.594,716.3C590.389,724.77 578.253,733.257 566.797,742.538C560.726,747.457 554.859,752.501 549.285,757.338C542.26,763.434 535.69,769.137 530.241,774.303C519.11,784.855 512.185,792.51 512.185,792.51C506.827,797.453 506.206,806.149 510.798,811.916C515.391,817.684 523.47,818.353 528.828,813.409Z" style="fill:rgb(255,229,190);"/>
            </g>
            <g transform="matrix(0.848633,0,0,0.656181,1126.76,148.36)">
                <path d="M528.502,810.222C528.502,810.222 535.311,802.757 544.802,790.925C549.451,785.129 554.624,778.187 560.152,770.765C564.538,764.878 569.118,758.68 573.609,752.295C582.07,740.266 589.965,727.583 597.666,716.853C599.829,713.84 601.904,710.923 604.097,708.371C616.316,694.15 626.109,685.735 626.109,685.735C629.833,680.986 629.274,673.876 624.861,669.867C620.449,665.859 613.843,666.46 610.119,671.21C610.119,671.21 604.058,683.015 593.087,698.369C591.118,701.125 588.796,703.818 586.4,706.618C577.867,716.593 567.578,727.102 557.983,738.1C552.89,743.939 547.984,749.841 543.329,755.483C537.461,762.597 531.972,769.252 527.446,775.158C518.205,787.217 512.512,795.697 512.512,795.697C508.788,800.446 509.347,807.557 513.759,811.565C518.172,815.574 524.778,814.972 528.502,810.222Z" style="fill:rgb(255,229,190);"/>
            </g>
            <g transform="matrix(0.848633,0,0,0.656181,676.822,624.338)">
                <path d="M528.913,810.596C528.913,810.596 535.176,800.714 545.695,787.474C557.236,772.947 574.615,755.327 589.158,737.431C596.292,728.652 602.751,719.864 608.323,712.21C619.332,697.088 626.52,686.109 626.52,686.109C630.435,681.115 629.848,673.639 625.208,669.425C620.569,665.21 613.623,665.843 609.708,670.836C609.708,670.836 600.86,680.308 588.861,694.53C582.788,701.73 575.825,710.059 568.984,719.104C555.037,737.542 541.821,758.943 530.457,773.63C520.098,787.017 512.101,795.323 512.101,795.323C508.185,800.317 508.773,807.793 513.412,812.008C518.052,816.222 524.997,815.59 528.913,810.596Z" style="fill:rgb(255,229,190);"/>
            </g>
            <g transform="matrix(0.848633,0,0,0.656181,996.74,647.49)">
                <path d="M527.684,810.861C527.684,810.861 535.457,801.953 547.381,790.213C553.743,783.949 561.653,777.444 569.327,769.925C572.348,766.966 575.388,763.923 578.234,760.681C588.358,749.148 596.731,736.125 605.235,726.907C616.659,714.525 625.984,707.417 625.984,707.417C630.035,703.153 630.109,696.151 626.148,691.79C622.186,687.429 615.681,687.349 611.629,691.613C611.629,691.613 604.816,701.487 593.058,713.5C584.304,722.443 572.019,731.16 561.079,741.794C558.003,744.784 555.108,747.986 552.292,751.169C545.135,759.258 538.914,767.623 532.952,774.328C521.779,786.895 513.33,795.058 513.33,795.058C509.278,799.322 509.204,806.324 513.166,810.685C517.127,815.046 523.632,815.125 527.684,810.861Z" style="fill:rgb(255,229,190);"/>
            </g>
            <g transform="matrix(0.848633,0,0,0.656181,897.204,105.973)">
                <path d="M530.278,811.836C530.278,811.836 537.206,804.491 546.73,792.677C551.393,786.893 556.531,779.919 562.022,772.463C566.379,766.546 570.922,760.318 575.346,753.872C583.694,741.708 591.295,728.825 598.918,717.99C601.054,714.954 603.104,712.011 605.321,709.482C617.74,695.313 627.885,687.349 627.885,687.349C632.437,681.544 631.754,672.854 626.361,667.955C620.968,663.056 612.894,663.791 608.342,669.596C608.342,669.596 602.754,681.699 591.864,697.258C589.92,700.035 587.57,702.705 585.148,705.481C576.506,715.391 565.984,725.62 556.247,736.523C551.088,742.3 546.147,748.167 541.46,753.785C535.554,760.864 530.031,767.487 525.517,773.407C516.298,785.498 510.735,794.083 510.735,794.083C506.183,799.888 506.867,808.578 512.26,813.478C517.653,818.377 525.727,817.641 530.278,811.836Z" style="fill:rgb(255,229,190);"/>
            </g>
            <g transform="matrix(0.848633,0,0,0.656181,548.443,105.973)">
                <path d="M530.278,811.836C530.278,811.836 537.206,804.491 546.73,792.677C551.393,786.893 556.531,779.919 562.022,772.463C566.379,766.546 570.922,760.318 575.346,753.872C583.694,741.708 591.295,728.825 598.918,717.99C601.054,714.954 603.104,712.011 605.321,709.482C617.74,695.313 627.885,687.349 627.885,687.349C632.437,681.544 631.754,672.854 626.361,667.955C620.968,663.056 612.894,663.791 608.342,669.596C608.342,669.596 602.754,681.699 591.864,697.258C589.92,700.035 587.57,702.705 585.148,705.481C576.506,715.391 565.984,725.62 556.247,736.523C551.088,742.3 546.147,748.167 541.46,753.785C535.554,760.864 530.031,767.487 525.517,773.407C516.298,785.498 510.735,794.083 510.735,794.083C506.183,799.888 506.867,808.578 512.26,813.478C517.653,818.377 525.727,817.641 530.278,811.836Z" style="fill:rgb(255,229,190);"/>
            </g>
            <g transform="matrix(0.848633,0,0,0.656181,555.334,382.304)">
                <path d="M528.382,812.163C528.382,812.163 534.342,802.962 545.278,790.791C547.533,788.282 550.168,785.842 552.934,783.291C562.387,774.57 574.359,765.796 585.233,755.247C588.317,752.255 591.148,748.974 594,745.757C600.999,737.861 607.28,729.682 613.644,722.662C616.156,719.892 618.587,717.221 621.108,714.938C635.841,701.599 647.356,694.214 647.356,694.214C652.075,689.536 652.377,681.614 648.031,676.535C643.685,671.455 636.325,671.13 631.606,675.808C631.606,675.808 623.823,687.554 610.264,702.264C607.943,704.782 605.27,707.17 602.499,709.637C595.477,715.888 587.388,721.954 579.503,728.815C576.29,731.61 573.019,734.378 569.996,737.441C559.337,748.24 550.231,760.362 541.38,769.788C538.79,772.545 536.315,775.172 533.807,777.385C521.64,788.118 512.632,793.756 512.632,793.756C507.913,798.435 507.61,806.357 511.957,811.436C516.303,816.515 523.663,816.841 528.382,812.163Z" style="fill:rgb(255,229,190);"/>
            </g>
            <g transform="matrix(0.848633,0,0,0.656181,755.929,273.325)">
                <path d="M642.775,774.243C642.775,774.243 634.336,768.433 621.252,760.612C614.842,756.78 607.252,752.612 599.137,748.157C592.701,744.624 585.932,740.942 579.01,737.392C565.972,730.706 552.443,724.742 540.778,718.614C537.502,716.893 534.335,715.246 531.48,713.403C515.582,703.145 505.594,694.338 505.594,694.338C500.516,691.38 494.162,693.416 491.414,698.882C488.666,704.348 490.558,711.187 495.636,714.145C495.636,714.145 507.949,718.328 524.623,727.041C527.618,728.607 530.631,730.559 533.762,732.57C544.908,739.729 556.947,748.658 569.279,756.749C575.826,761.045 582.392,765.129 588.66,768.996C596.564,773.872 603.957,778.432 610.443,782.112C623.683,789.624 632.817,794.05 632.817,794.05C637.895,797.008 644.249,794.972 646.997,789.506C649.745,784.04 647.854,777.201 642.775,774.243Z" style="fill:rgb(255,229,190);"/>
            </g>
            <g transform="matrix(0.848633,0,0,0.656181,1013.44,342.666)">
                <path d="M633.031,771.375C633.031,771.375 623.757,774.348 610.265,779.949C603.659,782.691 596.121,786.242 588.064,790.04C581.67,793.054 574.978,796.249 568.297,799.695C555.688,806.199 543.429,813.715 532.033,819.415C528.84,821.012 525.763,822.57 522.718,823.679C505.656,829.893 493.284,831.783 493.284,831.783C486.736,834.614 483.554,842.635 486.184,849.684C488.814,856.733 496.266,860.157 502.815,857.326C502.815,857.326 512.964,849.481 529.28,841.267C532.192,839.801 535.415,838.636 538.747,837.412C550.641,833.045 564.324,829.346 577.611,824.657C584.65,822.172 591.536,819.497 598.091,816.914C606.351,813.659 614.076,810.612 620.609,807.675C633.953,801.675 642.562,796.918 642.562,796.918C649.11,794.087 652.292,786.066 649.662,779.017C647.032,771.969 639.58,768.544 633.031,771.375Z" style="fill:rgb(255,229,190);"/>
            </g>
            <g transform="matrix(0.848633,0,0,0.656181,806.843,464.003)">
                <path d="M643.029,771.589C643.029,771.589 635.17,766.742 622.902,760.584C616.898,757.57 609.772,754.428 602.154,751.071C596.107,748.406 589.755,745.647 583.246,743.072C570.951,738.209 558.252,734.332 547.255,729.81C544.178,728.545 541.198,727.338 538.531,725.84C523.551,717.426 514.443,709.514 514.443,709.514C508.004,706.406 500.431,709.509 497.544,716.44C494.656,723.371 497.539,731.522 503.978,734.63C503.978,734.63 515.525,736.689 531.325,743.134C534.138,744.282 536.957,745.874 539.882,747.507C550.333,753.339 561.469,760.968 573.019,767.616C579.135,771.136 585.273,774.406 591.144,777.495C598.54,781.386 605.458,785.024 611.543,787.846C623.975,793.611 632.564,796.705 632.564,796.705C639.003,799.813 646.575,796.71 649.463,789.779C652.351,782.848 649.468,774.697 643.029,771.589Z" style="fill:rgb(255,229,190);"/>
            </g>
            <g transform="matrix(0.848633,0,0,0.656181,1126.76,148.36)">
                <path d="M641.909,773.792C641.909,773.792 633.604,769.115 620.792,763.029C614.516,760.047 607.108,756.88 599.186,753.495C592.903,750.811 586.299,748.021 579.557,745.38C566.852,740.402 553.745,736.203 542.369,731.606C539.176,730.316 536.09,729.085 533.286,727.623C517.656,719.475 507.732,712.05 507.732,712.05C502.423,709.607 496.27,712.263 494,717.978C491.73,723.692 494.198,730.315 499.507,732.758C499.507,732.758 511.351,735.35 527.623,741.882C530.542,743.054 533.501,744.604 536.574,746.197C547.521,751.872 559.398,759.17 571.52,765.617C577.952,769.038 584.389,772.249 590.533,775.283C598.28,779.107 605.526,782.684 611.864,785.507C624.805,791.27 633.684,794.501 633.684,794.501C638.993,796.944 645.146,794.288 647.416,788.573C649.686,782.858 647.218,776.235 641.909,773.792Z" style="fill:rgb(255,229,190);"/>
            </g>
            <g transform="matrix(0.848633,0,0,0.656181,676.822,624.338)">
                <path d="M643.067,773.754C643.067,773.754 631.325,768.246 614.996,758.522C597.085,747.856 574.353,731.159 552.194,717.659C541.318,711.033 530.627,705.156 521.328,700.094C502.972,690.102 489.855,683.726 489.855,683.726C484.527,680.595 477.839,682.71 474.93,688.445C472.021,694.181 473.985,701.379 479.314,704.511C479.314,704.511 491.39,712.938 509.126,724.154C518.11,729.835 528.485,736.336 539.545,742.6C562.078,755.362 587.42,766.913 605.441,777.361C621.871,786.887 632.526,794.539 632.526,794.539C637.854,797.67 644.542,795.555 647.451,789.82C650.36,784.084 648.396,776.886 643.067,773.754Z" style="fill:rgb(255,229,190);"/>
            </g>
            <g transform="matrix(0.848633,0,0,0.656181,996.74,647.49)">
                <path d="M486.057,731.64C486.057,731.64 498.439,736.338 515.625,744.259C524.785,748.48 534.992,754.214 546.007,759.32C550.346,761.332 554.773,763.332 559.29,765.06C575.327,771.197 591.95,775.019 604.978,780.345C622.496,787.508 633.994,794.47 633.994,794.47C639.265,796.709 645.232,793.92 647.312,788.247C649.392,782.574 646.801,776.15 641.53,773.911C641.53,773.911 628.714,770.547 611.372,762.904C598.475,757.221 583.906,747.795 568.297,740.491C563.9,738.433 559.398,736.641 554.951,734.921C543.665,730.556 532.57,727.242 523.2,723.594C505.62,716.749 493.593,711.081 493.593,711.081C488.322,708.842 482.355,711.631 480.275,717.304C478.195,722.977 480.786,729.401 486.057,731.64Z" style="fill:rgb(255,229,190);"/>
            </g>
            <g transform="matrix(0.848633,0,0,0.656181,897.204,105.973)">
                <path d="M485.651,738.843C485.651,738.843 495.139,741.307 509.54,743.789C516.591,745.005 524.836,746.027 533.65,747.117C540.644,747.983 547.982,748.854 555.431,749.502C569.486,750.725 583.715,750.884 596.334,752.143C599.87,752.496 603.286,752.819 606.464,753.513C624.263,757.402 635.948,762.483 635.948,762.483C642.931,763.581 649.428,758.37 650.449,750.854C651.469,743.338 646.628,736.344 639.645,735.246C639.645,735.246 627.098,736.516 609.01,734.759C605.781,734.446 602.421,733.703 598.94,732.952C586.513,730.273 572.837,726.042 559.044,722.885C551.735,721.212 544.472,719.787 537.54,718.462C528.804,716.792 520.633,715.232 513.554,714.225C499.094,712.168 489.348,711.606 489.348,711.606C482.365,710.508 475.868,715.719 474.847,723.235C473.827,730.751 478.668,737.745 485.651,738.843Z" style="fill:rgb(255,229,190);"/>
            </g>
            <g transform="matrix(0.848633,0,0,0.656181,548.443,105.973)">
                <path d="M643.923,772.066C643.923,772.066 634.541,765.458 619.933,756.63C612.778,752.305 604.29,747.627 595.215,742.628C588.015,738.662 580.446,734.533 572.693,730.568C558.082,723.095 542.906,716.524 529.84,709.662C526.173,707.737 522.626,705.895 519.446,703.806C501.701,692.155 490.711,682.038 490.711,682.038C484.517,678.398 476.743,680.856 473.361,687.524C469.98,694.191 472.263,702.559 478.458,706.199C478.458,706.199 492.306,710.677 511.008,720.442C514.36,722.192 517.718,724.407 521.206,726.685C533.634,734.805 546.977,744.992 560.719,754.179C568.01,759.053 575.33,763.674 582.323,768.047C591.138,773.56 599.384,778.715 606.632,782.855C621.432,791.306 631.67,796.227 631.67,796.227C637.864,799.867 645.638,797.409 649.02,790.741C652.401,784.074 650.117,775.706 643.923,772.066Z" style="fill:rgb(255,229,190);"/>
            </g>
            <g transform="matrix(0.848633,0,0,0.656181,555.334,382.304)">
                <path d="M643.78,773.42C643.78,773.42 635.305,770.762 623.389,764.205C620.946,762.861 618.486,761.122 615.913,759.297C607.107,753.046 597.946,744.206 587.286,737.383C576.842,730.697 565.318,726.216 555.706,720.762C553.014,719.236 550.395,717.794 548.085,716.116C534.523,706.26 526.491,697.613 526.491,697.613C520.99,694.059 513.844,695.979 510.541,701.899C507.238,707.819 509.023,715.512 514.523,719.067C514.523,719.067 525.388,722.635 539.844,730.887C542.307,732.293 544.72,734.104 547.237,735.944C556.227,742.513 565.318,751.355 575.709,758.136C586.314,765.058 597.869,769.606 607.134,775.035C609.84,776.621 612.422,778.142 614.672,779.83C625.65,788.07 631.812,794.873 631.812,794.873C637.313,798.428 644.459,796.508 647.762,790.587C651.065,784.667 649.28,776.975 643.78,773.42Z" style="fill:rgb(255,229,190);"/>
            </g>
            <g transform="matrix(0.848633,-6.1686e-15,-5.45222e-15,0.656181,739.225,266.939)">
                <path d="M581.975,686.648C581.975,686.648 581.176,695.119 580.91,707.841C580.78,714.069 580.928,721.308 581.088,729.046C581.215,735.187 581.376,741.626 581.718,748.135C582.362,760.419 583.826,772.733 584.283,783.78C584.411,786.875 584.548,789.863 584.379,792.686C583.432,808.504 580.907,819.158 580.907,819.158C580.857,825.373 585.504,830.462 591.278,830.516C597.051,830.57 601.78,825.568 601.83,819.353C601.83,819.353 599.477,808.653 598.785,792.821C598.662,789.995 598.847,787.01 599.025,783.918C599.659,772.881 601.322,760.596 602.164,748.325C602.61,741.824 602.875,735.389 603.101,729.251C603.385,721.517 603.65,714.283 603.621,708.053C603.56,695.328 602.898,686.843 602.898,686.843C602.948,680.628 598.301,675.539 592.527,675.485C586.753,675.431 582.025,680.433 581.975,686.648Z" style="fill:rgb(255,229,190);"/>
            </g>
            <g transform="matrix(0.848633,0,0,0.656181,1013.44,342.666)">
                <path d="M556.507,733.263C556.507,733.263 555.527,742.605 555.195,756.653C555.033,763.528 555.211,771.518 555.403,780.059C555.555,786.84 555.749,793.946 556.163,801.132C556.945,814.709 558.727,828.273 559.28,840.485C559.435,843.9 559.601,847.201 559.393,850.316C558.226,867.834 555.137,879.525 555.137,879.525C555.066,887.121 560.737,893.35 567.794,893.426C574.851,893.503 580.638,887.398 580.709,879.803C580.709,879.803 577.84,868.047 577.001,850.507C576.852,847.388 577.079,844.092 577.298,840.68C578.08,828.483 580.116,814.961 581.152,801.403C581.701,794.228 582.027,787.128 582.307,780.351C582.658,771.816 582.986,763.831 582.952,756.954C582.884,742.902 582.079,733.54 582.079,733.54C582.15,725.945 576.479,719.716 569.422,719.639C562.365,719.562 556.578,725.667 556.507,733.263Z" style="fill:rgb(255,229,190);"/>
            </g>
            <g transform="matrix(0.848633,0,0,0.656181,806.843,464.003)">
                <path d="M584.603,657.635C584.603,657.635 581.425,672.631 579.016,689.883C575.862,712.471 573.818,738.76 573.818,738.76C573.818,738.76 573.553,768.969 569.953,794.848C569.419,798.694 568.472,802.338 567.64,805.822C564.152,820.425 560.853,831.207 560.853,831.207C559.825,838.722 564.659,845.721 571.64,846.828C578.622,847.935 585.125,842.732 586.154,835.217C586.154,835.217 585.883,823.87 586.454,808.804C586.591,805.21 586.66,801.428 587.178,797.579C590.664,771.681 598.501,742.673 598.501,742.673C598.501,742.673 603.585,716.866 606.616,694.258C608.93,676.991 609.903,661.646 609.903,661.646C610.932,654.131 606.098,647.131 599.116,646.024C592.135,644.917 585.631,650.12 584.603,657.635Z" style="fill:rgb(255,229,190);"/>
            </g>
            <g transform="matrix(0.848633,0,0,0.656181,1126.76,148.36)">
                <path d="M558.849,672.554C558.849,672.554 558.208,682.886 558.179,698.358C558.164,705.937 558.447,714.739 558.751,724.149C558.992,731.614 559.273,739.446 559.736,747.357C560.607,762.262 562.303,777.262 562.964,790.664C563.149,794.428 563.342,798.058 563.225,801.497C562.575,820.66 560.247,833.773 560.247,833.773C560.301,839.988 565.032,844.987 570.806,844.929C576.579,844.871 581.223,839.778 581.169,833.563C581.169,833.563 578.614,820.499 577.632,801.352C577.455,797.916 577.585,794.283 577.705,790.516C578.134,777.103 579.569,762.071 580.182,747.152C580.507,739.233 580.652,731.396 580.764,723.928C580.904,714.513 581.035,705.707 580.889,698.13C580.592,682.661 579.772,672.344 579.772,672.344C579.718,666.129 574.986,661.13 569.213,661.188C563.439,661.246 558.795,666.339 558.849,672.554Z" style="fill:rgb(255,229,190);"/>
            </g>
            <g transform="matrix(0.848633,0,0,0.656181,676.822,624.338)">
                <path d="M534.223,682.461C534.223,682.461 538.708,692.33 543.614,707.428C548.998,723.997 553.761,747.031 560.225,767.728C563.394,777.876 566.922,787.436 570.022,795.716C576.149,812.081 581.011,823.244 581.011,823.244C583.056,829.396 589.357,832.605 595.073,830.404C600.79,828.203 603.77,821.42 601.725,815.268C601.725,815.268 598.907,803.318 594,786.483C591.517,777.965 588.611,768.166 585.081,758.157C577.882,737.744 567.991,716.684 562.389,700.199C557.285,685.177 554.937,674.485 554.937,674.485C552.892,668.332 546.591,665.124 540.875,667.325C535.159,669.526 532.178,676.308 534.223,682.461Z" style="fill:rgb(255,229,190);"/>
            </g>
            <g transform="matrix(0.848633,0,0,0.656181,996.74,647.49)">
                <path d="M578.637,846.548C578.637,846.548 577.794,832.512 577.819,812.486C577.833,801.811 578.727,789.514 578.769,776.667C578.785,771.605 578.757,766.463 578.462,761.337C577.413,743.138 574.157,725.269 573.597,710.351C572.845,690.292 574.283,676.245 574.283,676.245C574.127,670.148 569.401,665.334 563.737,665.502C558.073,665.67 553.601,670.756 553.757,676.853C553.757,676.853 555.911,690.794 556.184,710.867C556.388,725.795 554.049,743.83 553.932,762.064C553.899,767.2 554.134,772.336 554.409,777.388C555.108,790.214 556.629,802.44 557.188,813.097C558.236,833.092 558.112,847.156 558.112,847.156C558.268,853.253 562.993,858.066 568.657,857.898C574.321,857.731 578.793,852.645 578.637,846.548Z" style="fill:rgb(255,229,190);"/>
            </g>
            <g transform="matrix(0.848633,0,0,0.656181,897.204,105.973)">
                <path d="M549.984,668.735C549.984,668.735 550.405,678.931 552.167,694.065C553.03,701.473 554.394,710.026 555.855,719.168C557.014,726.424 558.263,734.026 559.741,741.676C562.532,756.118 566.318,770.427 568.679,783.438C569.341,787.082 569.996,790.599 570.254,793.978C571.701,812.923 570.391,826.03 570.391,826.03C571.367,833.553 577.834,838.808 584.823,837.757C591.812,836.707 596.694,829.746 595.718,822.223C595.718,822.223 591.123,810.004 587.693,791.357C587.081,788.031 586.816,784.456 586.525,780.756C585.484,767.546 585.483,752.668 584.492,737.956C583.967,730.162 583.233,722.483 582.501,715.163C581.579,705.94 580.715,697.312 579.659,689.933C577.502,674.858 575.312,664.928 575.312,664.928C574.336,657.405 567.869,652.15 560.88,653.201C553.89,654.251 549.008,661.212 549.984,668.735Z" style="fill:rgb(255,229,190);"/>
            </g>
            <g transform="matrix(0.848633,0,0,0.656181,548.443,105.973)">
                <path d="M532.54,683.108C532.54,683.108 534.692,692.435 538.998,706.03C541.105,712.683 543.898,720.28 546.886,728.4C549.257,734.847 551.774,741.589 554.524,748.326C559.719,761.052 565.852,773.403 570.384,784.905C571.652,788.123 572.892,791.226 573.721,794.291C578.38,811.513 579.329,823.891 579.329,823.891C581.706,831.044 589.03,834.773 595.675,832.215C602.32,829.656 605.785,821.772 603.408,814.62C603.408,814.62 596.847,804.402 590.3,787.907C589.135,784.972 588.265,781.726 587.349,778.372C584.075,766.387 581.538,752.651 578.055,739.266C576.211,732.18 574.184,725.249 572.219,718.646C569.743,710.329 567.426,702.549 565.134,695.966C560.452,682.516 556.619,673.837 556.619,673.837C554.242,666.685 546.918,662.955 540.273,665.514C533.628,668.072 530.163,675.956 532.54,683.108Z" style="fill:rgb(255,229,190);"/>
            </g>
            <g transform="matrix(0.848633,0,0,0.656181,555.334,382.304)">
                <path d="M555.751,645.27C555.751,645.27 559.495,655.985 562.733,672.903C563.401,676.393 563.802,680.187 564.216,684.165C565.632,697.757 565.677,713.668 567.702,729.601C568.277,734.12 569.216,738.578 570.094,743.017C572.249,753.91 575.027,764.322 576.864,774.134C577.589,778.008 578.283,781.75 578.627,785.351C580.636,806.383 579.869,821.083 579.869,821.083C580.806,827.915 586.72,832.642 593.066,831.633C599.413,830.625 603.805,824.259 602.868,817.428C602.868,817.428 598.186,803.593 594.463,782.834C593.825,779.28 593.485,775.481 593.139,771.548C592.262,761.583 592.126,750.751 591.264,739.653C590.913,735.13 590.615,730.57 589.951,726.065C587.613,710.182 583.384,694.936 581.089,681.484C580.417,677.547 579.782,673.789 579.485,670.241C578.042,653.037 578.75,641.614 578.75,641.614C577.812,634.783 571.899,630.056 565.552,631.064C559.205,632.073 554.814,638.438 555.751,645.27Z" style="fill:rgb(255,229,190);"/>
            </g>
            <g transform="matrix(0.848633,0,0,0.656181,1013.44,342.666)">
                <path d="M515.798,815.756C515.798,815.756 521.693,819.302 531.008,823.504C535.559,825.558 540.981,827.576 546.776,829.733C551.384,831.447 556.213,833.204 561.179,834.764C570.606,837.726 580.262,839.639 588.691,842.456C591.035,843.24 593.311,843.983 595.323,845.046C606.796,851.108 613.371,857.351 613.371,857.351C619.932,860.148 627.369,856.685 629.968,849.622C632.566,842.56 629.349,834.556 622.788,831.758C622.788,831.758 614.025,831.462 601.807,827.425C599.664,826.717 597.532,825.581 595.325,824.425C587.39,820.266 579.136,814.544 570.382,809.755C565.769,807.232 561.132,804.954 556.684,802.807C551.088,800.108 545.853,797.583 541.229,795.725C531.767,791.923 525.215,790.163 525.215,790.163C518.654,787.366 511.217,790.829 508.619,797.892C506.02,804.954 509.237,812.959 515.798,815.756Z" style="fill:rgb(255,229,190);"/>
            </g>
            <g transform="matrix(2.98673,0,0,2.60877,-552.274,-5740.79)">
                <path d="M543.779,2762.07C543.779,2762.07 525.843,2787.51 525.843,2798.41C525.843,2807.85 533.88,2815.5 543.779,2815.5C553.678,2815.5 561.714,2807.85 561.714,2798.41C561.714,2787.51 543.779,2762.07 543.779,2762.07Z" style="fill:white;"/>
            </g>
            <g transform="matrix(3.36645,0,0,2.78014,-544.819,-6195.87)">
                <path d="M543.779,2762.07C543.779,2762.07 525.843,2786.82 525.843,2797.43C525.843,2807.4 533.88,2815.5 543.779,2815.5C553.678,2815.5 561.714,2807.4 561.714,2797.43C561.714,2786.82 543.779,2762.07 543.779,2762.07Z" style="fill:white;"/>
            </g>
            <g transform="matrix(3.36645,0,0,2.78014,-305.009,-6272.91)">
                <path d="M543.779,2762.07C543.779,2762.07 525.843,2786.82 525.843,2797.43C525.843,2807.4 533.88,2815.5 543.779,2815.5C553.678,2815.5 561.714,2807.4 561.714,2797.43C561.714,2786.82 543.779,2762.07 543.779,2762.07Z" style="fill:white;"/>
            </g>
            <g transform="matrix(3.01004,0,0,2.2649,-594.04,-4562.93)">
                <path d="M543.779,2762.07C543.779,2762.07 525.843,2785.59 525.843,2795.66C525.843,2806.61 533.88,2815.5 543.779,2815.5C553.678,2815.5 561.714,2806.61 561.714,2795.66C561.714,2785.59 543.779,2762.07 543.779,2762.07Z" style="fill:white;"/>
            </g>
            <g transform="matrix(3.36645,0,0,2.52252,-305.009,-5348.77)">
                <path d="M543.779,2762.07C543.779,2762.07 525.843,2785.53 525.843,2795.58C525.843,2806.58 533.88,2815.5 543.779,2815.5C553.678,2815.5 561.714,2806.58 561.714,2795.58C561.714,2785.53 543.779,2762.07 543.779,2762.07Z" style="fill:white;"/>
            </g>
            <g transform="matrix(3.36645,0,0,2.3239,-466.728,-4701.5)">
                <path d="M543.779,2762.07C543.779,2762.07 525.843,2784.34 525.843,2793.88C525.843,2805.81 533.88,2815.5 543.779,2815.5C553.678,2815.5 561.714,2805.81 561.714,2793.88C561.714,2784.34 543.779,2762.07 543.779,2762.07Z" style="fill:white;"/>
            </g>
            <g transform="matrix(3.36645,0,0,2.78014,-246.78,-5817.13)">
                <path d="M543.779,2762.07C543.779,2762.07 525.843,2786.82 525.843,2797.43C525.843,2807.4 533.88,2815.5 543.779,2815.5C553.678,2815.5 561.714,2807.4 561.714,2797.43C561.714,2786.82 543.779,2762.07 543.779,2762.07Z" style="fill:white;"/>
            </g>
            <g transform="matrix(3.36645,0,0,2.27895,-639.161,-4429.53)">
                <path d="M543.779,2762.07C543.779,2762.07 525.843,2784.04 525.843,2793.45C525.843,2805.62 533.88,2815.5 543.779,2815.5C553.678,2815.5 561.714,2805.62 561.714,2793.45C561.714,2784.04 543.779,2762.07 543.779,2762.07Z" style="fill:white;"/>
            </g>
        </g>
    </g>
</svg>
