<?xml version="1.0" encoding="UTF-8" standalone="no"?>
<!DOCTYPE svg PUBLIC "-//W3C//DTD SVG 1.1//EN" "http://www.w3.org/Graphics/SVG/1.1/DTD/svg11.dtd">
<svg width="100%" height="100%" viewBox="0 0 1709 1882" version="1.1" xmlns="http://www.w3.org/2000/svg" xmlns:xlink="http://www.w3.org/1999/xlink" xml:space="preserve" xmlns:serif="http://www.serif.com/" style="fill-rule:evenodd;clip-rule:evenodd;stroke-linejoin:round;stroke-miterlimit:2;">
    <g transform="matrix(1,0,0,1,-1.42109e-13,-1597.15)">
        <g id="Artboard2" transform="matrix(0.855227,0,0,1.02758,132.753,1202.49)">
            <rect x="-155.225" y="384.073" width="1998.16" height="1830.61" style="fill:none;"/>
            <g transform="matrix(0.730206,0,-0.105476,0.716835,-15.9205,813.298)">
                <path d="M176.723,910.372C200.959,906.612 222.805,905.307 242.257,904.53C249.913,904.225 257.168,904.016 264.047,903.858C271.765,903.68 278.989,903.558 285.762,903.577C331.794,903.704 356.387,911.752 356.387,911.752C362.424,914.365 369.265,912.59 371.654,907.792C374.042,902.994 371.08,896.977 365.043,894.364L303.534,878.192C291.734,876.608 278.18,875.39 263.035,875.556C250.934,875.689 237.828,876.729 223.824,878.772C206.633,881.279 188.285,885.504 168.353,891.149C162.285,892.458 159.234,897.827 161.544,903.132C163.854,908.436 170.655,911.68 176.723,910.372Z" style="fill:rgb(174,232,236);"/>
            </g>
            <g transform="matrix(0.730206,0,-0.105476,0.716835,122.621,1157.73)">
                <path d="M182.368,907.163C199.32,889.811 220.999,884.443 242.895,884.133C248.674,884.051 254.469,884.319 260.248,884.799C269.393,885.558 278.469,886.891 287.249,888.695C317.644,894.941 344.378,905.961 355.25,911.201C361,914.308 368.116,913.182 371.132,908.688C374.148,904.195 371.929,898.023 366.18,894.916C354.651,887.969 326.222,872.152 292.479,862.836C281.915,859.92 270.827,857.738 259.669,856.703C252.159,856.007 244.613,855.896 237.183,856.395C227.841,857.023 218.62,858.486 209.877,861.247C191.78,866.961 175.259,877.202 162.708,894.358C159.142,898.524 160.651,904.776 166.076,908.31C171.501,911.844 178.801,911.33 182.368,907.163Z" style="fill:rgb(174,232,236);"/>
            </g>
            <g transform="matrix(0.553247,-0.0564022,0.301633,0.929102,131.899,650.001)">
                <path d="M177.101,907.494C197.466,904.003 215.793,902.416 232.487,901.318C245.441,900.466 257.212,900.265 268.061,900.249C281.017,900.229 292.578,900.475 302.643,901.279C332.622,903.674 349.526,908.907 349.526,908.907C355.408,911.452 365.197,910.898 371.372,907.67C377.548,904.442 377.786,899.755 371.904,897.21L317.05,882.2C304.933,880.409 290.698,879.061 274.369,879.009C260.96,878.967 246.127,879.808 230.202,881.778C210.985,884.155 190.34,888.158 167.975,894.027C159.827,895.785 155.256,900.229 157.775,903.945C160.293,907.661 168.952,909.251 177.101,907.494Z" style="fill:rgb(174,232,236);"/>
            </g>
            <g transform="matrix(0.553247,-0.0564022,0.301633,0.929102,175.016,968.281)">
                <path d="M345.82,902.12C343.695,905.93 347.807,909.542 355.424,910.347C363.436,911.194 372.313,908.615 375.233,904.593C378.459,900.966 377.742,893.456 369.322,885.694C360.013,877.111 340.575,868.203 309.79,865.422C299.859,864.525 288.62,864.377 276.202,865.246C266.232,865.944 255.409,867.286 243.927,869.561C220.53,874.199 194.01,882.331 164.109,895.156C156.961,897.863 154.935,902.572 159.587,905.666C164.238,908.759 173.818,909.073 180.966,906.365C199.378,900.317 216.138,896.145 231.179,892.838C250.113,888.676 266.16,886.786 280.046,886.048C312.183,884.34 332.142,890.712 340.74,897.332C343.312,899.311 343.081,902.238 345.78,902.126L345.82,902.12Z" style="fill:rgb(174,232,236);"/>
            </g>
            <g transform="matrix(0.553247,-0.0564022,0.301633,0.929102,-205.038,1186.98)">
                <path d="M186.892,902.511C194.62,894.535 207.461,892.656 221.711,892.793C229.364,892.867 237.325,893.673 245.701,894.601C254.064,895.528 262.664,896.715 271.34,897.954C303.115,902.49 334.924,908.343 354.685,910.258C362.537,911.311 371.614,908.939 374.942,904.965C378.27,900.991 374.597,896.91 366.745,895.858C356.948,894.097 344.52,890.637 330.141,887.074C317.746,884.003 304.3,880.742 290.343,878.148C280.502,876.319 270.413,874.833 260.475,873.895C248.538,872.769 236.796,872.346 225.874,872.883C195.053,874.397 169.141,881.294 158.184,899.01C155.026,903.005 158.894,907.034 166.817,908C174.739,908.966 183.734,906.507 186.892,902.511Z" style="fill:rgb(174,232,236);"/>
            </g>
            <g transform="matrix(0.807337,-0.041782,0.247507,1.50181,-223.971,253.844)">
                <path d="M366.713,899.007C367.345,898.576 363.911,897.95 361.133,896.996C350.782,893.445 327.796,886.758 292.082,884.398C284.184,883.876 275.638,883.611 266.502,883.706C258.41,883.791 249.838,884.151 240.858,884.887C219.204,886.662 195.176,890.365 168.742,896.516C163.298,897.624 160.579,900.424 162.673,902.766C164.768,905.109 170.889,906.112 176.334,905.004C196.622,901.483 215.112,899.585 231.883,898.379C245.235,897.419 257.419,897.099 268.592,897.073C284.028,897.038 297.467,897.616 308.863,898.754C326.25,900.49 338.924,903.037 346.298,904.877C349.806,905.753 352.203,906.391 353.301,906.72C354.716,907.144 355.674,907.368 356.074,907.44C360.299,908.201 363.425,907.571 364.975,907.217C368.572,906.396 373.053,904.739 370.878,901.438C370.177,900.374 368.664,899.538 366.713,899.007Z" style="fill:rgb(174,232,236);"/>
            </g>
            <g transform="matrix(0.807337,-0.041782,0.247507,1.50181,71.4142,574.892)">
                <path d="M360.997,898.369C361.911,896.905 351.937,896.617 343.859,895.009C330.345,892.319 311.66,888.746 289.554,886.667C277.146,885.5 263.661,884.833 249.653,885.009C238.515,885.148 227.044,885.838 215.499,887.186C199.513,889.052 183.439,892.098 167.726,896.751C162.532,898.098 160.471,900.989 163.127,903.202C165.783,905.415 172.157,906.117 177.35,904.77C189.029,902.151 200.665,900.59 212.054,899.525C224.306,898.379 236.226,898.127 247.745,898.179C259.791,898.233 271.339,898.754 282.178,899.511C302.793,900.953 320.831,903.185 333.91,905.014C344.164,906.448 351.755,907.503 355.786,907.721C359.298,907.912 361.928,907.769 363.643,907.46C369.248,906.56 372.487,903.856 370.871,901.427C369.564,899.462 365.478,898.274 360.997,898.369Z" style="fill:rgb(174,232,236);"/>
            </g>
            <g transform="matrix(0.638415,-0.0112397,0.0523825,0.934324,290.012,835.193)">
                <path d="M176.998,907.847C201.479,903.676 223.308,902.036 242.707,901.157C250.29,900.814 257.462,900.622 264.271,900.509C271.86,900.383 278.967,900.351 285.632,900.481C328.681,901.321 352.452,909.139 352.452,909.139C358.244,911.645 366.649,910.955 371.209,907.6C375.769,904.244 374.77,899.484 368.978,896.978L310.394,881.611C298.299,879.964 284.245,878.742 268.326,878.819C255.534,878.881 241.534,879.798 226.549,881.758C208.449,884.125 189.075,888.082 168.078,893.674C161.129,895.173 157.486,899.565 159.948,903.476C162.409,907.387 170.049,909.346 176.998,907.847Z" style="fill:rgb(174,232,236);"/>
            </g>
            <g transform="matrix(0.638415,-0.0112397,0.0523825,0.934324,324.708,1177.75)">
                <path d="M176.998,907.847C196.623,904.577 214.062,903.424 229.691,902.938C242.129,902.552 253.246,902.962 263.356,903.664C275.574,904.513 286.249,905.788 295.383,907.684C322.412,913.294 336.405,922.03 336.405,922.03C340.566,925.426 348.884,926.194 354.969,923.743C361.055,921.292 362.619,916.544 358.458,913.148L309.966,889.358C298.63,886.128 285.032,883.382 269.09,882.193C256.4,881.247 242.183,881.303 226.695,882.755C208.868,884.427 189.443,887.958 168.078,893.674C161.129,895.173 157.486,899.565 159.948,903.476C162.409,907.387 170.049,909.346 176.998,907.847Z" style="fill:rgb(174,232,236);"/>
            </g>
            <g transform="matrix(0.972057,0,0,0.803141,668.794,369.669)">
                <path d="M528.046,811.252C528.046,811.252 536.084,804.901 547.457,794.647C553.028,789.624 559.284,783.551 565.972,777.057C571.276,771.906 576.823,766.478 582.297,760.854C592.611,750.256 602.406,738.937 611.769,729.506C614.398,726.858 616.924,724.292 619.53,722.101C634.056,709.89 645.336,703.042 645.336,703.042C649.879,698.85 650.19,691.731 646.028,687.155C641.867,682.578 634.8,682.265 630.257,686.457C630.257,686.457 622.496,697.176 609.147,710.682C606.752,713.105 603.993,715.415 601.144,717.821C590.997,726.389 578.945,735.226 567.561,744.647C561.519,749.647 555.666,754.737 550.107,759.608C543.099,765.75 536.544,771.495 531.089,776.645C519.952,787.158 512.967,794.667 512.967,794.667C508.424,798.859 508.113,805.978 512.275,810.554C516.436,815.131 523.503,815.444 528.046,811.252Z" style="fill:rgb(255,229,190);"/>
            </g>
            <g transform="matrix(0.972057,0,0,0.803141,1035.24,-16.6664)">
                <path d="M527.674,808.662C527.674,808.662 534.43,801.083 543.904,789.231C548.546,783.424 553.735,776.513 559.282,769.123C563.68,763.264 568.278,757.097 572.801,750.77C581.311,738.865 589.348,726.39 597.083,715.753C599.258,712.762 601.345,709.871 603.528,707.296C615.645,692.998 625.281,684.175 625.281,684.175C628.406,680.19 627.731,674.4 623.775,671.253C619.819,668.106 614.071,668.786 610.946,672.77C610.946,672.77 604.658,684.258 593.657,699.444C591.676,702.179 589.368,704.894 586.983,707.718C578.503,717.761 568.318,728.528 558.792,739.625C553.73,745.522 548.84,751.457 544.2,757.125C538.349,764.272 532.877,770.957 528.344,776.852C519.094,788.882 513.339,797.257 513.339,797.257C510.215,801.242 510.89,807.032 514.846,810.179C518.802,813.327 524.55,812.647 527.674,808.662Z" style="fill:rgb(255,229,190);"/>
            </g>
            <g transform="matrix(0.972057,0,0,0.803141,519.863,565.914)">
                <path d="M528.043,808.955C528.043,808.955 534.4,799.237 544.907,785.987C556.43,771.454 573.612,753.404 588.114,735.462C595.233,726.655 601.717,717.917 607.316,710.311C618.367,695.297 625.65,684.468 625.65,684.468C628.935,680.279 628.225,674.191 624.066,670.882C619.907,667.572 613.863,668.287 610.578,672.477C610.578,672.477 601.807,682.122 589.869,696.43C583.82,703.678 576.884,712.057 570.028,721.073C556.061,739.44 542.61,760.459 531.245,775.117C520.883,788.483 512.971,796.964 512.971,796.964C509.686,801.154 510.395,807.242 514.555,810.551C518.714,813.86 524.758,813.145 528.043,808.955Z" style="fill:rgb(255,229,190);"/>
            </g>
            <g transform="matrix(0.972057,0,0,0.803141,886.31,594.25)">
                <path d="M526.981,809.203C526.981,809.203 534.786,800.375 546.675,788.546C553.011,782.242 560.852,775.528 568.494,767.957C571.505,764.974 574.536,761.915 577.395,758.698C587.539,747.282 596.141,734.67 604.64,725.5C616.069,713.168 625.281,705.758 625.281,705.758C628.702,702.158 628.578,696.438 625.004,692.993C621.431,689.547 615.752,689.672 612.332,693.272C612.332,693.272 605.385,702.866 593.654,714.907C584.931,723.86 572.798,733.069 561.919,743.776C558.853,746.793 555.952,749.977 553.125,753.138C545.95,761.159 539.633,769.344 533.658,775.995C522.446,788.477 514.032,796.716 514.032,796.716C510.611,800.316 510.735,806.036 514.309,809.482C517.882,812.927 523.561,812.802 526.981,809.203Z" style="fill:rgb(255,229,190);"/>
            </g>
            <g transform="matrix(0.972057,0,0,0.803141,772.298,-68.546)">
                <path d="M529.267,809.929C529.267,809.929 536.129,802.444 545.633,790.607C550.288,784.809 555.445,777.873 560.957,770.456C565.33,764.574 569.895,758.383 574.357,752.009C582.765,739.999 590.543,727.364 598.205,716.646C600.357,713.637 602.421,710.726 604.624,708.169C616.909,693.917 626.874,685.442 626.874,685.442C630.693,680.572 629.868,673.495 625.033,669.648C620.198,665.802 613.172,666.633 609.354,671.503C609.354,671.503 603.478,683.231 592.56,698.571C590.602,701.323 588.268,704.02 585.861,706.825C577.286,716.817 566.886,727.366 557.236,738.387C552.114,744.236 547.192,750.144 542.524,755.791C536.639,762.911 531.136,769.572 526.615,775.477C517.385,787.531 511.746,795.99 511.746,795.99C507.928,800.86 508.753,807.937 513.588,811.784C518.423,815.63 525.448,814.799 529.267,809.929Z" style="fill:rgb(255,229,190);"/>
            </g>
            <g transform="matrix(0.972057,0,0,0.803141,372.813,-68.546)">
                <path d="M529.267,809.929C529.267,809.929 536.129,802.444 545.633,790.607C550.288,784.809 555.445,777.873 560.957,770.456C565.33,764.574 569.895,758.383 574.357,752.009C582.765,739.999 590.543,727.364 598.205,716.646C600.357,713.637 602.421,710.726 604.624,708.169C616.909,693.917 626.874,685.442 626.874,685.442C630.693,680.572 629.868,673.495 625.033,669.648C620.198,665.802 613.172,666.633 609.354,671.503C609.354,671.503 603.478,683.231 592.56,698.571C590.602,701.323 588.268,704.02 585.861,706.825C577.286,716.817 566.886,727.366 557.236,738.387C552.114,744.236 547.192,750.144 542.524,755.791C536.639,762.911 531.136,769.572 526.615,775.477C517.385,787.531 511.746,795.99 511.746,795.99C507.928,800.86 508.753,807.937 513.588,811.784C518.423,815.63 525.448,814.799 529.267,809.929Z" style="fill:rgb(255,229,190);"/>
            </g>
            <g transform="matrix(0.972057,0,0,0.803141,380.706,269.673)">
                <path d="M527.625,810.245C527.625,810.245 533.773,801.372 544.727,789.395C546.995,786.915 549.621,784.458 552.379,781.884C561.794,773.099 573.65,763.954 584.501,753.392C587.58,750.395 590.434,747.165 593.304,743.992C600.335,736.216 606.724,728.233 613.109,721.305C615.634,718.566 618.075,715.925 620.587,713.617C635.217,700.18 646.599,692.297 646.599,692.297C650.591,688.339 650.643,681.862 646.714,677.841C642.785,673.819 636.354,673.768 632.362,677.725C632.362,677.725 624.356,689.063 610.785,703.584C608.454,706.078 605.794,708.495 603.034,710.994C596.056,717.314 588.03,723.622 580.199,730.58C577.004,733.419 573.753,736.242 570.728,739.296C560.071,750.056 550.805,761.852 541.935,771.194C539.336,773.931 536.855,776.537 534.358,778.781C522.294,789.623 513.388,795.674 513.388,795.674C509.396,799.631 509.345,806.109 513.274,810.13C517.203,814.151 523.633,814.203 527.625,810.245Z" style="fill:rgb(255,229,190);"/>
            </g>
            <g transform="matrix(0.972057,0,0,0.803141,610.475,136.286)">
                <path d="M642.368,776.182C642.368,776.182 633.897,770.505 620.81,762.717C614.397,758.9 606.815,754.694 598.708,750.197C592.281,746.633 585.52,742.911 578.612,739.287C565.614,732.469 552.123,726.203 540.491,719.98C537.22,718.23 534.061,716.554 531.199,714.738C515.311,704.656 505.187,696.277 505.187,696.277C500.823,693.735 495.232,695.24 492.708,699.636C490.185,704.031 491.679,709.664 496.043,712.206C496.043,712.206 508.303,716.865 524.903,725.706C527.893,727.299 530.911,729.221 534.049,731.204C545.205,738.255 557.326,746.907 569.676,754.854C576.239,759.077 582.815,763.123 589.088,766.956C597.001,771.791 604.402,776.312 610.885,780.007C624.114,787.547 633.224,792.111 633.224,792.111C637.588,794.653 643.18,793.148 645.703,788.752C648.226,784.356 646.732,778.724 642.368,776.182Z" style="fill:rgb(255,229,190);"/>
            </g>
            <g transform="matrix(0.972057,0,0,0.803141,905.442,221.157)">
                <path d="M633.394,773.813C633.394,773.813 624.139,776.959 610.659,782.595C604.056,785.356 596.511,788.859 588.446,792.605C582.048,795.577 575.347,798.723 568.652,802.078C556.034,808.4 543.686,815.569 532.288,821.133C529.089,822.694 526.009,824.215 522.968,825.358C506.001,831.736 493.647,834.221 493.647,834.221C487.986,836.669 485.362,843.286 487.791,848.989C490.221,854.692 496.79,857.335 502.452,854.888C502.452,854.888 512.751,847.58 529.03,839.588C531.948,838.156 535.164,836.954 538.492,835.694C550.348,831.206 564.013,827.13 577.256,822.274C584.282,819.697 591.162,816.972 597.709,814.349C605.962,811.042 613.68,807.947 620.215,805.028C633.558,799.07 642.199,794.48 642.199,794.48C647.86,792.033 650.484,785.415 648.055,779.712C645.625,774.009 639.056,771.366 633.394,773.813Z" style="fill:rgb(255,229,190);"/>
            </g>
            <g transform="matrix(0.972057,0,0,0.803141,668.794,369.669)">
                <path d="M642.621,774.006C642.621,774.006 634.727,769.325 622.459,763.208C616.452,760.212 609.334,757.023 601.725,753.614C595.687,750.91 589.342,748.1 582.847,745.435C570.6,740.408 557.924,736.153 546.968,731.514C543.895,730.213 540.923,728.97 538.25,727.505C523.307,719.317 514.035,711.932 514.035,711.932C508.479,709.25 501.806,711.616 499.144,717.213C496.481,722.809 498.83,729.531 504.386,732.213C504.386,732.213 515.909,734.867 531.606,741.469C534.414,742.651 537.238,744.206 540.17,745.803C550.623,751.5 561.856,758.787 573.418,765.254C579.549,768.683 585.699,771.905 591.573,774.951C598.978,778.791 605.905,782.381 611.986,785.222C624.404,791.022 632.972,794.287 632.972,794.287C638.528,796.969 645.2,794.603 647.863,789.006C650.526,783.41 648.177,776.688 642.621,774.006Z" style="fill:rgb(255,229,190);"/>
            </g>
            <g transform="matrix(0.972057,0,0,0.803141,1035.24,-16.6664)">
                <path d="M641.591,775.778C641.591,775.778 633.26,771.238 620.447,765.184C614.17,762.218 606.767,759.012 598.852,755.585C592.576,752.867 585.977,750.036 579.247,747.32C566.577,742.207 553.492,737.701 542.145,733.006C538.956,731.686 535.876,730.425 533.068,728.991C517.458,721.019 507.414,714.036 507.414,714.036C502.829,711.926 497.406,713.963 495.312,718.581C493.217,723.2 495.239,728.663 499.824,730.773C499.824,730.773 511.64,733.848 527.842,740.515C530.756,741.714 533.719,743.234 536.798,744.798C547.75,750.364 559.697,757.376 571.83,763.676C578.274,767.022 584.719,770.194 590.867,773.193C598.621,776.976 605.873,780.513 612.209,783.351C625.14,789.144 634.001,792.515 634.001,792.515C638.586,794.625 644.009,792.588 646.104,787.969C648.199,783.351 646.177,777.888 641.591,775.778Z" style="fill:rgb(255,229,190);"/>
            </g>
            <g transform="matrix(0.972057,0,0,0.803141,519.863,565.914)">
                <path d="M642.635,775.791C642.635,775.791 630.933,770.07 614.604,760.368C596.698,749.729 573.84,733.524 551.676,720.103C540.792,713.513 530.115,707.574 520.828,702.452C502.507,692.345 489.423,685.763 489.423,685.763C484.845,683.073 478.96,684.633 476.29,689.244C473.619,693.856 475.168,699.784 479.746,702.474C479.746,702.474 491.874,710.707 509.626,721.796C518.623,727.418 529.011,733.857 540.063,740.156C562.57,752.984 587.825,765.051 605.832,775.515C622.254,785.057 632.958,792.502 632.958,792.502C637.536,795.192 643.421,793.632 646.091,789.021C648.762,784.409 647.213,778.481 642.635,775.791Z" style="fill:rgb(255,229,190);"/>
            </g>
            <g transform="matrix(0.972057,0,0,0.803141,886.31,594.25)">
                <path d="M486.343,729.679C486.343,729.679 498.71,734.47 515.912,742.288C525.074,746.452 535.329,751.962 546.346,756.994C550.69,758.978 555.118,760.958 559.632,762.718C575.633,768.958 592.216,773.329 605.221,778.683C622.722,785.887 634.28,792.51 634.28,792.51C638.838,794.446 644.099,792.29 646.021,787.699C647.943,783.107 645.803,777.807 641.244,775.871C641.244,775.871 628.468,772.16 611.129,764.567C598.245,758.925 583.561,750.017 567.955,742.833C563.553,740.807 559.055,738.995 554.612,737.247C543.343,732.814 532.268,729.264 522.912,725.564C505.346,718.616 493.307,713.041 493.307,713.041C488.749,711.105 483.488,713.261 481.566,717.852C479.644,722.444 481.785,727.744 486.343,729.679Z" style="fill:rgb(255,229,190);"/>
            </g>
            <g transform="matrix(0.972057,0,0,0.803141,772.298,-68.546)">
                <path d="M485.777,736.335C485.777,736.335 495.281,738.625 509.678,741.067C516.729,742.263 524.971,743.334 533.783,744.478C540.773,745.386 548.111,746.308 555.554,747.051C569.583,748.45 583.829,748.987 596.424,750.376C599.958,750.765 603.371,751.127 606.551,751.786C624.294,755.466 636.074,759.974 636.074,759.974C642.162,760.932 647.875,756.731 648.826,750.599C649.776,744.467 645.606,738.712 639.519,737.754C639.519,737.754 626.935,738.431 608.923,736.486C605.694,736.138 602.335,735.434 598.85,734.72C586.435,732.174 572.705,728.312 558.92,725.336C551.606,723.758 544.338,722.383 537.406,721.101C528.668,719.484 520.494,717.974 513.416,716.948C498.965,714.852 489.222,714.115 489.222,714.115C483.134,713.157 477.421,717.358 476.47,723.49C475.52,729.622 479.69,735.378 485.777,736.335Z" style="fill:rgb(255,229,190);"/>
            </g>
            <g transform="matrix(0.972057,0,0,0.803141,372.813,-68.546)">
                <path d="M643.421,774.434C643.421,774.434 633.998,767.987 619.388,759.199C612.229,754.893 603.751,750.169 594.686,745.119C587.498,741.114 579.937,736.936 572.203,732.882C557.642,725.249 542.511,718.307 529.486,711.33C525.825,709.37 522.288,707.492 519.1,705.436C501.371,694.004 490.209,684.405 490.209,684.405C484.887,681.278 478.047,683.092 474.942,688.452C471.838,693.813 473.638,700.704 478.96,703.831C478.96,703.831 492.748,708.894 511.354,718.812C514.7,720.596 518.064,722.773 521.56,725.017C534,733.005 547.446,742.855 561.209,751.865C568.52,756.651 575.852,761.224 582.851,765.556C591.677,771.019 599.933,776.128 607.177,780.285C621.963,788.77 632.172,793.859 632.172,793.859C637.493,796.987 644.334,795.173 647.439,789.812C650.543,784.452 648.743,777.561 643.421,774.434Z" style="fill:rgb(255,229,190);"/>
            </g>
            <g transform="matrix(0.972057,0,0,0.803141,380.706,269.673)">
                <path d="M643.277,775.543C643.277,775.543 634.842,772.442 623.022,765.751C620.586,764.372 618.122,762.657 615.544,760.854C606.73,754.693 597.34,746.414 586.799,739.436C583.809,737.457 580.649,735.753 577.534,734.018C569.888,729.76 562.177,726.171 555.349,722.265C552.655,720.723 550.055,719.23 547.738,717.577C534.196,707.92 525.987,699.736 525.987,699.736C521.273,696.69 514.99,698.071 511.965,702.82C508.941,707.568 510.312,713.897 515.026,716.944C515.026,716.944 525.833,721.051 540.191,729.426C542.648,730.859 545.08,732.617 547.593,734.441C553.964,739.066 560.416,744.63 567.445,749.857C570.309,751.986 573.164,754.17 576.196,756.083C586.886,762.826 598.27,767.975 607.503,773.478C610.204,775.088 612.779,776.629 615.039,778.284C626.002,786.319 632.316,792.75 632.316,792.75C637.03,795.797 643.313,794.415 646.338,789.667C649.362,784.918 647.991,778.59 643.277,775.543Z" style="fill:rgb(255,229,190);"/>
            </g>
            <g transform="matrix(0.972057,-7.55014e-15,-6.24518e-15,0.803141,591.342,128.47)">
                <path d="M583.303,686.671C583.303,686.671 582.597,695.152 582.352,707.866C582.232,714.094 582.354,721.332 582.486,729.07C582.59,735.208 582.724,741.649 583.016,748.157C583.565,760.418 584.832,772.772 585.219,783.796C585.327,786.892 585.444,789.878 585.293,792.702C584.454,808.439 582.235,819.181 582.235,819.181C582.194,824.259 586.254,828.414 591.294,828.456C596.335,828.497 600.461,824.408 600.501,819.33C600.501,819.33 598.456,808.553 597.871,792.805C597.765,789.979 597.93,786.995 598.089,783.901C598.653,772.885 600.119,760.554 600.866,748.303C601.262,741.8 601.5,735.362 601.703,729.227C601.96,721.492 602.199,714.257 602.179,708.028C602.139,695.312 601.569,686.82 601.569,686.82C601.61,681.742 597.551,677.587 592.51,677.545C587.47,677.504 583.344,681.593 583.303,686.671Z" style="fill:rgb(255,229,190);"/>
            </g>
            <g transform="matrix(0.972057,0,0,0.803141,905.442,221.157)">
                <path d="M558.131,733.295C558.131,733.295 557.263,742.651 556.958,756.688C556.808,763.563 556.953,771.552 557.111,780.094C557.236,786.87 557.396,793.979 557.749,801.163C558.414,814.71 559.957,828.328 560.424,840.508C560.555,843.924 560.696,847.222 560.511,850.338C559.476,867.747 556.76,879.558 556.76,879.558C556.702,885.763 561.657,890.849 567.818,890.908C573.978,890.967 579.027,885.976 579.086,879.77C579.086,879.77 576.592,867.91 575.883,850.484C575.756,847.365 575.959,844.071 576.154,840.657C576.85,828.488 578.647,814.902 579.566,801.371C580.053,794.194 580.347,787.09 580.599,780.317C580.916,771.78 581.211,763.794 581.19,756.918C581.147,742.878 580.456,733.508 580.456,733.508C580.514,727.302 575.559,722.216 569.398,722.157C563.238,722.099 558.189,727.09 558.131,733.295Z" style="fill:rgb(255,229,190);"/>
            </g>
            <g transform="matrix(0.972057,0,0,0.803141,668.794,369.669)">
                <path d="M586.195,658.105C586.195,658.105 583.154,673.15 580.752,690.396C577.607,712.978 575.371,739.218 575.371,739.218C575.371,739.218 574.623,769.331 571.037,795.168C570.504,799.007 569.612,802.675 568.824,806.171C565.532,820.769 562.445,831.677 562.445,831.677C561.604,837.825 565.876,843.504 571.979,844.351C578.083,845.199 583.721,840.895 584.562,834.747C584.562,834.747 584.52,823.405 585.271,808.455C585.451,804.874 585.577,801.1 586.095,797.259C589.581,771.408 596.948,742.214 596.948,742.214C596.948,742.214 601.842,716.343 604.879,693.746C607.199,676.489 608.312,661.176 608.312,661.176C609.153,655.028 604.881,649.348 598.777,648.501C592.674,647.654 587.036,651.957 586.195,658.105Z" style="fill:rgb(255,229,190);"/>
            </g>
            <g transform="matrix(0.972057,0,0,0.803141,1035.24,-16.6664)">
                <path d="M560.177,672.529C560.177,672.529 559.629,682.866 559.62,698.331C559.616,705.909 559.873,714.712 560.149,724.123C560.367,731.586 560.621,739.421 561.034,747.333C561.81,762.222 563.308,777.261 563.899,790.647C564.066,794.411 564.238,798.04 564.14,801.48C563.594,820.574 561.575,833.749 561.575,833.749C561.619,838.826 565.747,842.912 570.788,842.868C575.828,842.824 579.885,838.665 579.841,833.588C579.841,833.588 577.594,820.45 576.717,801.369C576.559,797.932 576.669,794.301 576.769,790.534C577.128,777.139 578.366,762.076 578.884,747.176C579.159,739.257 579.277,731.419 579.366,723.954C579.479,714.539 579.583,705.733 579.447,698.156C579.171,682.694 578.443,672.368 578.443,672.368C578.399,667.291 574.271,663.204 569.23,663.249C564.19,663.293 560.133,667.451 560.177,672.529Z" style="fill:rgb(255,229,190);"/>
            </g>
            <g transform="matrix(0.972057,0,0,0.803141,519.863,565.914)">
                <path d="M535.473,681.544C535.473,681.544 539.832,691.516 544.748,706.597C550.139,723.14 555.223,745.983 561.725,766.628C564.916,776.759 568.406,786.346 571.469,794.654C577.517,811.057 582.262,822.327 582.262,822.327C583.945,827.389 589.391,830.124 594.417,828.429C599.443,826.734 602.157,821.247 600.475,816.185C600.475,816.185 597.527,804.309 592.552,787.544C590.032,779.053 587.089,769.282 583.58,759.257C576.432,738.831 566.838,717.509 561.256,701.03C556.166,686.007 553.686,675.402 553.686,675.402C552.003,670.339 546.557,667.605 541.531,669.3C536.505,670.995 533.791,676.481 535.473,681.544Z" style="fill:rgb(255,229,190);"/>
            </g>
            <g transform="matrix(0.972057,0,0,0.803141,886.31,594.25)">
                <path d="M577.335,846.619C577.335,846.619 576.553,832.583 576.51,812.558C576.487,801.895 577.228,789.585 577.223,776.752C577.221,771.691 577.18,766.551 576.905,761.422C575.932,743.249 573.028,725.303 572.492,710.412C571.77,690.367 572.98,676.316 572.98,676.316C572.852,671.335 568.734,667.395 563.789,667.523C558.844,667.651 554.932,671.8 555.06,676.781C555.06,676.781 556.986,690.751 557.289,710.806C557.515,725.706 555.532,743.779 555.489,761.978C555.477,767.114 555.699,772.249 555.955,777.303C556.606,790.12 557.975,802.375 558.497,813.025C559.478,833.026 559.415,847.084 559.415,847.084C559.542,852.066 563.66,856.006 568.605,855.877C573.551,855.749 577.462,851.601 577.335,846.619Z" style="fill:rgb(255,229,190);"/>
            </g>
            <g transform="matrix(0.972057,0,0,0.803141,772.298,-68.546)">
                <path d="M551.579,668.289C551.579,668.289 552.113,678.463 553.898,693.58C554.773,700.985 556.106,709.546 557.533,718.699C558.664,725.959 559.881,733.573 561.3,741.24C563.973,755.687 567.529,770.116 569.803,783.124C570.441,786.775 571.072,790.297 571.352,793.671C572.913,812.479 571.986,825.583 571.986,825.583C572.784,831.737 578.392,836.08 584.501,835.276C590.61,834.472 594.922,828.823 594.124,822.669C594.124,822.669 589.884,810.245 586.595,791.664C586.005,788.331 585.716,784.765 585.401,781.07C584.28,767.911 584.036,753.046 582.934,738.392C582.348,730.615 581.582,722.942 580.824,715.633C579.867,706.418 578.972,697.799 577.928,690.417C575.797,675.346 573.717,665.374 573.717,665.374C572.919,659.221 567.311,654.877 561.201,655.682C555.092,656.486 550.781,662.135 551.579,668.289Z" style="fill:rgb(255,229,190);"/>
            </g>
            <g transform="matrix(0.972057,0,0,0.803141,372.813,-68.546)">
                <path d="M533.994,682.042C533.994,682.042 536.25,691.305 540.576,704.873C542.694,711.518 545.458,719.135 548.415,727.279C550.761,733.739 553.249,740.507 555.945,747.284C561.027,760.061 566.963,772.623 571.408,784.154C572.655,787.389 573.873,790.506 574.722,793.557C579.464,810.595 580.783,822.825 580.783,822.825C582.739,828.711 589.07,831.889 594.912,829.919C600.755,827.949 603.91,821.571 601.954,815.686C601.954,815.686 595.696,805.121 589.299,788.641C588.154,785.69 587.263,782.463 586.325,779.123C582.982,767.22 580.213,753.591 576.634,740.308C574.736,733.261 572.678,726.348 570.689,719.767C568.182,711.472 565.836,703.713 563.556,697.123C558.9,683.667 555.165,674.903 555.165,674.903C553.209,669.018 546.878,665.839 541.036,667.81C535.194,669.78 532.038,676.157 533.994,682.042Z" style="fill:rgb(255,229,190);"/>
            </g>
            <g transform="matrix(0.972057,0,0,0.803141,380.706,269.673)">
                <path d="M557.197,644.841C557.197,644.841 560.673,655.709 563.787,672.591C564.432,676.09 564.847,679.877 565.278,683.851C566.747,697.411 567.06,713.281 569.102,729.186C569.682,733.701 570.581,738.174 571.426,742.623C573.496,753.522 576.115,764.019 577.887,773.831C578.589,777.713 579.26,781.46 579.623,785.056C581.732,805.98 581.316,820.655 581.316,820.655C582.082,826.244 587.209,830.154 592.757,829.382C598.306,828.61 602.188,823.445 601.421,817.856C601.421,817.856 597.07,803.845 593.467,783.129C592.847,779.569 592.485,775.778 592.115,771.851C591.18,761.922 590.874,751.103 589.932,740.047C589.548,735.534 589.209,730.983 588.552,726.479C586.236,710.612 582.264,695.251 580.027,681.798C579.372,677.856 578.752,674.096 578.431,670.553C576.883,653.453 577.303,642.043 577.303,642.043C576.536,636.454 571.409,632.544 565.861,633.316C560.313,634.088 556.431,639.253 557.197,644.841Z" style="fill:rgb(255,229,190);"/>
            </g>
            <g transform="matrix(0.972057,0,0,0.803141,905.442,221.157)">
                <path d="M516.156,813.315C516.156,813.315 522.085,816.695 531.396,820.855C535.95,822.89 541.364,824.957 547.153,827.165C551.75,828.919 556.575,830.727 561.529,832.379C570.905,835.507 580.559,837.801 588.943,840.737C591.283,841.556 593.551,842.336 595.569,843.366C606.977,849.19 613.729,854.91 613.729,854.91C619.403,857.329 625.959,854.652 628.36,848.937C630.761,843.222 628.104,836.618 622.43,834.199C622.43,834.199 613.654,833.299 601.561,829.105C599.422,828.363 597.286,827.266 595.073,826.144C587.144,822.125 578.788,816.742 570.032,812.14C565.406,809.708 560.758,807.479 556.307,805.375C550.704,802.727 545.461,800.251 540.841,798.374C531.394,794.538 524.857,792.604 524.857,792.604C519.183,790.185 512.628,792.862 510.226,798.577C507.825,804.292 510.482,810.896 516.156,813.315Z" style="fill:rgb(255,229,190);"/>
            </g>
            <g transform="matrix(28.4634,0,0,23.6893,-17597,-42885.8)">
                <text x="650.109px" y="1861.34px" style="font-family:'TallAbbeySans-Regular', 'Tall Abbey Sans';font-size:40.814px;fill:rgb(60,57,55);">C<tspan x="660.802px " y="1861.34px ">A</tspan></text>
            </g>
            <g transform="matrix(27.4548,0,0,22.8499,-17820.4,-40459.7)">
                <text x="650.109px" y="1861.34px" style="font-family:'TallAbbeySans-Regular', 'Tall Abbey Sans';font-size:44.364px;fill:rgb(60,57,55);">R<tspan x="662.398px " y="1861.34px ">O</tspan></text>
            </g>
            <g transform="matrix(4.37355,-0.151841,0.0982582,1.88153,-6224.77,-1421.4)">
                <g transform="matrix(0.01784,-2.4758e-19,0,0.671418,1377.9,-76.6494)">
                    <path d="M2434,1866.59C2436.5,1896.56 2438.82,1915.71 2438.82,1915.71" style="fill:rgb(169,72,73);"/>
                    <path d="M2297.78,1866.63C2291.71,1870.79 2283.7,1874.7 2280.62,1878.43C2278.34,1881.17 2278.29,1883.8 2279.03,1886.29C2284.46,1904.75 2302.59,1915.77 2302.59,1915.77C2303.06,1919.63 2364.48,1922.75 2439.67,1922.72C2514.85,1922.68 2575.51,1919.52 2575.04,1915.66C2575.04,1915.66 2590.5,1904.63 2592.46,1886.18C2592.73,1883.7 2592.19,1881.07 2589.43,1878.33C2585.68,1874.6 2576.98,1870.7 2570.23,1866.55C2569.91,1862.68 2508.61,1859.56 2433.42,1859.59C2358.24,1859.61 2297.46,1862.77 2297.78,1866.63Z" style="fill:rgb(200,232,136);"/>
                </g>
                <g transform="matrix(0.0446271,-6.19326e-19,0,0.511695,1342.89,423.461)">
                    <path d="M2434,1866.59C2436.5,1896.56 2438.82,1915.71 2438.82,1915.71" style="fill:rgb(169,72,73);"/>
                    <path d="M2379.55,1866.73C2377.33,1870.91 2374.34,1874.8 2373.3,1878.55C2372.54,1881.3 2372.67,1883.93 2373.1,1886.42C2376.32,1904.92 2384.37,1915.92 2384.37,1915.92C2384.99,1920.99 2409.88,1925.01 2439.93,1924.9C2469.98,1924.79 2493.88,1920.58 2493.26,1915.51C2493.26,1915.51 2498.64,1904.5 2498.39,1886.05C2498.35,1883.56 2497.99,1880.94 2496.74,1878.2C2495.04,1874.47 2491.37,1870.6 2488.46,1866.44C2488.03,1861.37 2463.29,1857.32 2433.24,1857.4C2403.19,1857.48 2379.13,1861.66 2379.55,1866.73Z" style="fill:rgb(200,232,136);"/>
                </g>
                <g transform="matrix(0.01784,0,0,0.562059,1433.81,154.266)">
                    <path d="M2434,1866.59C2436.5,1896.56 2438.82,1915.71 2438.82,1915.71" style="fill:rgb(169,72,73);"/>
                    <path d="M2297.78,1866.64C2291.7,1870.81 2283.71,1874.71 2280.62,1878.45C2278.35,1881.19 2278.29,1883.82 2279.03,1886.31C2284.47,1904.78 2302.59,1915.79 2302.59,1915.79C2303.15,1920.41 2364.65,1924.12 2439.83,1924.08C2515.01,1924.04 2575.6,1920.25 2575.04,1915.64C2575.04,1915.64 2590.5,1904.62 2592.46,1886.16C2592.73,1883.68 2592.19,1881.05 2589.43,1878.31C2585.67,1874.58 2576.99,1870.69 2570.23,1866.53C2569.85,1861.91 2508.49,1858.19 2433.31,1858.22C2358.12,1858.25 2297.39,1862.03 2297.78,1866.64Z" style="fill:rgb(200,232,136);"/>
                </g>
                <g transform="matrix(0.230302,0.00881695,0,0.401949,937.045,685.582)">
                    <path d="M2434,1866.59C2436.5,1896.56 2438.82,1915.71 2438.82,1915.71" style="fill:rgb(169,72,73);"/>
                    <path d="M2423.5,1867.91C2423.35,1872.19 2423.05,1876.16 2423.12,1879.99C2423.17,1882.78 2423.4,1885.44 2423.67,1887.94C2425.72,1906.61 2428.36,1917.52 2428.36,1917.52C2429.13,1923.89 2434.45,1928.27 2440.22,1927.27C2445.99,1926.28 2450.05,1920.29 2449.28,1913.91C2449.28,1913.91 2449.26,1902.88 2447.82,1884.58C2447.63,1882.11 2447.36,1879.5 2446.93,1876.8C2446.33,1873.1 2445.35,1869.36 2444.51,1865.27C2443.98,1858.85 2438.84,1854.23 2433.04,1854.96C2427.24,1855.69 2422.96,1861.49 2423.5,1867.91Z" style="fill:rgb(200,232,136);"/>
                </g>
                <g transform="matrix(0.01784,-2.4758e-19,0,0.671418,1400.06,12.6633)">
                    <path d="M2434,1866.59C2436.5,1896.56 2438.82,1915.71 2438.82,1915.71" style="fill:rgb(169,72,73);"/>
                    <path d="M2297.78,1866.63C2291.71,1870.79 2283.7,1874.7 2280.62,1878.43C2278.34,1881.17 2278.29,1883.8 2279.03,1886.29C2284.46,1904.75 2302.59,1915.77 2302.59,1915.77C2303.06,1919.63 2364.48,1922.75 2439.67,1922.72C2514.85,1922.68 2575.51,1919.52 2575.04,1915.66C2575.04,1915.66 2590.5,1904.63 2592.46,1886.18C2592.73,1883.7 2592.19,1881.07 2589.43,1878.33C2585.68,1874.6 2576.98,1870.7 2570.23,1866.55C2569.91,1862.68 2508.61,1859.56 2433.42,1859.59C2358.24,1859.61 2297.46,1862.77 2297.78,1866.63Z" style="fill:rgb(200,232,136);"/>
                </g>
                <g transform="matrix(0.045728,-6.34603e-19,0,0.549853,1305.26,439.889)">
                    <path d="M2434,1866.59C2436.5,1896.56 2438.82,1915.71 2438.82,1915.71" style="fill:rgb(169,72,73);"/>
                    <path d="M2380.86,1866.72C2378.7,1870.89 2375.79,1874.79 2374.79,1878.53C2374.05,1881.28 2374.18,1883.91 2374.61,1886.4C2377.8,1904.89 2385.68,1915.89 2385.68,1915.89C2386.25,1920.61 2410.53,1924.36 2439.85,1924.26C2469.18,1924.16 2492.53,1920.25 2491.95,1915.53C2491.95,1915.53 2497.17,1904.52 2496.88,1886.07C2496.84,1883.58 2496.48,1880.96 2495.26,1878.22C2493.59,1874.49 2489.99,1870.61 2487.15,1866.46C2486.75,1861.74 2462.62,1857.97 2433.29,1858.04C2403.96,1858.11 2380.47,1862 2380.86,1866.72Z" style="fill:rgb(200,232,136);"/>
                </g>
                <g transform="matrix(0.01784,0,0,0.671418,1466.27,-88.2182)">
                    <path d="M2434,1866.59C2436.5,1896.56 2438.82,1915.71 2438.82,1915.71" style="fill:rgb(169,72,73);"/>
                    <path d="M2297.78,1866.63C2291.71,1870.79 2283.7,1874.7 2280.62,1878.43C2278.34,1881.17 2278.29,1883.8 2279.03,1886.29C2284.46,1904.75 2302.59,1915.77 2302.59,1915.77C2303.06,1919.63 2364.48,1922.75 2439.67,1922.72C2514.85,1922.68 2575.51,1919.52 2575.04,1915.66C2575.04,1915.66 2590.5,1904.63 2592.46,1886.18C2592.73,1883.7 2592.19,1881.07 2589.43,1878.33C2585.68,1874.6 2576.98,1870.7 2570.23,1866.55C2569.91,1862.68 2508.61,1859.56 2433.42,1859.59C2358.24,1859.61 2297.46,1862.77 2297.78,1866.63Z" style="fill:rgb(200,232,136);"/>
                </g>
                <g transform="matrix(0.138411,-1.92084e-18,0,0.548836,1159.98,268.718)">
                    <path d="M2434,1866.59C2436.5,1896.56 2438.82,1915.71 2438.82,1915.71" style="fill:rgb(169,72,73);"/>
                    <path d="M2416.46,1866.95C2415.98,1871.14 2415.25,1875.06 2415.14,1878.82C2415.06,1881.58 2415.27,1884.22 2415.57,1886.71C2417.79,1905.24 2421.29,1916.23 2421.29,1916.23C2421.86,1920.95 2430.18,1924.55 2439.85,1924.26C2449.53,1923.98 2456.92,1919.91 2456.35,1915.19C2456.35,1915.19 2457.18,1904.17 2455.92,1885.77C2455.75,1883.29 2455.47,1880.67 2454.91,1877.94C2454.13,1874.22 2452.72,1870.36 2451.55,1866.23C2451.16,1861.5 2442.97,1857.83 2433.29,1858.03C2423.61,1858.23 2416.07,1862.23 2416.46,1866.95Z" style="fill:rgb(200,232,136);"/>
                </g>
                <g transform="matrix(0.01784,0,0,0.671418,1368.28,83.6172)">
                    <path d="M2434,1866.59C2436.5,1896.56 2438.82,1915.71 2438.82,1915.71" style="fill:rgb(169,72,73);"/>
                    <path d="M2297.78,1866.63C2291.71,1870.79 2283.7,1874.7 2280.62,1878.43C2278.34,1881.17 2278.29,1883.8 2279.03,1886.29C2284.46,1904.75 2302.59,1915.77 2302.59,1915.77C2303.06,1919.63 2364.48,1922.75 2439.67,1922.72C2514.85,1922.68 2575.51,1919.52 2575.04,1915.66C2575.04,1915.66 2590.5,1904.63 2592.46,1886.18C2592.73,1883.7 2592.19,1881.07 2589.43,1878.33C2585.68,1874.6 2576.98,1870.7 2570.23,1866.55C2569.91,1862.68 2508.61,1859.56 2433.42,1859.59C2358.24,1859.61 2297.46,1862.77 2297.78,1866.63Z" style="fill:rgb(200,232,136);"/>
                </g>
                <g transform="matrix(-0.194622,5.40185e-18,0,0.282537,1990.27,845.131)">
                    <path d="M2434,1866.59C2436.5,1896.56 2438.82,1915.71 2438.82,1915.71" style="fill:rgb(169,72,73);"/>
                    <path d="M2446.41,1864.78C2447.35,1868.87 2448.43,1872.47 2449.08,1876.19C2449.54,1878.86 2449.81,1881.45 2450,1883.92C2451.38,1902.13 2451.14,1913.09 2451.14,1913.09C2452.24,1922.16 2447.61,1930.7 2440.81,1932.14C2434,1933.59 2427.59,1927.41 2426.49,1918.34C2426.49,1918.34 2423.62,1907.49 2421.49,1888.62C2421.21,1886.1 2420.99,1883.42 2420.97,1880.6C2420.95,1876.68 2421.35,1872.75 2421.59,1868.39C2420.83,1859.26 2425.78,1851.04 2432.63,1850.05C2439.48,1849.05 2445.66,1855.65 2446.41,1864.78Z" style="fill:rgb(200,232,136);"/>
                </g>
            </g>
            <g transform="matrix(29.9082,0,0,24.8918,-19341.2,-45117.9)">
                <text x="650.109px" y="1861.34px" style="font-family:'TallAbbeySans-Regular', 'Tall Abbey Sans';font-size:40.814px;fill:rgb(60,57,55);">P<tspan x="659.537px " y="1861.34px ">I</tspan></text>
            </g>
            <g transform="matrix(2.29488,0,0,2.01676,-1432.95,-3511.46)">
                <rect x="992.126" y="2409.45" width="377.953" height="377.953" style="fill:rgb(169,72,73);"/>
            </g>
            <g transform="matrix(1.68215,0,0,1.48287,-770.599,-273.715)">
                <text x="998.858px" y="1533.44px" style="font-family:'TallAbbeySans-Regular', 'Tall Abbey Sans';font-size:522.607px;fill:white;">CMS</text>
            </g>
            <g transform="matrix(1.21635,0,0,1.06319,-244.851,222.861)">
                <path d="M918.678,1105.15C916.718,1105.19 914.856,1105.98 913.517,1107.34C912.178,1108.7 911.478,1110.53 911.576,1112.39C911.576,1112.39 926.251,1406.7 933.203,1575.78C936.003,1643.9 937.325,1691.68 937.325,1691.68C937.629,1697.49 942.507,1702.12 948.601,1702.4C948.601,1702.4 1120.77,1717.88 1279.54,1730.44C1307.93,1732.68 1335.85,1734.95 1362.32,1736.52C1461.75,1742.42 1539.96,1744.55 1539.96,1744.55C1547.37,1744.89 1554.61,1742.39 1560.08,1737.63C1565.55,1732.86 1568.8,1726.22 1569.1,1719.16L1583.95,1101.59C1584.13,1097.36 1582.47,1093.25 1579.37,1090.23C1576.26,1087.2 1571.99,1085.53 1567.54,1085.61L918.678,1105.15ZM918.808,1112.05L1567.83,1100.96L1541.29,1718.08L949.167,1691.12L918.808,1112.05Z" style="fill:white;"/>
            </g>
        </g>
    </g>
</svg>
