<?xml version="1.0" encoding="UTF-8" standalone="no"?>
<!DOCTYPE svg PUBLIC "-//W3C//DTD SVG 1.1//EN" "http://www.w3.org/Graphics/SVG/1.1/DTD/svg11.dtd">
<svg width="100%" height="100%" viewBox="0 0 821 903" version="1.1" xmlns="http://www.w3.org/2000/svg" xmlns:xlink="http://www.w3.org/1999/xlink" xml:space="preserve" xmlns:serif="http://www.serif.com/" style="fill-rule:evenodd;clip-rule:evenodd;stroke-linejoin:round;stroke-miterlimit:2;">
    <g transform="matrix(0.48,0,0,0.48,-1056.06,-0.628808)">
        <g id="Artboard2" transform="matrix(0.855227,0,0,1.02758,2332.88,-393.355)">
            <rect x="-155.225" y="384.073" width="1998.16" height="1830.61" style="fill:none;"/>
            <g transform="matrix(0.730206,0,-0.105476,0.716835,-15.9205,813.298)">
                <path d="M176.723,910.372C200.959,906.612 222.805,905.307 242.257,904.53C249.913,904.225 257.168,904.016 264.047,903.858C271.765,903.68 278.989,903.558 285.762,903.577C331.794,903.704 356.387,911.752 356.387,911.752C362.424,914.365 369.265,912.59 371.654,907.792C374.042,902.994 371.08,896.977 365.043,894.364L303.534,878.192C291.734,876.608 278.18,875.39 263.035,875.556C250.934,875.689 237.828,876.729 223.824,878.772C206.633,881.279 188.285,885.504 168.353,891.149C162.285,892.458 159.234,897.827 161.544,903.132C163.854,908.436 170.655,911.68 176.723,910.372Z" style="fill:rgb(220,234,244);"/>
            </g>
            <g transform="matrix(0.654094,0,-0.287316,1.95264,789.737,-137.723)">
                <path d="M181.364,903.728C204.507,899.446 225.365,897.175 243.664,895.912C251.24,895.39 258.343,895.079 265.044,894.915C272.625,894.729 279.635,894.73 286.205,894.94C326.697,896.237 349.897,904.739 349.897,904.739C354.006,906.518 362.189,907.208 368.16,906.28C374.131,905.352 375.642,903.155 371.533,901.377L324.422,888.767C308.002,886.155 287.036,884.182 262.17,884.493C248.197,884.668 232.905,885.621 216.8,887.65C200.064,889.757 182.466,893.06 163.711,897.793C158.345,898.95 157.943,901.22 162.814,902.858C167.685,904.496 175.998,904.886 181.364,903.728Z" style="fill:rgb(220,234,244);"/>
            </g>
            <g transform="matrix(0.730206,0,-0.105476,0.716835,122.621,1157.73)">
                <path d="M182.368,907.163C199.32,889.811 220.999,884.443 242.895,884.133C248.674,884.051 254.469,884.319 260.248,884.799C269.393,885.558 278.469,886.891 287.249,888.695C317.644,894.941 344.378,905.961 355.25,911.201C361,914.308 368.116,913.182 371.132,908.688C374.148,904.195 371.929,898.023 366.18,894.916C354.651,887.969 326.222,872.152 292.479,862.836C281.915,859.92 270.827,857.738 259.669,856.703C252.159,856.007 244.613,855.896 237.183,856.395C227.841,857.023 218.62,858.486 209.877,861.247C191.78,866.961 175.259,877.202 162.708,894.358C159.142,898.524 160.651,904.776 166.076,908.31C171.501,911.844 178.801,911.33 182.368,907.163Z" style="fill:rgb(220,234,244);"/>
            </g>
            <g transform="matrix(0.553247,-0.0564022,0.301633,0.929102,131.899,650.001)">
                <path d="M177.101,907.494C197.466,904.003 215.793,902.416 232.487,901.318C245.441,900.466 257.212,900.265 268.061,900.249C281.017,900.229 292.578,900.475 302.643,901.279C332.622,903.674 349.526,908.907 349.526,908.907C355.408,911.452 365.197,910.898 371.372,907.67C377.548,904.442 377.786,899.755 371.904,897.21L317.05,882.2C304.933,880.409 290.698,879.061 274.369,879.009C260.96,878.967 246.127,879.808 230.202,881.778C210.985,884.155 190.34,888.158 167.975,894.027C159.827,895.785 155.256,900.229 157.775,903.945C160.293,907.661 168.952,909.251 177.101,907.494Z" style="fill:rgb(220,234,244);"/>
            </g>
            <g transform="matrix(0.553247,-0.0564022,0.301633,0.929102,175.016,968.281)">
                <path d="M345.82,902.12C343.695,905.93 347.807,909.542 355.424,910.347C363.436,911.194 372.313,908.615 375.233,904.593C378.459,900.966 377.742,893.456 369.322,885.694C360.013,877.111 340.575,868.203 309.79,865.422C299.859,864.525 288.62,864.377 276.202,865.246C266.232,865.944 255.409,867.286 243.927,869.561C220.53,874.199 194.01,882.331 164.109,895.156C156.961,897.863 154.935,902.572 159.587,905.666C164.238,908.759 173.818,909.073 180.966,906.365C199.378,900.317 216.138,896.145 231.179,892.838C250.113,888.676 266.16,886.786 280.046,886.048C312.183,884.34 332.142,890.712 340.74,897.332C343.312,899.311 343.081,902.238 345.78,902.126L345.82,902.12Z" style="fill:rgb(220,234,244);"/>
            </g>
            <g transform="matrix(0.553247,-0.0564022,0.301633,0.929102,-205.038,1186.98)">
                <path d="M186.892,902.511C194.62,894.535 207.461,892.656 221.711,892.793C229.364,892.867 237.325,893.673 245.701,894.601C254.064,895.528 262.664,896.715 271.34,897.954C303.115,902.49 334.924,908.343 354.685,910.258C362.537,911.311 371.614,908.939 374.942,904.965C378.27,900.991 374.597,896.91 366.745,895.858C356.948,894.097 344.52,890.637 330.141,887.074C317.746,884.003 304.3,880.742 290.343,878.148C280.502,876.319 270.413,874.833 260.475,873.895C248.538,872.769 236.796,872.346 225.874,872.883C195.053,874.397 169.141,881.294 158.184,899.01C155.026,903.005 158.894,907.034 166.817,908C174.739,908.966 183.734,906.507 186.892,902.511Z" style="fill:rgb(220,234,244);"/>
            </g>
            <g transform="matrix(0.807337,-0.041782,0.247507,1.50181,-223.971,253.844)">
                <path d="M366.713,899.007C367.345,898.576 363.911,897.95 361.133,896.996C350.782,893.445 327.796,886.758 292.082,884.398C284.184,883.876 275.638,883.611 266.502,883.706C258.41,883.791 249.838,884.151 240.858,884.887C219.204,886.662 195.176,890.365 168.742,896.516C163.298,897.624 160.579,900.424 162.673,902.766C164.768,905.109 170.889,906.112 176.334,905.004C196.622,901.483 215.112,899.585 231.883,898.379C245.235,897.419 257.419,897.099 268.592,897.073C284.028,897.038 297.467,897.616 308.863,898.754C326.25,900.49 338.924,903.037 346.298,904.877C349.806,905.753 352.203,906.391 353.301,906.72C354.716,907.144 355.674,907.368 356.074,907.44C360.299,908.201 363.425,907.571 364.975,907.217C368.572,906.396 373.053,904.739 370.878,901.438C370.177,900.374 368.664,899.538 366.713,899.007Z" style="fill:rgb(220,234,244);"/>
            </g>
            <g transform="matrix(0.807337,-0.041782,0.247507,1.50181,71.4142,574.892)">
                <path d="M360.997,898.369C361.911,896.905 351.937,896.617 343.859,895.009C330.345,892.319 311.66,888.746 289.554,886.667C277.146,885.5 263.661,884.833 249.653,885.009C238.515,885.148 227.044,885.838 215.499,887.186C199.513,889.052 183.439,892.098 167.726,896.751C162.532,898.098 160.471,900.989 163.127,903.202C165.783,905.415 172.157,906.117 177.35,904.77C189.029,902.151 200.665,900.59 212.054,899.525C224.306,898.379 236.226,898.127 247.745,898.179C259.791,898.233 271.339,898.754 282.178,899.511C302.793,900.953 320.831,903.185 333.91,905.014C344.164,906.448 351.755,907.503 355.786,907.721C359.298,907.912 361.928,907.769 363.643,907.46C369.248,906.56 372.487,903.856 370.871,901.427C369.564,899.462 365.478,898.274 360.997,898.369Z" style="fill:rgb(220,234,244);"/>
            </g>
            <g transform="matrix(0.638415,-0.0112397,0.0523825,0.934324,290.012,835.193)">
                <path d="M176.998,907.847C201.479,903.676 223.308,902.036 242.707,901.157C250.29,900.814 257.462,900.622 264.271,900.509C271.86,900.383 278.967,900.351 285.632,900.481C328.681,901.321 352.452,909.139 352.452,909.139C358.244,911.645 366.649,910.955 371.209,907.6C375.769,904.244 374.77,899.484 368.978,896.978L310.394,881.611C298.299,879.964 284.245,878.742 268.326,878.819C255.534,878.881 241.534,879.798 226.549,881.758C208.449,884.125 189.075,888.082 168.078,893.674C161.129,895.173 157.486,899.565 159.948,903.476C162.409,907.387 170.049,909.346 176.998,907.847Z" style="fill:rgb(220,234,244);"/>
            </g>
            <g transform="matrix(0.638415,-0.0112397,0.0523825,0.934324,324.708,1177.75)">
                <path d="M176.998,907.847C196.623,904.577 214.062,903.424 229.691,902.938C242.129,902.552 253.246,902.962 263.356,903.664C275.574,904.513 286.249,905.788 295.383,907.684C322.412,913.294 336.405,922.03 336.405,922.03C340.566,925.426 348.884,926.194 354.969,923.743C361.055,921.292 362.619,916.544 358.458,913.148L309.966,889.358C298.63,886.128 285.032,883.382 269.09,882.193C256.4,881.247 242.183,881.303 226.695,882.755C208.868,884.427 189.443,887.958 168.078,893.674C161.129,895.173 157.486,899.565 159.948,903.476C162.409,907.387 170.049,909.346 176.998,907.847Z" style="fill:rgb(220,234,244);"/>
            </g>
            <g transform="matrix(0.972057,0,0,0.803141,668.794,369.669)">
                <path d="M528.046,811.252C528.046,811.252 536.084,804.901 547.457,794.647C553.028,789.624 559.284,783.551 565.972,777.057C571.276,771.906 576.823,766.478 582.297,760.854C592.611,750.256 602.406,738.937 611.769,729.506C614.398,726.858 616.924,724.292 619.53,722.101C634.056,709.89 645.336,703.042 645.336,703.042C649.879,698.85 650.19,691.731 646.028,687.155C641.867,682.578 634.8,682.265 630.257,686.457C630.257,686.457 622.496,697.176 609.147,710.682C606.752,713.105 603.993,715.415 601.144,717.821C590.997,726.389 578.945,735.226 567.561,744.647C561.519,749.647 555.666,754.737 550.107,759.608C543.099,765.75 536.544,771.495 531.089,776.645C519.952,787.158 512.967,794.667 512.967,794.667C508.424,798.859 508.113,805.978 512.275,810.554C516.436,815.131 523.503,815.444 528.046,811.252Z" style="fill:rgb(253,227,186);"/>
            </g>
            <g transform="matrix(0.972057,0,0,0.803141,1035.24,-16.6664)">
                <path d="M527.674,808.662C527.674,808.662 534.43,801.083 543.904,789.231C548.546,783.424 553.735,776.513 559.282,769.123C563.68,763.264 568.278,757.097 572.801,750.77C581.311,738.865 589.348,726.39 597.083,715.753C599.258,712.762 601.345,709.871 603.528,707.296C615.645,692.998 625.281,684.175 625.281,684.175C628.406,680.19 627.731,674.4 623.775,671.253C619.819,668.106 614.071,668.786 610.946,672.77C610.946,672.77 604.658,684.258 593.657,699.444C591.676,702.179 589.368,704.894 586.983,707.718C578.503,717.761 568.318,728.528 558.792,739.625C553.73,745.522 548.84,751.457 544.2,757.125C538.349,764.272 532.877,770.957 528.344,776.852C519.094,788.882 513.339,797.257 513.339,797.257C510.215,801.242 510.89,807.032 514.846,810.179C518.802,813.327 524.55,812.647 527.674,808.662Z" style="fill:rgb(253,227,186);"/>
            </g>
            <g transform="matrix(0.972057,0,0,0.803141,519.863,565.914)">
                <path d="M528.043,808.955C528.043,808.955 534.4,799.237 544.907,785.987C556.43,771.454 573.612,753.404 588.114,735.462C595.233,726.655 601.717,717.917 607.316,710.311C618.367,695.297 625.65,684.468 625.65,684.468C628.935,680.279 628.225,674.191 624.066,670.882C619.907,667.572 613.863,668.287 610.578,672.477C610.578,672.477 601.807,682.122 589.869,696.43C583.82,703.678 576.884,712.057 570.028,721.073C556.061,739.44 542.61,760.459 531.245,775.117C520.883,788.483 512.971,796.964 512.971,796.964C509.686,801.154 510.395,807.242 514.555,810.551C518.714,813.86 524.758,813.145 528.043,808.955Z" style="fill:rgb(253,227,186);"/>
            </g>
            <g transform="matrix(0.972057,0,0,0.803141,886.31,594.25)">
                <path d="M526.981,809.203C526.981,809.203 534.786,800.375 546.675,788.546C553.011,782.242 560.852,775.528 568.494,767.957C571.505,764.974 574.536,761.915 577.395,758.698C587.539,747.282 596.141,734.67 604.64,725.5C616.069,713.168 625.281,705.758 625.281,705.758C628.702,702.158 628.578,696.438 625.004,692.993C621.431,689.547 615.752,689.672 612.332,693.272C612.332,693.272 605.385,702.866 593.654,714.907C584.931,723.86 572.798,733.069 561.919,743.776C558.853,746.793 555.952,749.977 553.125,753.138C545.95,761.159 539.633,769.344 533.658,775.995C522.446,788.477 514.032,796.716 514.032,796.716C510.611,800.316 510.735,806.036 514.309,809.482C517.882,812.927 523.561,812.802 526.981,809.203Z" style="fill:rgb(253,227,186);"/>
            </g>
            <g transform="matrix(0.972057,0,0,0.803141,772.298,-68.546)">
                <path d="M529.267,809.929C529.267,809.929 536.129,802.444 545.633,790.607C550.288,784.809 555.445,777.873 560.957,770.456C565.33,764.574 569.895,758.383 574.357,752.009C582.765,739.999 590.543,727.364 598.205,716.646C600.357,713.637 602.421,710.726 604.624,708.169C616.909,693.917 626.874,685.442 626.874,685.442C630.693,680.572 629.868,673.495 625.033,669.648C620.198,665.802 613.172,666.633 609.354,671.503C609.354,671.503 603.478,683.231 592.56,698.571C590.602,701.323 588.268,704.02 585.861,706.825C577.286,716.817 566.886,727.366 557.236,738.387C552.114,744.236 547.192,750.144 542.524,755.791C536.639,762.911 531.136,769.572 526.615,775.477C517.385,787.531 511.746,795.99 511.746,795.99C507.928,800.86 508.753,807.937 513.588,811.784C518.423,815.63 525.448,814.799 529.267,809.929Z" style="fill:rgb(253,227,186);"/>
            </g>
            <g transform="matrix(0.972057,0,0,0.803141,372.813,-68.546)">
                <path d="M529.267,809.929C529.267,809.929 536.129,802.444 545.633,790.607C550.288,784.809 555.445,777.873 560.957,770.456C565.33,764.574 569.895,758.383 574.357,752.009C582.765,739.999 590.543,727.364 598.205,716.646C600.357,713.637 602.421,710.726 604.624,708.169C616.909,693.917 626.874,685.442 626.874,685.442C630.693,680.572 629.868,673.495 625.033,669.648C620.198,665.802 613.172,666.633 609.354,671.503C609.354,671.503 603.478,683.231 592.56,698.571C590.602,701.323 588.268,704.02 585.861,706.825C577.286,716.817 566.886,727.366 557.236,738.387C552.114,744.236 547.192,750.144 542.524,755.791C536.639,762.911 531.136,769.572 526.615,775.477C517.385,787.531 511.746,795.99 511.746,795.99C507.928,800.86 508.753,807.937 513.588,811.784C518.423,815.63 525.448,814.799 529.267,809.929Z" style="fill:rgb(253,227,186);"/>
            </g>
            <g transform="matrix(0.972057,0,0,0.803141,380.706,269.673)">
                <path d="M527.625,810.245C527.625,810.245 533.773,801.372 544.727,789.395C546.995,786.915 549.621,784.458 552.379,781.884C561.794,773.099 573.65,763.954 584.501,753.392C587.58,750.395 590.434,747.165 593.304,743.992C600.335,736.216 606.724,728.233 613.109,721.305C615.634,718.566 618.075,715.925 620.587,713.617C635.217,700.18 646.599,692.297 646.599,692.297C650.591,688.339 650.643,681.862 646.714,677.841C642.785,673.819 636.354,673.768 632.362,677.725C632.362,677.725 624.356,689.063 610.785,703.584C608.454,706.078 605.794,708.495 603.034,710.994C596.056,717.314 588.03,723.622 580.199,730.58C577.004,733.419 573.753,736.242 570.728,739.296C560.071,750.056 550.805,761.852 541.935,771.194C539.336,773.931 536.855,776.537 534.358,778.781C522.294,789.623 513.388,795.674 513.388,795.674C509.396,799.631 509.345,806.109 513.274,810.13C517.203,814.151 523.633,814.203 527.625,810.245Z" style="fill:rgb(253,227,186);"/>
            </g>
            <g transform="matrix(0.972057,0,0,0.803141,610.475,136.286)">
                <path d="M642.368,776.182C642.368,776.182 633.897,770.505 620.81,762.717C614.397,758.9 606.815,754.694 598.708,750.197C592.281,746.633 585.52,742.911 578.612,739.287C565.614,732.469 552.123,726.203 540.491,719.98C537.22,718.23 534.061,716.554 531.199,714.738C515.311,704.656 505.187,696.277 505.187,696.277C500.823,693.735 495.232,695.24 492.708,699.636C490.185,704.031 491.679,709.664 496.043,712.206C496.043,712.206 508.303,716.865 524.903,725.706C527.893,727.299 530.911,729.221 534.049,731.204C545.205,738.255 557.326,746.907 569.676,754.854C576.239,759.077 582.815,763.123 589.088,766.956C597.001,771.791 604.402,776.312 610.885,780.007C624.114,787.547 633.224,792.111 633.224,792.111C637.588,794.653 643.18,793.148 645.703,788.752C648.226,784.356 646.732,778.724 642.368,776.182Z" style="fill:rgb(253,227,186);"/>
            </g>
            <g transform="matrix(0.972057,0,0,0.803141,905.442,221.157)">
                <path d="M633.394,773.813C633.394,773.813 624.139,776.959 610.659,782.595C604.056,785.356 596.511,788.859 588.446,792.605C582.048,795.577 575.347,798.723 568.652,802.078C556.034,808.4 543.686,815.569 532.288,821.133C529.089,822.694 526.009,824.215 522.968,825.358C506.001,831.736 493.647,834.221 493.647,834.221C487.986,836.669 485.362,843.286 487.791,848.989C490.221,854.692 496.79,857.335 502.452,854.888C502.452,854.888 512.751,847.58 529.03,839.588C531.948,838.156 535.164,836.954 538.492,835.694C550.348,831.206 564.013,827.13 577.256,822.274C584.282,819.697 591.162,816.972 597.709,814.349C605.962,811.042 613.68,807.947 620.215,805.028C633.558,799.07 642.199,794.48 642.199,794.48C647.86,792.033 650.484,785.415 648.055,779.712C645.625,774.009 639.056,771.366 633.394,773.813Z" style="fill:rgb(253,227,186);"/>
            </g>
            <g transform="matrix(0.972057,0,0,0.803141,668.794,369.669)">
                <path d="M642.621,774.006C642.621,774.006 634.727,769.325 622.459,763.208C616.452,760.212 609.334,757.023 601.725,753.614C595.687,750.91 589.342,748.1 582.847,745.435C570.6,740.408 557.924,736.153 546.968,731.514C543.895,730.213 540.923,728.97 538.25,727.505C523.307,719.317 514.035,711.932 514.035,711.932C508.479,709.25 501.806,711.616 499.144,717.213C496.481,722.809 498.83,729.531 504.386,732.213C504.386,732.213 515.909,734.867 531.606,741.469C534.414,742.651 537.238,744.206 540.17,745.803C550.623,751.5 561.856,758.787 573.418,765.254C579.549,768.683 585.699,771.905 591.573,774.951C598.978,778.791 605.905,782.381 611.986,785.222C624.404,791.022 632.972,794.287 632.972,794.287C638.528,796.969 645.2,794.603 647.863,789.006C650.526,783.41 648.177,776.688 642.621,774.006Z" style="fill:rgb(253,227,186);"/>
            </g>
            <g transform="matrix(0.972057,0,0,0.803141,1035.24,-16.6664)">
                <path d="M641.591,775.778C641.591,775.778 633.26,771.238 620.447,765.184C614.17,762.218 606.767,759.012 598.852,755.585C592.576,752.867 585.977,750.036 579.247,747.32C566.577,742.207 553.492,737.701 542.145,733.006C538.956,731.686 535.876,730.425 533.068,728.991C517.458,721.019 507.414,714.036 507.414,714.036C502.829,711.926 497.406,713.963 495.312,718.581C493.217,723.2 495.239,728.663 499.824,730.773C499.824,730.773 511.64,733.848 527.842,740.515C530.756,741.714 533.719,743.234 536.798,744.798C547.75,750.364 559.697,757.376 571.83,763.676C578.274,767.022 584.719,770.194 590.867,773.193C598.621,776.976 605.873,780.513 612.209,783.351C625.14,789.144 634.001,792.515 634.001,792.515C638.586,794.625 644.009,792.588 646.104,787.969C648.199,783.351 646.177,777.888 641.591,775.778Z" style="fill:rgb(253,227,186);"/>
            </g>
            <g transform="matrix(0.972057,0,0,0.803141,519.863,565.914)">
                <path d="M642.635,775.791C642.635,775.791 630.933,770.07 614.604,760.368C596.698,749.729 573.84,733.524 551.676,720.103C540.792,713.513 530.115,707.574 520.828,702.452C502.507,692.345 489.423,685.763 489.423,685.763C484.845,683.073 478.96,684.633 476.29,689.244C473.619,693.856 475.168,699.784 479.746,702.474C479.746,702.474 491.874,710.707 509.626,721.796C518.623,727.418 529.011,733.857 540.063,740.156C562.57,752.984 587.825,765.051 605.832,775.515C622.254,785.057 632.958,792.502 632.958,792.502C637.536,795.192 643.421,793.632 646.091,789.021C648.762,784.409 647.213,778.481 642.635,775.791Z" style="fill:rgb(253,227,186);"/>
            </g>
            <g transform="matrix(0.972057,0,0,0.803141,886.31,594.25)">
                <path d="M486.343,729.679C486.343,729.679 498.71,734.47 515.912,742.288C525.074,746.452 535.329,751.962 546.346,756.994C550.69,758.978 555.118,760.958 559.632,762.718C575.633,768.958 592.216,773.329 605.221,778.683C622.722,785.887 634.28,792.51 634.28,792.51C638.838,794.446 644.099,792.29 646.021,787.699C647.943,783.107 645.803,777.807 641.244,775.871C641.244,775.871 628.468,772.16 611.129,764.567C598.245,758.925 583.561,750.017 567.955,742.833C563.553,740.807 559.055,738.995 554.612,737.247C543.343,732.814 532.268,729.264 522.912,725.564C505.346,718.616 493.307,713.041 493.307,713.041C488.749,711.105 483.488,713.261 481.566,717.852C479.644,722.444 481.785,727.744 486.343,729.679Z" style="fill:rgb(253,227,186);"/>
            </g>
            <g transform="matrix(0.972057,0,0,0.803141,772.298,-68.546)">
                <path d="M485.777,736.335C485.777,736.335 495.281,738.625 509.678,741.067C516.729,742.263 524.971,743.334 533.783,744.478C540.773,745.386 548.111,746.308 555.554,747.051C569.583,748.45 583.829,748.987 596.424,750.376C599.958,750.765 603.371,751.127 606.551,751.786C624.294,755.466 636.074,759.974 636.074,759.974C642.162,760.932 647.875,756.731 648.826,750.599C649.776,744.467 645.606,738.712 639.519,737.754C639.519,737.754 626.935,738.431 608.923,736.486C605.694,736.138 602.335,735.434 598.85,734.72C586.435,732.174 572.705,728.312 558.92,725.336C551.606,723.758 544.338,722.383 537.406,721.101C528.668,719.484 520.494,717.974 513.416,716.948C498.965,714.852 489.222,714.115 489.222,714.115C483.134,713.157 477.421,717.358 476.47,723.49C475.52,729.622 479.69,735.378 485.777,736.335Z" style="fill:rgb(253,227,186);"/>
            </g>
            <g transform="matrix(0.972057,0,0,0.803141,372.813,-68.546)">
                <path d="M643.421,774.434C643.421,774.434 633.998,767.987 619.388,759.199C612.229,754.893 603.751,750.169 594.686,745.119C587.498,741.114 579.937,736.936 572.203,732.882C557.642,725.249 542.511,718.307 529.486,711.33C525.825,709.37 522.288,707.492 519.1,705.436C501.371,694.004 490.209,684.405 490.209,684.405C484.887,681.278 478.047,683.092 474.942,688.452C471.838,693.813 473.638,700.704 478.96,703.831C478.96,703.831 492.748,708.894 511.354,718.812C514.7,720.596 518.064,722.773 521.56,725.017C534,733.005 547.446,742.855 561.209,751.865C568.52,756.651 575.852,761.224 582.851,765.556C591.677,771.019 599.933,776.128 607.177,780.285C621.963,788.77 632.172,793.859 632.172,793.859C637.493,796.987 644.334,795.173 647.439,789.812C650.543,784.452 648.743,777.561 643.421,774.434Z" style="fill:rgb(253,227,186);"/>
            </g>
            <g transform="matrix(0.972057,0,0,0.803141,380.706,269.673)">
                <path d="M643.277,775.543C643.277,775.543 634.842,772.442 623.022,765.751C620.586,764.372 618.122,762.657 615.544,760.854C606.73,754.693 597.34,746.414 586.799,739.436C583.809,737.457 580.649,735.753 577.534,734.018C569.888,729.76 562.177,726.171 555.349,722.265C552.655,720.723 550.055,719.23 547.738,717.577C534.196,707.92 525.987,699.736 525.987,699.736C521.273,696.69 514.99,698.071 511.965,702.82C508.941,707.568 510.312,713.897 515.026,716.944C515.026,716.944 525.833,721.051 540.191,729.426C542.648,730.859 545.08,732.617 547.593,734.441C553.964,739.066 560.416,744.63 567.445,749.857C570.309,751.986 573.164,754.17 576.196,756.083C586.886,762.826 598.27,767.975 607.503,773.478C610.204,775.088 612.779,776.629 615.039,778.284C626.002,786.319 632.316,792.75 632.316,792.75C637.03,795.797 643.313,794.415 646.338,789.667C649.362,784.918 647.991,778.59 643.277,775.543Z" style="fill:rgb(253,227,186);"/>
            </g>
            <g transform="matrix(0.972057,-7.55014e-15,-6.24518e-15,0.803141,591.342,128.47)">
                <path d="M583.303,686.671C583.303,686.671 582.597,695.152 582.352,707.866C582.232,714.094 582.354,721.332 582.486,729.07C582.59,735.208 582.724,741.649 583.016,748.157C583.565,760.418 584.832,772.772 585.219,783.796C585.327,786.892 585.444,789.878 585.293,792.702C584.454,808.439 582.235,819.181 582.235,819.181C582.194,824.259 586.254,828.414 591.294,828.456C596.335,828.497 600.461,824.408 600.501,819.33C600.501,819.33 598.456,808.553 597.871,792.805C597.765,789.979 597.93,786.995 598.089,783.901C598.653,772.885 600.119,760.554 600.866,748.303C601.262,741.8 601.5,735.362 601.703,729.227C601.96,721.492 602.199,714.257 602.179,708.028C602.139,695.312 601.569,686.82 601.569,686.82C601.61,681.742 597.551,677.587 592.51,677.545C587.47,677.504 583.344,681.593 583.303,686.671Z" style="fill:rgb(253,227,186);"/>
            </g>
            <g transform="matrix(0.972057,0,0,0.803141,905.442,221.157)">
                <path d="M558.131,733.295C558.131,733.295 557.263,742.651 556.958,756.688C556.808,763.563 556.953,771.552 557.111,780.094C557.236,786.87 557.396,793.979 557.749,801.163C558.414,814.71 559.957,828.328 560.424,840.508C560.555,843.924 560.696,847.222 560.511,850.338C559.476,867.747 556.76,879.558 556.76,879.558C556.702,885.763 561.657,890.849 567.818,890.908C573.978,890.967 579.027,885.976 579.086,879.77C579.086,879.77 576.592,867.91 575.883,850.484C575.756,847.365 575.959,844.071 576.154,840.657C576.85,828.488 578.647,814.902 579.566,801.371C580.053,794.194 580.347,787.09 580.599,780.317C580.916,771.78 581.211,763.794 581.19,756.918C581.147,742.878 580.456,733.508 580.456,733.508C580.514,727.302 575.559,722.216 569.398,722.157C563.238,722.099 558.189,727.09 558.131,733.295Z" style="fill:rgb(253,227,186);"/>
            </g>
            <g transform="matrix(0.972057,0,0,0.803141,668.794,369.669)">
                <path d="M586.195,658.105C586.195,658.105 583.154,673.15 580.752,690.396C577.607,712.978 575.371,739.218 575.371,739.218C575.371,739.218 574.623,769.331 571.037,795.168C570.504,799.007 569.612,802.675 568.824,806.171C565.532,820.769 562.445,831.677 562.445,831.677C561.604,837.825 565.876,843.504 571.979,844.351C578.083,845.199 583.721,840.895 584.562,834.747C584.562,834.747 584.52,823.405 585.271,808.455C585.451,804.874 585.577,801.1 586.095,797.259C589.581,771.408 596.948,742.214 596.948,742.214C596.948,742.214 601.842,716.343 604.879,693.746C607.199,676.489 608.312,661.176 608.312,661.176C609.153,655.028 604.881,649.348 598.777,648.501C592.674,647.654 587.036,651.957 586.195,658.105Z" style="fill:rgb(253,227,186);"/>
            </g>
            <g transform="matrix(0.972057,0,0,0.803141,1035.24,-16.6664)">
                <path d="M560.177,672.529C560.177,672.529 559.629,682.866 559.62,698.331C559.616,705.909 559.873,714.712 560.149,724.123C560.367,731.586 560.621,739.421 561.034,747.333C561.81,762.222 563.308,777.261 563.899,790.647C564.066,794.411 564.238,798.04 564.14,801.48C563.594,820.574 561.575,833.749 561.575,833.749C561.619,838.826 565.747,842.912 570.788,842.868C575.828,842.824 579.885,838.665 579.841,833.588C579.841,833.588 577.594,820.45 576.717,801.369C576.559,797.932 576.669,794.301 576.769,790.534C577.128,777.139 578.366,762.076 578.884,747.176C579.159,739.257 579.277,731.419 579.366,723.954C579.479,714.539 579.583,705.733 579.447,698.156C579.171,682.694 578.443,672.368 578.443,672.368C578.399,667.291 574.271,663.204 569.23,663.249C564.19,663.293 560.133,667.451 560.177,672.529Z" style="fill:rgb(253,227,186);"/>
            </g>
            <g transform="matrix(0.972057,0,0,0.803141,519.863,565.914)">
                <path d="M535.473,681.544C535.473,681.544 539.832,691.516 544.748,706.597C550.139,723.14 555.223,745.983 561.725,766.628C564.916,776.759 568.406,786.346 571.469,794.654C577.517,811.057 582.262,822.327 582.262,822.327C583.945,827.389 589.391,830.124 594.417,828.429C599.443,826.734 602.157,821.247 600.475,816.185C600.475,816.185 597.527,804.309 592.552,787.544C590.032,779.053 587.089,769.282 583.58,759.257C576.432,738.831 566.838,717.509 561.256,701.03C556.166,686.007 553.686,675.402 553.686,675.402C552.003,670.339 546.557,667.605 541.531,669.3C536.505,670.995 533.791,676.481 535.473,681.544Z" style="fill:rgb(253,227,186);"/>
            </g>
            <g transform="matrix(0.972057,0,0,0.803141,886.31,594.25)">
                <path d="M577.335,846.619C577.335,846.619 576.553,832.583 576.51,812.558C576.487,801.895 577.228,789.585 577.223,776.752C577.221,771.691 577.18,766.551 576.905,761.422C575.932,743.249 573.028,725.303 572.492,710.412C571.77,690.367 572.98,676.316 572.98,676.316C572.852,671.335 568.734,667.395 563.789,667.523C558.844,667.651 554.932,671.8 555.06,676.781C555.06,676.781 556.986,690.751 557.289,710.806C557.515,725.706 555.532,743.779 555.489,761.978C555.477,767.114 555.699,772.249 555.955,777.303C556.606,790.12 557.975,802.375 558.497,813.025C559.478,833.026 559.415,847.084 559.415,847.084C559.542,852.066 563.66,856.006 568.605,855.877C573.551,855.749 577.462,851.601 577.335,846.619Z" style="fill:rgb(253,227,186);"/>
            </g>
            <g transform="matrix(0.972057,0,0,0.803141,772.298,-68.546)">
                <path d="M551.579,668.289C551.579,668.289 552.113,678.463 553.898,693.58C554.773,700.985 556.106,709.546 557.533,718.699C558.664,725.959 559.881,733.573 561.3,741.24C563.973,755.687 567.529,770.116 569.803,783.124C570.441,786.775 571.072,790.297 571.352,793.671C572.913,812.479 571.986,825.583 571.986,825.583C572.784,831.737 578.392,836.08 584.501,835.276C590.61,834.472 594.922,828.823 594.124,822.669C594.124,822.669 589.884,810.245 586.595,791.664C586.005,788.331 585.716,784.765 585.401,781.07C584.28,767.911 584.036,753.046 582.934,738.392C582.348,730.615 581.582,722.942 580.824,715.633C579.867,706.418 578.972,697.799 577.928,690.417C575.797,675.346 573.717,665.374 573.717,665.374C572.919,659.221 567.311,654.877 561.201,655.682C555.092,656.486 550.781,662.135 551.579,668.289Z" style="fill:rgb(253,227,186);"/>
            </g>
            <g transform="matrix(0.972057,0,0,0.803141,372.813,-68.546)">
                <path d="M533.994,682.042C533.994,682.042 536.25,691.305 540.576,704.873C542.694,711.518 545.458,719.135 548.415,727.279C550.761,733.739 553.249,740.507 555.945,747.284C561.027,760.061 566.963,772.623 571.408,784.154C572.655,787.389 573.873,790.506 574.722,793.557C579.464,810.595 580.783,822.825 580.783,822.825C582.739,828.711 589.07,831.889 594.912,829.919C600.755,827.949 603.91,821.571 601.954,815.686C601.954,815.686 595.696,805.121 589.299,788.641C588.154,785.69 587.263,782.463 586.325,779.123C582.982,767.22 580.213,753.591 576.634,740.308C574.736,733.261 572.678,726.348 570.689,719.767C568.182,711.472 565.836,703.713 563.556,697.123C558.9,683.667 555.165,674.903 555.165,674.903C553.209,669.018 546.878,665.839 541.036,667.81C535.194,669.78 532.038,676.157 533.994,682.042Z" style="fill:rgb(253,227,186);"/>
            </g>
            <g transform="matrix(0.972057,0,0,0.803141,380.706,269.673)">
                <path d="M557.197,644.841C557.197,644.841 560.673,655.709 563.787,672.591C564.432,676.09 564.847,679.877 565.278,683.851C566.747,697.411 567.06,713.281 569.102,729.186C569.682,733.701 570.581,738.174 571.426,742.623C573.496,753.522 576.115,764.019 577.887,773.831C578.589,777.713 579.26,781.46 579.623,785.056C581.732,805.98 581.316,820.655 581.316,820.655C582.082,826.244 587.209,830.154 592.757,829.382C598.306,828.61 602.188,823.445 601.421,817.856C601.421,817.856 597.07,803.845 593.467,783.129C592.847,779.569 592.485,775.778 592.115,771.851C591.18,761.922 590.874,751.103 589.932,740.047C589.548,735.534 589.209,730.983 588.552,726.479C586.236,710.612 582.264,695.251 580.027,681.798C579.372,677.856 578.752,674.096 578.431,670.553C576.883,653.453 577.303,642.043 577.303,642.043C576.536,636.454 571.409,632.544 565.861,633.316C560.313,634.088 556.431,639.253 557.197,644.841Z" style="fill:rgb(253,227,186);"/>
            </g>
            <g transform="matrix(0.972057,0,0,0.803141,905.442,221.157)">
                <path d="M516.156,813.315C516.156,813.315 522.085,816.695 531.396,820.855C535.95,822.89 541.364,824.957 547.153,827.165C551.75,828.919 556.575,830.727 561.529,832.379C570.905,835.507 580.559,837.801 588.943,840.737C591.283,841.556 593.551,842.336 595.569,843.366C606.977,849.19 613.729,854.91 613.729,854.91C619.403,857.329 625.959,854.652 628.36,848.937C630.761,843.222 628.104,836.618 622.43,834.199C622.43,834.199 613.654,833.299 601.561,829.105C599.422,828.363 597.286,827.266 595.073,826.144C587.144,822.125 578.788,816.742 570.032,812.14C565.406,809.708 560.758,807.479 556.307,805.375C550.704,802.727 545.461,800.251 540.841,798.374C531.394,794.538 524.857,792.604 524.857,792.604C519.183,790.185 512.628,792.862 510.226,798.577C507.825,804.292 510.482,810.896 516.156,813.315Z" style="fill:rgb(253,227,186);"/>
            </g>
            <g transform="matrix(28.4634,0,0,23.6893,-17597,-42885.8)">
                <g transform="matrix(40.8143,0,0,40.8143,650.109,1861.34)">
                    <path d="M0.033,-0.22C0.033,-0.219 0.034,-0.214 0.034,-0.213C0.034,-0.212 0.035,-0.208 0.035,-0.207C0.035,-0.206 0.036,-0.197 0.036,-0.196L0.038,-0.177C0.038,-0.176 0.04,-0.17 0.04,-0.169C0.04,-0.167 0.043,-0.147 0.043,-0.145C0.043,-0.144 0.044,-0.14 0.044,-0.139C0.044,-0.139 0.046,-0.126 0.046,-0.125C0.046,-0.124 0.048,-0.117 0.048,-0.116C0.048,-0.115 0.049,-0.111 0.049,-0.11C0.049,-0.108 0.052,-0.098 0.052,-0.096C0.052,-0.095 0.053,-0.093 0.053,-0.092C0.053,-0.092 0.057,-0.084 0.057,-0.079C0.057,-0.078 0.058,-0.074 0.058,-0.073C0.058,-0.073 0.059,-0.07 0.059,-0.069C0.059,-0.068 0.06,-0.065 0.06,-0.065C0.06,-0.064 0.064,-0.057 0.064,-0.057L0.066,-0.052C0.066,-0.051 0.07,-0.043 0.071,-0.041C0.072,-0.039 0.075,-0.035 0.075,-0.033C0.076,-0.031 0.08,-0.025 0.08,-0.025L0.098,-0.011C0.099,-0.01 0.103,-0.008 0.104,-0.008C0.104,-0.008 0.108,-0.007 0.109,-0.007L0.136,-0.002C0.137,-0.002 0.146,-0.001 0.149,-0.001L0.154,-0.001C0.16,-0.001 0.162,-0.002 0.165,-0.002L0.169,-0.002C0.171,-0.002 0.177,-0.004 0.179,-0.004C0.179,-0.004 0.184,-0.005 0.186,-0.006C0.19,-0.007 0.194,-0.01 0.198,-0.01L0.211,-0.017C0.212,-0.017 0.219,-0.022 0.221,-0.023C0.222,-0.024 0.226,-0.026 0.226,-0.026L0.235,-0.035C0.235,-0.035 0.238,-0.039 0.239,-0.04C0.24,-0.043 0.243,-0.045 0.243,-0.048C0.244,-0.05 0.246,-0.055 0.246,-0.055L0.246,-0.06C0.246,-0.06 0.244,-0.062 0.243,-0.063C0.243,-0.063 0.241,-0.064 0.24,-0.064C0.238,-0.064 0.238,-0.063 0.237,-0.063C0.236,-0.063 0.232,-0.059 0.231,-0.058L0.224,-0.052L0.22,-0.048L0.202,-0.033C0.201,-0.033 0.195,-0.029 0.193,-0.028C0.192,-0.028 0.189,-0.026 0.189,-0.026C0.188,-0.025 0.182,-0.024 0.181,-0.024C0.179,-0.024 0.167,-0.022 0.165,-0.022C0.164,-0.022 0.161,-0.021 0.16,-0.021L0.143,-0.021C0.142,-0.021 0.14,-0.022 0.139,-0.022L0.126,-0.028L0.117,-0.038C0.117,-0.038 0.113,-0.043 0.112,-0.045L0.11,-0.05C0.108,-0.056 0.104,-0.071 0.104,-0.072C0.104,-0.073 0.102,-0.079 0.102,-0.08L0.101,-0.084C0.099,-0.092 0.094,-0.115 0.094,-0.116C0.094,-0.117 0.093,-0.127 0.093,-0.128C0.093,-0.128 0.092,-0.133 0.092,-0.134C0.092,-0.134 0.091,-0.138 0.091,-0.139C0.09,-0.144 0.088,-0.16 0.088,-0.161L0.085,-0.194C0.085,-0.195 0.084,-0.2 0.084,-0.201C0.084,-0.203 0.083,-0.218 0.083,-0.22C0.083,-0.22 0.082,-0.224 0.082,-0.225C0.082,-0.228 0.08,-0.247 0.08,-0.25C0.08,-0.251 0.078,-0.255 0.078,-0.256C0.078,-0.259 0.079,-0.269 0.079,-0.272L0.079,-0.394C0.079,-0.396 0.081,-0.434 0.082,-0.448C0.082,-0.449 0.083,-0.457 0.083,-0.458C0.083,-0.464 0.085,-0.507 0.085,-0.513C0.085,-0.514 0.086,-0.519 0.086,-0.521L0.089,-0.54C0.089,-0.541 0.092,-0.549 0.092,-0.55C0.093,-0.552 0.095,-0.561 0.095,-0.562C0.095,-0.563 0.096,-0.567 0.096,-0.568L0.102,-0.597C0.102,-0.599 0.103,-0.602 0.104,-0.604C0.105,-0.608 0.109,-0.618 0.109,-0.619C0.109,-0.62 0.112,-0.625 0.113,-0.627C0.113,-0.627 0.115,-0.63 0.116,-0.631C0.116,-0.632 0.118,-0.634 0.118,-0.634L0.125,-0.644C0.126,-0.644 0.129,-0.647 0.13,-0.648C0.13,-0.648 0.133,-0.651 0.134,-0.651L0.142,-0.657L0.155,-0.663C0.155,-0.663 0.159,-0.665 0.16,-0.665C0.161,-0.666 0.166,-0.667 0.166,-0.667C0.167,-0.667 0.172,-0.668 0.172,-0.668C0.173,-0.668 0.177,-0.669 0.178,-0.669L0.194,-0.669C0.195,-0.669 0.199,-0.668 0.2,-0.668C0.201,-0.668 0.205,-0.667 0.206,-0.667C0.207,-0.667 0.211,-0.665 0.212,-0.665C0.213,-0.665 0.217,-0.662 0.218,-0.662C0.219,-0.662 0.223,-0.658 0.224,-0.658C0.225,-0.658 0.227,-0.656 0.227,-0.656C0.228,-0.655 0.23,-0.655 0.231,-0.655C0.235,-0.655 0.235,-0.657 0.237,-0.657C0.238,-0.657 0.239,-0.66 0.239,-0.66L0.239,-0.668C0.239,-0.668 0.237,-0.672 0.236,-0.674C0.236,-0.675 0.234,-0.677 0.234,-0.677C0.232,-0.678 0.225,-0.685 0.224,-0.686C0.223,-0.686 0.217,-0.69 0.215,-0.691C0.214,-0.691 0.21,-0.693 0.209,-0.693C0.205,-0.693 0.201,-0.694 0.197,-0.695C0.196,-0.695 0.191,-0.696 0.191,-0.696L0.188,-0.696C0.188,-0.696 0.184,-0.697 0.183,-0.697C0.182,-0.697 0.175,-0.699 0.174,-0.699L0.165,-0.699C0.164,-0.699 0.157,-0.698 0.156,-0.698C0.155,-0.698 0.149,-0.696 0.148,-0.696L0.143,-0.695C0.14,-0.694 0.133,-0.693 0.132,-0.693C0.131,-0.693 0.128,-0.691 0.127,-0.691L0.114,-0.684C0.114,-0.684 0.11,-0.682 0.109,-0.681L0.106,-0.679C0.105,-0.678 0.103,-0.677 0.103,-0.677L0.09,-0.664C0.09,-0.664 0.087,-0.658 0.085,-0.656C0.085,-0.655 0.082,-0.652 0.082,-0.651L0.076,-0.641C0.075,-0.64 0.071,-0.633 0.071,-0.632C0.07,-0.631 0.068,-0.628 0.068,-0.627C0.068,-0.627 0.064,-0.617 0.063,-0.613C0.062,-0.607 0.06,-0.597 0.057,-0.591L0.056,-0.588C0.056,-0.587 0.054,-0.58 0.054,-0.579C0.054,-0.579 0.052,-0.569 0.052,-0.568L0.051,-0.563C0.05,-0.562 0.046,-0.545 0.045,-0.543C0.045,-0.542 0.044,-0.539 0.044,-0.539C0.044,-0.538 0.043,-0.534 0.043,-0.533C0.043,-0.532 0.041,-0.528 0.041,-0.527C0.041,-0.525 0.037,-0.505 0.036,-0.498C0.036,-0.497 0.035,-0.494 0.035,-0.493C0.035,-0.492 0.034,-0.485 0.034,-0.484C0.034,-0.483 0.033,-0.48 0.033,-0.479C0.033,-0.477 0.032,-0.471 0.032,-0.47C0.032,-0.466 0.031,-0.456 0.031,-0.455L0.031,-0.407C0.031,-0.405 0.03,-0.396 0.03,-0.394L0.03,-0.322C0.03,-0.32 0.031,-0.306 0.031,-0.304L0.031,-0.272C0.031,-0.265 0.033,-0.227 0.033,-0.22Z" style="fill:rgb(249,167,31);fill-rule:nonzero;"/>
                </g>
                <g transform="matrix(40.8143,0,0,40.8143,660.802,1861.34)">
                    <path d="M0.224,-0.187L0.25,-0.187C0.251,-0.187 0.255,-0.186 0.256,-0.186L0.259,-0.186C0.259,-0.186 0.26,-0.184 0.26,-0.183C0.26,-0.182 0.261,-0.173 0.261,-0.172C0.262,-0.17 0.264,-0.159 0.264,-0.158C0.264,-0.156 0.268,-0.145 0.268,-0.143C0.268,-0.142 0.269,-0.139 0.269,-0.138C0.269,-0.136 0.272,-0.124 0.272,-0.122C0.272,-0.122 0.274,-0.112 0.274,-0.111L0.286,-0.062C0.286,-0.061 0.29,-0.05 0.29,-0.049C0.29,-0.048 0.291,-0.041 0.291,-0.041L0.292,-0.036C0.292,-0.035 0.294,-0.025 0.294,-0.024C0.294,-0.024 0.295,-0.017 0.295,-0.016C0.295,-0.016 0.296,-0.014 0.296,-0.013C0.296,-0.012 0.298,-0.008 0.299,-0.007C0.299,-0.005 0.302,-0.003 0.303,-0.002C0.303,-0.002 0.306,-0.001 0.307,-0.001L0.312,-0.001C0.314,-0.002 0.316,-0.002 0.318,-0.004C0.319,-0.006 0.32,-0.006 0.32,-0.007L0.32,-0.025C0.317,-0.035 0.317,-0.044 0.315,-0.054C0.315,-0.056 0.312,-0.072 0.312,-0.073C0.312,-0.074 0.311,-0.08 0.311,-0.081C0.311,-0.081 0.31,-0.088 0.309,-0.09C0.309,-0.09 0.308,-0.092 0.308,-0.093C0.308,-0.094 0.306,-0.099 0.306,-0.1C0.306,-0.101 0.303,-0.113 0.303,-0.114C0.303,-0.115 0.301,-0.121 0.301,-0.122C0.301,-0.122 0.298,-0.133 0.298,-0.134L0.297,-0.138C0.297,-0.139 0.296,-0.142 0.296,-0.143C0.296,-0.144 0.295,-0.156 0.295,-0.157L0.288,-0.198C0.288,-0.2 0.283,-0.22 0.283,-0.221C0.283,-0.222 0.282,-0.227 0.282,-0.228C0.282,-0.23 0.279,-0.243 0.279,-0.245C0.279,-0.246 0.278,-0.253 0.278,-0.254C0.278,-0.26 0.277,-0.267 0.276,-0.272C0.276,-0.274 0.274,-0.283 0.274,-0.285C0.274,-0.286 0.273,-0.292 0.273,-0.293C0.273,-0.296 0.27,-0.307 0.27,-0.31C0.27,-0.312 0.266,-0.328 0.266,-0.33C0.266,-0.332 0.264,-0.346 0.263,-0.35C0.263,-0.351 0.261,-0.364 0.261,-0.366L0.261,-0.371C0.261,-0.373 0.257,-0.388 0.257,-0.39C0.255,-0.398 0.255,-0.406 0.253,-0.414L0.248,-0.438L0.247,-0.442C0.245,-0.451 0.24,-0.475 0.24,-0.476C0.24,-0.478 0.237,-0.492 0.237,-0.494C0.237,-0.495 0.235,-0.501 0.235,-0.502C0.235,-0.503 0.234,-0.507 0.234,-0.507C0.234,-0.509 0.231,-0.528 0.231,-0.53L0.22,-0.586L0.213,-0.612C0.213,-0.613 0.211,-0.623 0.211,-0.624C0.211,-0.626 0.207,-0.643 0.207,-0.644C0.207,-0.645 0.206,-0.648 0.206,-0.649L0.2,-0.682C0.2,-0.683 0.199,-0.686 0.199,-0.686C0.199,-0.687 0.196,-0.691 0.196,-0.692C0.195,-0.693 0.192,-0.695 0.192,-0.696C0.192,-0.696 0.19,-0.697 0.189,-0.697C0.188,-0.697 0.182,-0.698 0.181,-0.698L0.177,-0.698C0.172,-0.698 0.169,-0.697 0.167,-0.696L0.164,-0.694C0.162,-0.691 0.16,-0.684 0.16,-0.681C0.16,-0.679 0.158,-0.662 0.158,-0.66C0.158,-0.66 0.157,-0.657 0.157,-0.656C0.157,-0.654 0.153,-0.643 0.153,-0.641C0.153,-0.64 0.151,-0.633 0.151,-0.631C0.151,-0.63 0.149,-0.621 0.149,-0.62C0.149,-0.619 0.146,-0.607 0.146,-0.606C0.146,-0.605 0.145,-0.6 0.145,-0.599C0.144,-0.592 0.143,-0.585 0.141,-0.578C0.141,-0.577 0.14,-0.572 0.14,-0.571C0.14,-0.57 0.139,-0.568 0.139,-0.567C0.139,-0.565 0.137,-0.56 0.137,-0.559C0.137,-0.558 0.136,-0.554 0.136,-0.553C0.136,-0.552 0.135,-0.549 0.135,-0.548C0.135,-0.546 0.13,-0.53 0.13,-0.528C0.13,-0.527 0.129,-0.521 0.129,-0.52C0.129,-0.52 0.128,-0.516 0.128,-0.515L0.127,-0.512C0.126,-0.506 0.123,-0.491 0.123,-0.489C0.123,-0.488 0.122,-0.482 0.122,-0.481C0.122,-0.481 0.121,-0.477 0.121,-0.476L0.115,-0.452C0.114,-0.45 0.112,-0.437 0.111,-0.433C0.111,-0.432 0.107,-0.414 0.107,-0.412C0.107,-0.411 0.106,-0.403 0.106,-0.402C0.106,-0.401 0.105,-0.398 0.105,-0.397C0.105,-0.395 0.103,-0.388 0.103,-0.387L0.102,-0.384C0.102,-0.383 0.101,-0.379 0.101,-0.378C0.101,-0.377 0.1,-0.374 0.1,-0.373C0.1,-0.372 0.097,-0.362 0.097,-0.361C0.097,-0.36 0.096,-0.356 0.096,-0.355C0.096,-0.354 0.094,-0.348 0.094,-0.347C0.094,-0.345 0.092,-0.337 0.092,-0.336C0.092,-0.334 0.089,-0.318 0.089,-0.317L0.089,-0.311C0.089,-0.309 0.085,-0.294 0.085,-0.292L0.08,-0.265C0.08,-0.264 0.078,-0.253 0.078,-0.252C0.078,-0.25 0.076,-0.241 0.076,-0.24C0.076,-0.238 0.072,-0.219 0.072,-0.217C0.072,-0.216 0.07,-0.206 0.07,-0.205C0.07,-0.204 0.068,-0.197 0.068,-0.196L0.059,-0.162C0.059,-0.16 0.055,-0.146 0.055,-0.144L0.055,-0.14C0.055,-0.139 0.053,-0.132 0.053,-0.131C0.053,-0.13 0.052,-0.123 0.052,-0.122C0.052,-0.121 0.051,-0.116 0.051,-0.116L0.042,-0.085C0.042,-0.083 0.04,-0.078 0.04,-0.077C0.04,-0.075 0.038,-0.063 0.038,-0.061C0.038,-0.06 0.036,-0.054 0.036,-0.053C0.036,-0.051 0.032,-0.033 0.032,-0.031L0.031,-0.026C0.031,-0.024 0.03,-0.021 0.03,-0.021L0.03,-0.011C0.031,-0.01 0.032,-0.007 0.034,-0.007C0.035,-0.006 0.04,-0.004 0.041,-0.004L0.056,-0.004C0.058,-0.004 0.068,-0.006 0.07,-0.006C0.071,-0.006 0.074,-0.008 0.075,-0.008C0.075,-0.008 0.078,-0.009 0.078,-0.01C0.078,-0.01 0.08,-0.013 0.08,-0.014C0.08,-0.014 0.081,-0.017 0.081,-0.018L0.082,-0.023L0.083,-0.026C0.083,-0.027 0.084,-0.03 0.084,-0.031C0.084,-0.032 0.086,-0.043 0.086,-0.044C0.086,-0.045 0.087,-0.05 0.088,-0.052C0.088,-0.054 0.092,-0.067 0.092,-0.069L0.093,-0.073C0.093,-0.076 0.096,-0.088 0.096,-0.09C0.096,-0.091 0.097,-0.096 0.097,-0.097L0.101,-0.111C0.101,-0.113 0.103,-0.12 0.103,-0.121C0.103,-0.122 0.106,-0.141 0.106,-0.143C0.106,-0.144 0.109,-0.156 0.109,-0.157C0.109,-0.158 0.11,-0.162 0.11,-0.163C0.11,-0.164 0.111,-0.17 0.111,-0.171C0.111,-0.173 0.113,-0.181 0.113,-0.182C0.113,-0.182 0.114,-0.184 0.115,-0.185L0.133,-0.185C0.134,-0.185 0.143,-0.184 0.144,-0.184C0.148,-0.184 0.16,-0.183 0.162,-0.183L0.175,-0.183C0.176,-0.183 0.183,-0.184 0.185,-0.184C0.186,-0.184 0.189,-0.185 0.19,-0.185C0.192,-0.185 0.211,-0.186 0.214,-0.186C0.215,-0.186 0.223,-0.187 0.224,-0.187ZM0.123,-0.212C0.122,-0.212 0.12,-0.212 0.12,-0.213L0.12,-0.217L0.124,-0.24C0.124,-0.241 0.126,-0.246 0.126,-0.247L0.132,-0.272C0.132,-0.273 0.134,-0.278 0.134,-0.279C0.134,-0.281 0.136,-0.287 0.136,-0.288C0.136,-0.289 0.137,-0.296 0.137,-0.297C0.138,-0.302 0.141,-0.325 0.141,-0.33L0.142,-0.334C0.143,-0.337 0.144,-0.345 0.144,-0.345C0.144,-0.347 0.146,-0.359 0.146,-0.361C0.146,-0.363 0.148,-0.371 0.148,-0.373C0.148,-0.374 0.15,-0.382 0.15,-0.383C0.15,-0.383 0.151,-0.387 0.151,-0.388C0.151,-0.389 0.152,-0.394 0.152,-0.395L0.158,-0.422C0.158,-0.429 0.159,-0.436 0.16,-0.443L0.173,-0.503C0.173,-0.504 0.175,-0.514 0.175,-0.514C0.175,-0.515 0.177,-0.528 0.177,-0.529C0.177,-0.53 0.178,-0.534 0.178,-0.534C0.178,-0.535 0.179,-0.547 0.179,-0.548L0.183,-0.582C0.183,-0.583 0.184,-0.595 0.184,-0.596C0.184,-0.598 0.186,-0.609 0.186,-0.611C0.186,-0.611 0.189,-0.602 0.189,-0.597L0.194,-0.573L0.201,-0.535C0.201,-0.53 0.203,-0.525 0.203,-0.521C0.203,-0.515 0.206,-0.502 0.206,-0.5L0.206,-0.496C0.206,-0.495 0.207,-0.491 0.207,-0.49C0.207,-0.489 0.208,-0.484 0.208,-0.483C0.208,-0.482 0.209,-0.479 0.209,-0.478C0.209,-0.476 0.21,-0.469 0.21,-0.468L0.211,-0.465C0.212,-0.462 0.214,-0.451 0.214,-0.449C0.214,-0.448 0.215,-0.443 0.215,-0.442L0.216,-0.438C0.216,-0.436 0.219,-0.424 0.219,-0.422C0.219,-0.421 0.22,-0.418 0.22,-0.417C0.22,-0.416 0.222,-0.41 0.222,-0.409C0.222,-0.408 0.223,-0.405 0.223,-0.404C0.223,-0.403 0.225,-0.395 0.225,-0.394C0.225,-0.393 0.227,-0.386 0.227,-0.385C0.227,-0.383 0.228,-0.377 0.228,-0.376C0.228,-0.375 0.229,-0.371 0.229,-0.37C0.229,-0.369 0.23,-0.367 0.23,-0.366C0.23,-0.365 0.232,-0.358 0.232,-0.357L0.238,-0.325C0.238,-0.323 0.241,-0.305 0.241,-0.303C0.241,-0.302 0.242,-0.299 0.242,-0.298C0.242,-0.297 0.244,-0.285 0.244,-0.284C0.244,-0.282 0.248,-0.264 0.248,-0.262C0.248,-0.261 0.25,-0.254 0.25,-0.253C0.25,-0.252 0.252,-0.245 0.252,-0.244C0.252,-0.243 0.253,-0.24 0.253,-0.239C0.253,-0.238 0.254,-0.234 0.254,-0.234C0.254,-0.232 0.255,-0.222 0.255,-0.22L0.255,-0.215C0.253,-0.215 0.244,-0.214 0.242,-0.214C0.24,-0.214 0.226,-0.212 0.224,-0.212C0.221,-0.212 0.209,-0.211 0.207,-0.211L0.141,-0.211C0.139,-0.211 0.125,-0.212 0.123,-0.212Z" style="fill:rgb(249,167,31);fill-rule:nonzero;"/>
                </g>
            </g>
            <g transform="matrix(27.4548,0,0,22.8499,-17820.4,-40459.7)">
                <path d="M661.51,1861.08C661.555,1861.12 661.732,1861.21 661.776,1861.21C661.776,1861.21 661.865,1861.25 661.91,1861.25L662.131,1861.25C662.309,1861.25 662.353,1861.21 662.398,1861.21L662.398,1861.08L662.22,1860.28L662.176,1860.14C662.176,1860.1 661.998,1859.48 661.998,1859.39C661.998,1859.35 661.821,1858.94 661.821,1858.9C661.821,1858.9 661.776,1858.72 661.776,1858.68C661.776,1858.59 661.732,1858.19 661.732,1858.15C661.732,1858.06 661.599,1857.17 661.599,1857.08C661.599,1856.99 661.51,1856.46 661.466,1856.28C661.466,1856.19 661.377,1855.93 661.377,1855.88C661.377,1855.84 661.244,1855.49 661.244,1855.44L661.244,1855.26C661.244,1855.22 661.2,1855.04 661.2,1855L661.155,1854.78C661.155,1854.69 661.067,1854.38 661.067,1854.33C661.067,1854.29 661.022,1854.07 661.022,1854.07C661.022,1854.02 660.978,1853.76 660.978,1853.71C660.978,1853.67 660.889,1853.4 660.889,1853.31C660.889,1853.27 660.8,1853.05 660.8,1853C660.8,1852.96 660.712,1852.47 660.712,1852.42L660.667,1852.25C660.667,1852.2 660.623,1852.07 660.623,1852.07L660.401,1850.83C660.401,1850.78 660.357,1850.56 660.357,1850.56C660.357,1850.52 660.268,1850.16 660.268,1850.07L660.224,1849.89C660.224,1849.85 660.179,1849.32 660.179,1849.27L659.958,1848.25C659.913,1848.12 659.691,1847.06 659.647,1846.97C659.647,1846.88 659.558,1846.52 659.514,1846.43L659.47,1846.21L659.248,1845.41C659.248,1845.37 659.203,1845.15 659.203,1845.1C659.159,1845.06 659.115,1844.79 659.115,1844.79C659.115,1844.7 658.982,1844.04 658.982,1844C658.982,1843.95 658.893,1843.6 658.893,1843.55C658.893,1843.55 658.848,1843.37 658.848,1843.33C658.848,1843.24 658.715,1842.75 658.715,1842.66L658.36,1841.07C658.36,1841.02 658.227,1840.62 658.227,1840.53C658.227,1840.53 658.183,1840.31 658.183,1840.27C658.183,1840.22 658.094,1840.05 658.094,1840C658.094,1840 658.05,1839.91 658.05,1839.87C658.006,1839.69 657.872,1839.16 657.872,1839.12C657.872,1838.98 657.917,1838.98 657.917,1838.94C657.917,1838.94 658.006,1838.85 658.05,1838.8C658.094,1838.76 658.183,1838.63 658.227,1838.63C658.272,1838.63 658.494,1838.49 658.538,1838.49L658.76,1838.32C658.982,1838.14 659.203,1837.96 659.336,1837.74C659.47,1837.56 659.558,1837.38 659.647,1837.16L659.869,1836.28C659.869,1836.23 659.913,1836.01 659.913,1835.97C659.913,1835.92 660.046,1835.52 660.046,1835.52C660.046,1835.48 660.091,1835.21 660.091,1835.17L660.091,1834.59C660.091,1834.5 660.046,1834.06 660.046,1833.97C660.046,1833.97 660.002,1833.75 660.002,1833.66C660.002,1833.61 659.958,1833.44 659.958,1833.44C659.958,1833.39 659.869,1833.13 659.869,1833.04C659.869,1832.99 659.824,1832.9 659.824,1832.9C659.824,1832.86 659.78,1832.77 659.78,1832.77C659.736,1832.64 659.47,1832.06 659.381,1831.97C659.381,1831.93 659.292,1831.84 659.292,1831.84C659.248,1831.75 658.893,1831.44 658.804,1831.35L658.449,1831C658.405,1831 658.139,1830.86 658.094,1830.82C658.05,1830.82 657.917,1830.68 657.872,1830.68L657.207,1830.42C657.163,1830.38 656.896,1830.29 656.852,1830.29C656.719,1830.29 656.675,1830.33 656.63,1830.33C656.586,1830.33 656.231,1830.38 656.142,1830.38C656.054,1830.38 655.477,1830.42 655.344,1830.42C655.211,1830.42 654.146,1830.46 654.057,1830.46C654.013,1830.46 653.614,1830.51 653.569,1830.51L652.549,1830.51C652.416,1830.51 652.061,1830.55 652.016,1830.55C652.016,1830.55 651.928,1830.6 651.883,1830.6L651.75,1830.68L651.662,1830.82C651.617,1830.86 651.573,1831 651.573,1831L651.573,1831.39C651.573,1831.44 651.617,1831.62 651.617,1831.66L651.617,1832.59C651.617,1832.86 651.528,1834.99 651.528,1835.26L651.528,1838.63C651.528,1838.8 651.484,1840 651.484,1840.18L651.484,1840.4C651.484,1840.67 651.528,1840.8 651.528,1840.93L651.528,1848.74C651.44,1849.36 651.44,1849.98 651.44,1850.56L651.44,1851.05C651.44,1851.18 651.484,1851.85 651.484,1852.03C651.484,1852.07 651.528,1852.29 651.528,1852.34L651.528,1853.09C651.528,1853.13 651.484,1853.58 651.484,1853.62L651.484,1853.98C651.484,1854.11 651.573,1855 651.573,1855.13L651.573,1860.5C651.573,1860.5 651.617,1860.59 651.617,1860.63C651.617,1860.67 651.662,1860.76 651.662,1860.76C651.662,1860.81 651.795,1860.9 651.839,1860.94C651.839,1860.94 651.972,1861.03 652.016,1861.03C652.016,1861.03 652.194,1861.08 652.283,1861.08C652.327,1861.08 652.638,1861.12 652.726,1861.12L652.992,1861.12C653.081,1861.03 653.17,1861.03 653.259,1860.94C653.303,1860.81 653.392,1860.81 653.392,1860.72C653.392,1860.67 653.436,1860.59 653.436,1860.59L653.436,1860.41C653.436,1860.37 653.392,1860.19 653.392,1860.14L653.392,1855.57C653.392,1855.53 653.436,1855.17 653.436,1855.09L653.436,1854.69C653.436,1854.64 653.392,1854.38 653.392,1854.33C653.392,1854.24 653.347,1853.93 653.347,1853.84C653.347,1853.8 653.303,1853.31 653.303,1853.18C653.303,1853.13 653.259,1851.94 653.259,1851.36L653.259,1848.92C653.259,1848.74 653.303,1847.81 653.303,1847.59C653.303,1847.54 653.347,1847.28 653.347,1847.23C653.347,1846.97 653.392,1845.55 653.392,1845.28L653.392,1841.24C653.392,1841.11 653.347,1840.05 653.347,1839.96L653.347,1839.6C653.436,1839.6 653.924,1839.56 654.013,1839.56C654.057,1839.56 654.412,1839.51 654.456,1839.51L655.033,1839.51C655.078,1839.51 655.388,1839.47 655.432,1839.47C655.521,1839.47 655.92,1839.42 656.098,1839.38C656.142,1839.38 656.453,1839.29 656.497,1839.29L656.675,1839.29C656.675,1839.38 656.808,1839.69 656.808,1839.78C656.808,1839.87 656.985,1840.53 656.985,1840.58L657.03,1840.76C657.03,1840.85 657.163,1841.6 657.163,1841.69L657.207,1841.91C657.207,1842 657.34,1842.53 657.34,1842.62C657.34,1842.66 657.429,1843.02 657.429,1843.02C657.429,1843.06 657.518,1843.46 657.518,1843.51C657.562,1843.64 657.695,1844.22 657.695,1844.31C657.695,1844.35 657.739,1844.57 657.739,1844.62C657.739,1844.66 657.872,1845.19 657.872,1845.24C657.872,1845.24 657.917,1845.37 657.917,1845.41L658.183,1846.3L658.183,1846.48C658.183,1846.52 658.272,1846.7 658.272,1846.75C658.272,1846.79 658.316,1846.92 658.316,1846.92C658.316,1846.97 658.405,1847.28 658.405,1847.32L658.627,1848.12C658.627,1848.16 658.715,1848.34 658.715,1848.39C658.715,1848.43 658.76,1848.61 658.76,1848.65C658.848,1848.96 659.07,1849.72 659.07,1849.81C659.07,1849.85 659.159,1850.29 659.159,1850.34C659.159,1850.34 659.203,1850.61 659.203,1850.69L659.248,1850.87C659.248,1850.91 659.292,1851.05 659.292,1851.09C659.292,1851.18 659.514,1851.89 659.514,1851.98C659.603,1852.25 659.603,1852.56 659.647,1852.82L659.691,1853C659.691,1853.05 659.736,1853.36 659.736,1853.4C659.736,1853.44 659.869,1853.84 659.869,1853.89C659.869,1853.93 659.958,1854.38 659.958,1854.42C659.958,1854.47 660.091,1854.95 660.091,1855C660.091,1855.09 660.224,1855.66 660.224,1855.75C660.224,1855.8 660.268,1856.15 660.268,1856.19C660.268,1856.24 660.312,1856.59 660.312,1856.64C660.312,1856.73 660.357,1857.04 660.357,1857.04C660.357,1857.08 660.579,1857.97 660.667,1858.28L660.712,1858.46C660.712,1858.5 660.756,1858.9 660.756,1858.94C660.756,1858.99 660.8,1859.08 660.8,1859.12C660.845,1859.21 660.934,1859.57 660.934,1859.61C660.934,1859.65 661.022,1859.97 661.067,1860.05C661.111,1860.1 661.2,1860.41 661.2,1860.41L661.51,1861.08ZM653.347,1834.94C653.347,1834.63 653.259,1832.37 653.259,1832.06L653.259,1831.26C653.303,1831.17 654.368,1831.09 654.811,1831.04C654.9,1831.04 655.566,1831 655.654,1831L656.675,1831C656.852,1831 656.896,1831.04 656.941,1831.04L657.429,1831.31C657.473,1831.31 657.562,1831.39 657.562,1831.39L658.05,1831.88L658.405,1832.37L658.76,1833.08C658.76,1833.13 658.848,1833.35 658.848,1833.44C658.893,1833.53 658.937,1833.97 658.937,1834.01L658.937,1835.21C658.937,1835.3 658.76,1835.97 658.715,1836.19C658.715,1836.32 658.582,1836.81 658.538,1836.9L658.36,1837.21C658.36,1837.21 658.183,1837.38 658.139,1837.47C658.006,1837.56 657.651,1837.92 657.606,1837.96L657.251,1838.18C657.251,1838.18 657.163,1838.27 657.118,1838.27C657.074,1838.27 656.896,1838.36 656.852,1838.36C656.808,1838.36 656.719,1838.4 656.675,1838.4C656.63,1838.4 656.187,1838.49 656.098,1838.54C656.009,1838.54 655.654,1838.58 655.654,1838.58C655.61,1838.58 655.388,1838.63 655.344,1838.63C655.299,1838.63 655.078,1838.72 655.033,1838.72C654.856,1838.76 654.323,1838.85 654.235,1838.85L653.791,1838.85C653.747,1838.85 653.658,1838.8 653.614,1838.8C653.525,1838.72 653.436,1838.67 653.392,1838.67C653.392,1838.67 653.347,1838.63 653.347,1834.94Z" style="fill:rgb(34,82,113);fill-rule:nonzero;stroke:rgb(136,236,233);stroke-width:0.04px;"/>
                <path d="M663.862,1851.23C663.862,1851.32 663.906,1851.67 663.906,1851.76C663.906,1851.85 664.039,1852.65 664.039,1852.73C664.039,1852.73 664.083,1852.96 664.083,1853L664.128,1853.13C664.128,1853.18 664.261,1853.31 664.261,1853.36C664.261,1853.36 664.305,1853.44 664.305,1853.49C664.305,1853.53 664.35,1853.62 664.35,1853.67C664.35,1853.71 664.394,1853.84 664.394,1853.89C664.394,1853.93 664.483,1854.29 664.483,1854.33L664.527,1854.51C664.527,1854.6 664.616,1854.82 664.616,1854.86C664.616,1854.91 664.749,1855.22 664.793,1855.31C664.838,1855.4 664.971,1855.66 664.971,1855.71L665.281,1856.42L665.37,1856.64C665.414,1856.64 665.592,1857.08 665.636,1857.13C665.636,1857.17 665.725,1857.39 665.725,1857.44C665.725,1857.48 665.902,1857.79 665.902,1857.84C665.902,1857.88 666.035,1858.15 666.035,1858.19C666.035,1858.24 666.124,1858.37 666.168,1858.41L666.39,1858.86C666.39,1858.86 666.568,1859.03 666.568,1859.08C666.568,1859.12 666.701,1859.35 666.745,1859.39C666.79,1859.39 666.967,1859.88 667.011,1859.92C667.011,1859.92 667.1,1860.01 667.144,1860.05C667.278,1860.14 667.278,1860.19 667.322,1860.19L667.588,1860.45C667.588,1860.45 667.721,1860.5 667.766,1860.54C667.81,1860.54 667.899,1860.63 667.899,1860.63L668.387,1860.9L668.52,1860.99C668.52,1860.99 668.697,1861.08 668.742,1861.08C668.742,1861.08 668.83,1861.12 668.875,1861.12C668.919,1861.12 669.23,1861.21 669.318,1861.25C669.363,1861.25 669.496,1861.3 669.496,1861.3L669.673,1861.3C669.851,1861.3 669.939,1861.25 669.984,1861.25C670.028,1861.25 670.117,1861.21 670.117,1861.21L670.827,1860.94C670.871,1860.94 670.96,1860.85 670.96,1860.85L671.581,1860.45C671.625,1860.45 671.803,1860.23 671.847,1860.19C671.891,1860.1 672.202,1859.74 672.291,1859.65L672.379,1859.52L672.646,1858.94L672.912,1858.55C672.912,1858.5 673.001,1858.41 673.001,1858.37C673.001,1858.32 673.089,1858.24 673.089,1858.19L673.267,1857.57C673.267,1857.53 673.444,1857.04 673.444,1856.99C673.444,1856.95 673.533,1856.77 673.533,1856.73C673.533,1856.68 673.622,1856.51 673.622,1856.42C673.622,1856.37 673.71,1856.06 673.71,1856.06C673.755,1855.97 673.932,1855.35 673.932,1855.26C673.932,1855.22 674.021,1854.91 674.021,1854.78C674.021,1854.73 674.065,1854.42 674.065,1854.42C674.065,1854.42 674.11,1854.15 674.154,1854.07C674.154,1854.02 674.243,1853.84 674.243,1853.8C674.287,1853.67 674.331,1853.31 674.331,1853.27C674.331,1853.27 674.376,1853 674.376,1852.96C674.376,1852.91 674.42,1852.73 674.42,1852.73C674.42,1852.69 674.465,1852.42 674.465,1852.38C674.465,1852.34 674.509,1852.03 674.509,1851.98C674.509,1851.94 674.598,1851.49 674.598,1851.45C674.598,1851.4 674.642,1851.05 674.642,1851C674.642,1850.91 674.686,1850.69 674.686,1850.65C674.686,1850.61 674.731,1850.43 674.775,1850.34C674.775,1850.29 674.864,1850.07 674.864,1850.03C674.864,1849.98 674.908,1849.81 674.908,1849.76L674.908,1849.14C674.908,1849.1 674.997,1848.83 674.997,1848.79C674.997,1848.74 675.041,1848.56 675.041,1848.56C675.041,1848.43 675.086,1847.63 675.086,1847.5C675.086,1847.45 675.13,1847.19 675.13,1847.19C675.13,1847.06 675.174,1846.48 675.174,1846.35L675.174,1845.77C675.174,1845.73 675.13,1845.5 675.13,1845.46C675.13,1845.33 675.086,1844.97 675.086,1844.93L675.086,1844.48C675.086,1844.39 675.13,1843.64 675.13,1843.55L675.13,1842.53C675.13,1842.44 675.041,1841.51 674.997,1841.11C674.997,1841.07 674.953,1840.85 674.953,1840.8C674.953,1840.71 674.908,1840.45 674.908,1840.4C674.908,1840.27 674.864,1839.42 674.864,1839.29C674.864,1839.16 674.775,1838.58 674.731,1838.45L674.42,1837.3C674.42,1837.25 674.287,1836.81 674.287,1836.76C674.287,1836.72 674.198,1836.54 674.198,1836.5C674.198,1836.41 674.021,1835.92 674.021,1835.83C674.021,1835.83 673.977,1835.74 673.977,1835.7C673.977,1835.65 673.843,1835.43 673.843,1835.39C673.843,1835.34 673.71,1834.94 673.71,1834.9C673.71,1834.86 673.533,1834.5 673.533,1834.46C673.444,1834.24 673.311,1833.92 673.178,1833.7C673.178,1833.66 673.089,1833.53 673.089,1833.48L672.779,1832.95C672.734,1832.9 672.646,1832.73 672.646,1832.73C672.646,1832.73 672.513,1832.59 672.513,1832.55L672.025,1831.84C672.025,1831.8 671.847,1831.62 671.758,1831.53C671.714,1831.48 671.537,1831.26 671.492,1831.26C671.448,1831.26 671.315,1831.09 671.27,1831.09C671.226,1831.09 670.915,1830.86 670.871,1830.82C670.871,1830.77 670.738,1830.68 670.694,1830.68C670.605,1830.64 670.339,1830.55 670.294,1830.55C670.294,1830.55 670.161,1830.51 670.117,1830.51L669.984,1830.51C669.806,1830.46 669.718,1830.42 669.673,1830.42C669.585,1830.42 669.141,1830.33 669.097,1830.33L668.52,1830.33C668.475,1830.33 668.165,1830.42 668.076,1830.42C667.987,1830.42 667.632,1830.55 667.544,1830.6C667.544,1830.6 667.366,1830.73 667.278,1830.77C667.233,1830.77 667.144,1830.86 667.144,1830.86L666.834,1831.13C666.79,1831.17 666.523,1831.57 666.435,1831.62L666.346,1831.75C666.346,1831.8 666.168,1832.02 666.168,1832.06C666.168,1832.11 665.991,1832.24 665.991,1832.28C665.947,1832.33 665.636,1832.68 665.636,1832.73C665.547,1832.82 665.459,1833.17 665.326,1833.3C665.326,1833.35 665.192,1833.7 665.148,1833.84C665.104,1833.92 665.015,1834.32 665.015,1834.37L664.704,1835.43C664.704,1835.48 664.616,1835.61 664.616,1835.65L664.571,1835.83C664.571,1835.88 664.438,1836.28 664.438,1836.32L664.039,1837.74C664.039,1837.74 663.995,1837.87 663.995,1837.92C663.995,1838.05 663.906,1838.4 663.906,1838.49L663.906,1838.94C663.906,1839.12 663.862,1839.69 663.862,1839.78C663.862,1840.13 663.773,1842.93 663.773,1843.29C663.773,1843.37 663.728,1843.91 663.728,1844L663.728,1846.48C663.728,1846.57 663.773,1847.28 663.773,1847.37C663.773,1847.94 663.862,1850.65 663.862,1851.23ZM665.237,1848.92L665.237,1847.19C665.237,1847.14 665.281,1846.7 665.281,1846.66C665.281,1846.57 665.326,1845.46 665.326,1845.33C665.326,1845.28 665.37,1844.97 665.37,1844.93C665.37,1844.79 665.459,1843.91 665.459,1843.82C665.459,1843.68 665.547,1843.11 665.547,1842.97C665.547,1842.93 665.592,1842.75 665.592,1842.71C665.592,1842.62 665.636,1842.35 665.636,1842.31L665.636,1841.2L665.991,1838.85C665.991,1838.8 666.035,1838.49 666.035,1838.45C666.035,1838.4 666.124,1837.92 666.168,1837.74L666.213,1837.56L666.213,1837.21C666.213,1837.16 666.257,1836.76 666.257,1836.72C666.257,1836.67 666.302,1836.54 666.302,1836.5C666.302,1836.45 666.346,1836.19 666.346,1836.14C666.346,1836.1 666.39,1835.97 666.39,1835.92C666.39,1835.88 666.435,1835.65 666.435,1835.61C666.435,1835.52 666.523,1835.21 666.523,1835.17C666.523,1835.12 666.568,1835.03 666.568,1834.99C666.568,1834.94 666.656,1834.81 666.656,1834.77C666.656,1834.72 666.79,1834.32 666.79,1834.28C666.79,1834.28 666.834,1834.1 666.834,1834.06L667.499,1832.73C667.499,1832.73 667.677,1832.46 667.721,1832.37C667.721,1832.33 667.81,1832.24 667.81,1832.24L668.209,1831.8C668.254,1831.71 668.475,1831.57 668.52,1831.53C668.52,1831.53 668.742,1831.31 668.83,1831.26C668.875,1831.22 668.963,1831.17 668.963,1831.17C669.141,1831.22 669.363,1831.31 669.407,1831.31L669.851,1831.53C669.895,1831.53 670.028,1831.62 670.028,1831.62C670.073,1831.62 670.206,1831.71 670.25,1831.71L671.403,1832.5C671.448,1832.5 671.492,1832.59 671.537,1832.64C671.581,1832.68 671.714,1832.77 671.714,1832.82L671.936,1833.13C671.936,1833.17 672.069,1833.3 672.069,1833.35C672.069,1833.39 672.291,1833.57 672.291,1833.61C672.291,1833.61 672.601,1834.1 672.646,1834.28C672.734,1834.37 672.823,1834.59 672.823,1834.68C672.823,1834.72 673.001,1835.03 673.001,1835.08L673.045,1835.21C673.089,1835.43 673.222,1835.92 673.222,1835.97C673.267,1836.05 673.444,1837.07 673.489,1837.16C673.489,1837.21 673.577,1837.61 673.622,1837.69C673.622,1837.74 673.755,1838.05 673.755,1838.09L673.755,1838.32C673.799,1838.49 673.888,1838.94 673.888,1838.98C673.888,1839.03 674.021,1839.42 674.021,1839.42C674.065,1839.51 674.154,1839.96 674.154,1840.05C674.154,1840.18 674.287,1840.76 674.287,1840.93C674.331,1841.29 674.42,1842.26 674.42,1842.35L674.42,1843.86L674.11,1849.05C674.11,1849.1 674.065,1849.63 674.021,1849.85C673.977,1850.16 673.932,1850.52 673.843,1850.87C673.843,1850.91 673.755,1851.14 673.755,1851.23L673.755,1851.4L673.71,1851.54C673.71,1851.58 673.622,1851.76 673.622,1851.8C673.577,1851.94 673.489,1852.25 673.489,1852.29C673.489,1852.38 673.4,1852.69 673.4,1852.73C673.4,1852.82 673.311,1853.36 673.311,1853.44C673.311,1853.44 673.267,1853.76 673.222,1853.84C673.222,1853.84 673.178,1854.11 673.178,1854.15C673.178,1854.2 673.134,1854.51 673.134,1854.55L673.001,1855.17C672.956,1855.4 672.779,1856.02 672.734,1856.06C672.734,1856.15 672.601,1856.46 672.601,1856.51C672.601,1856.64 672.424,1857.17 672.379,1857.22L672.113,1857.84C672.113,1857.88 671.98,1858.19 671.936,1858.28L671.359,1859.3C671.359,1859.35 671.27,1859.39 671.226,1859.43C671.226,1859.48 671.049,1859.61 671.049,1859.65C671.004,1859.7 670.871,1859.92 670.871,1859.97C670.782,1860.01 670.472,1860.32 670.383,1860.41C670.383,1860.41 670.25,1860.5 670.161,1860.54C670.117,1860.59 669.984,1860.59 669.939,1860.63L669.762,1860.63C669.673,1860.63 669.407,1860.54 669.274,1860.54C669.23,1860.54 669.097,1860.45 669.052,1860.45L668.919,1860.41C668.83,1860.37 668.431,1859.97 668.431,1859.88L668.342,1859.65C668.342,1859.65 668.254,1859.48 668.209,1859.43C668.032,1859.21 667.899,1858.94 667.81,1858.68C667.81,1858.63 667.721,1858.41 667.721,1858.37C667.677,1858.28 667.366,1857.75 667.366,1857.66C667.366,1857.66 667.278,1857.48 667.278,1857.44C667.233,1857.3 666.79,1856.24 666.79,1856.11L666.701,1855.93L666.656,1855.8L666.346,1854.78L666.302,1854.55C666.302,1854.51 666.257,1854.42 666.257,1854.42C666.257,1854.38 666.08,1853.98 666.08,1853.93C666.08,1853.93 665.947,1853.36 665.858,1853.09C665.858,1853.05 665.68,1852.6 665.68,1852.56C665.68,1852.51 665.636,1852.38 665.636,1852.38C665.636,1852.34 665.592,1851.89 665.592,1851.85L665.547,1851.67C665.547,1851.62 665.459,1851.27 665.459,1851.23C665.459,1851.14 665.37,1850.56 665.37,1850.47C665.37,1850.34 665.281,1849.45 665.281,1849.36C665.281,1849.32 665.237,1848.96 665.237,1848.92Z" style="fill:rgb(34,82,113);fill-rule:nonzero;stroke:rgb(136,236,233);stroke-width:0.04px;"/>
            </g>
            <g transform="matrix(4.37355,-0.151841,0.0982582,1.88153,-6224.77,-1421.4)">
                <g transform="matrix(0.01784,-2.4758e-19,0,0.671418,1377.9,-76.6494)">
                    <path d="M2434,1866.59C2436.5,1896.56 2438.82,1915.71 2438.82,1915.71" style="fill:rgb(176,88,68);"/>
                    <path d="M2297.78,1866.63C2291.71,1870.79 2283.7,1874.7 2280.62,1878.43C2278.34,1881.17 2278.29,1883.8 2279.03,1886.29C2284.46,1904.75 2302.59,1915.77 2302.59,1915.77C2303.06,1919.63 2364.48,1922.75 2439.67,1922.72C2514.85,1922.68 2575.51,1919.52 2575.04,1915.66C2575.04,1915.66 2590.5,1904.63 2592.46,1886.18C2592.73,1883.7 2592.19,1881.07 2589.43,1878.33C2585.68,1874.6 2576.98,1870.7 2570.23,1866.55C2569.91,1862.68 2508.61,1859.56 2433.42,1859.59C2358.24,1859.61 2297.46,1862.77 2297.78,1866.63Z" style="fill:rgb(187,235,246);"/>
                </g>
                <g transform="matrix(0.0446271,-6.19326e-19,0,0.511695,1342.89,423.461)">
                    <path d="M2434,1866.59C2436.5,1896.56 2438.82,1915.71 2438.82,1915.71" style="fill:rgb(176,88,68);"/>
                    <path d="M2379.55,1866.73C2377.33,1870.91 2374.34,1874.8 2373.3,1878.55C2372.54,1881.3 2372.67,1883.93 2373.1,1886.42C2376.32,1904.92 2384.37,1915.92 2384.37,1915.92C2384.99,1920.99 2409.88,1925.01 2439.93,1924.9C2469.98,1924.79 2493.88,1920.58 2493.26,1915.51C2493.26,1915.51 2498.64,1904.5 2498.39,1886.05C2498.35,1883.56 2497.99,1880.94 2496.74,1878.2C2495.04,1874.47 2491.37,1870.6 2488.46,1866.44C2488.03,1861.37 2463.29,1857.32 2433.24,1857.4C2403.19,1857.48 2379.13,1861.66 2379.55,1866.73Z" style="fill:rgb(187,235,246);"/>
                </g>
                <g transform="matrix(0.01784,0,-1.95003e-18,0.562059,1434.91,212.799)">
                    <path d="M2434,1866.59C2436.5,1896.56 2438.82,1915.71 2438.82,1915.71" style="fill:rgb(176,88,68);"/>
                    <path d="M2297.78,1866.64C2291.7,1870.81 2283.71,1874.71 2280.62,1878.45C2278.35,1881.19 2278.29,1883.82 2279.03,1886.31C2284.47,1904.78 2302.59,1915.79 2302.59,1915.79C2303.15,1920.41 2364.65,1924.12 2439.83,1924.08C2515.01,1924.04 2575.6,1920.25 2575.04,1915.64C2575.04,1915.64 2590.5,1904.62 2592.46,1886.16C2592.73,1883.68 2592.19,1881.05 2589.43,1878.31C2585.67,1874.58 2576.99,1870.69 2570.23,1866.53C2569.85,1861.91 2508.49,1858.19 2433.31,1858.22C2358.12,1858.25 2297.39,1862.03 2297.78,1866.64Z" style="fill:rgb(187,235,246);"/>
                </g>
                <g transform="matrix(0.230302,0.00881695,-1.39454e-18,0.401949,918.632,684.096)">
                    <path d="M2434,1866.59C2436.5,1896.56 2438.82,1915.71 2438.82,1915.71" style="fill:rgb(176,88,68);"/>
                    <path d="M2423.5,1867.91C2423.35,1872.19 2423.05,1876.16 2423.12,1879.99C2423.17,1882.78 2423.4,1885.44 2423.67,1887.94C2425.72,1906.61 2428.36,1917.52 2428.36,1917.52C2429.13,1923.89 2434.45,1928.27 2440.22,1927.27C2445.99,1926.28 2450.05,1920.29 2449.28,1913.91C2449.28,1913.91 2449.26,1902.88 2447.82,1884.58C2447.63,1882.11 2447.36,1879.5 2446.93,1876.8C2446.33,1873.1 2445.35,1869.36 2444.51,1865.27C2443.98,1858.85 2438.84,1854.23 2433.04,1854.96C2427.24,1855.69 2422.96,1861.49 2423.5,1867.91Z" style="fill:rgb(187,235,246);"/>
                </g>
                <g transform="matrix(0.01784,-2.4758e-19,0,0.671418,1400.06,12.6633)">
                    <path d="M2434,1866.59C2436.5,1896.56 2438.82,1915.71 2438.82,1915.71" style="fill:rgb(176,88,68);"/>
                    <path d="M2297.78,1866.63C2291.71,1870.79 2283.7,1874.7 2280.62,1878.43C2278.34,1881.17 2278.29,1883.8 2279.03,1886.29C2284.46,1904.75 2302.59,1915.77 2302.59,1915.77C2303.06,1919.63 2364.48,1922.75 2439.67,1922.72C2514.85,1922.68 2575.51,1919.52 2575.04,1915.66C2575.04,1915.66 2590.5,1904.63 2592.46,1886.18C2592.73,1883.7 2592.19,1881.07 2589.43,1878.33C2585.68,1874.6 2576.98,1870.7 2570.23,1866.55C2569.91,1862.68 2508.61,1859.56 2433.42,1859.59C2358.24,1859.61 2297.46,1862.77 2297.78,1866.63Z" style="fill:rgb(187,235,246);"/>
                </g>
                <g transform="matrix(0.045728,-6.34603e-19,0,0.549853,1305.26,439.889)">
                    <path d="M2434,1866.59C2436.5,1896.56 2438.82,1915.71 2438.82,1915.71" style="fill:rgb(176,88,68);"/>
                    <path d="M2380.86,1866.72C2378.7,1870.89 2375.79,1874.79 2374.79,1878.53C2374.05,1881.28 2374.18,1883.91 2374.61,1886.4C2377.8,1904.89 2385.68,1915.89 2385.68,1915.89C2386.25,1920.61 2410.53,1924.36 2439.85,1924.26C2469.18,1924.16 2492.53,1920.25 2491.95,1915.53C2491.95,1915.53 2497.17,1904.52 2496.88,1886.07C2496.84,1883.58 2496.48,1880.96 2495.26,1878.22C2493.59,1874.49 2489.99,1870.61 2487.15,1866.46C2486.75,1861.74 2462.62,1857.97 2433.29,1858.04C2403.96,1858.11 2380.47,1862 2380.86,1866.72Z" style="fill:rgb(187,235,246);"/>
                </g>
                <g transform="matrix(0.01784,0,-2.32945e-18,0.671418,1470.54,-87.8736)">
                    <path d="M2434,1866.59C2436.5,1896.56 2438.82,1915.71 2438.82,1915.71" style="fill:rgb(176,88,68);"/>
                    <path d="M2297.78,1866.63C2291.71,1870.79 2283.7,1874.7 2280.62,1878.43C2278.34,1881.17 2278.29,1883.8 2279.03,1886.29C2284.46,1904.75 2302.59,1915.77 2302.59,1915.77C2303.06,1919.63 2364.48,1922.75 2439.67,1922.72C2514.85,1922.68 2575.51,1919.52 2575.04,1915.66C2575.04,1915.66 2590.5,1904.63 2592.46,1886.18C2592.73,1883.7 2592.19,1881.07 2589.43,1878.33C2585.68,1874.6 2576.98,1870.7 2570.23,1866.55C2569.91,1862.68 2508.61,1859.56 2433.42,1859.59C2358.24,1859.61 2297.46,1862.77 2297.78,1866.63Z" style="fill:rgb(187,235,246);"/>
                </g>
                <g transform="matrix(0.138411,-1.92084e-18,-1.90416e-18,0.548836,1174.12,269.859)">
                    <path d="M2434,1866.59C2436.5,1896.56 2438.82,1915.71 2438.82,1915.71" style="fill:rgb(176,88,68);"/>
                    <path d="M2416.46,1866.95C2415.98,1871.14 2415.25,1875.06 2415.14,1878.82C2415.06,1881.58 2415.27,1884.22 2415.57,1886.71C2417.79,1905.24 2421.29,1916.23 2421.29,1916.23C2421.86,1920.95 2430.18,1924.55 2439.85,1924.26C2449.53,1923.98 2456.92,1919.91 2456.35,1915.19C2456.35,1915.19 2457.18,1904.17 2455.92,1885.77C2455.75,1883.29 2455.47,1880.67 2454.91,1877.94C2454.13,1874.22 2452.72,1870.36 2451.55,1866.23C2451.16,1861.5 2442.97,1857.83 2433.29,1858.03C2423.61,1858.23 2416.07,1862.23 2416.46,1866.95Z" style="fill:rgb(187,235,246);"/>
                </g>
                <g transform="matrix(0.01784,0,0,0.671418,1368.28,83.6172)">
                    <path d="M2434,1866.59C2436.5,1896.56 2438.82,1915.71 2438.82,1915.71" style="fill:rgb(176,88,68);"/>
                    <path d="M2297.78,1866.63C2291.71,1870.79 2283.7,1874.7 2280.62,1878.43C2278.34,1881.17 2278.29,1883.8 2279.03,1886.29C2284.46,1904.75 2302.59,1915.77 2302.59,1915.77C2303.06,1919.63 2364.48,1922.75 2439.67,1922.72C2514.85,1922.68 2575.51,1919.52 2575.04,1915.66C2575.04,1915.66 2590.5,1904.63 2592.46,1886.18C2592.73,1883.7 2592.19,1881.07 2589.43,1878.33C2585.68,1874.6 2576.98,1870.7 2570.23,1866.55C2569.91,1862.68 2508.61,1859.56 2433.42,1859.59C2358.24,1859.61 2297.46,1862.77 2297.78,1866.63Z" style="fill:rgb(187,235,246);"/>
                </g>
                <g transform="matrix(-0.194622,5.40185e-18,-9.80248e-19,0.282537,1990.22,847.196)">
                    <path d="M2434,1866.59C2436.5,1896.56 2438.82,1915.71 2438.82,1915.71" style="fill:rgb(176,88,68);"/>
                    <path d="M2446.41,1864.78C2447.35,1868.87 2448.43,1872.47 2449.08,1876.19C2449.54,1878.86 2449.81,1881.45 2450,1883.92C2451.38,1902.13 2451.14,1913.09 2451.14,1913.09C2452.24,1922.16 2447.61,1930.7 2440.81,1932.14C2434,1933.59 2427.59,1927.41 2426.49,1918.34C2426.49,1918.34 2423.62,1907.49 2421.49,1888.62C2421.21,1886.1 2420.99,1883.42 2420.97,1880.6C2420.95,1876.68 2421.35,1872.75 2421.59,1868.39C2420.83,1859.26 2425.78,1851.04 2432.63,1850.05C2439.48,1849.05 2445.66,1855.65 2446.41,1864.78Z" style="fill:rgb(187,235,246);"/>
                </g>
            </g>
            <g transform="matrix(29.9082,0,0,24.8918,-19341.2,-45117.9)">
                <g transform="matrix(40.8143,0,0,40.8143,650.109,1861.34)">
                    <path d="M0.04,-0.003C0.042,-0.003 0.052,-0.002 0.054,-0.002L0.069,-0.002L0.072,-0.003L0.075,-0.005C0.076,-0.006 0.078,-0.008 0.078,-0.008L0.079,-0.011C0.079,-0.019 0.08,-0.054 0.08,-0.062L0.08,-0.077C0.08,-0.115 0.078,-0.228 0.078,-0.239L0.078,-0.347C0.078,-0.356 0.079,-0.424 0.079,-0.432C0.079,-0.438 0.08,-0.459 0.08,-0.464C0.08,-0.465 0.081,-0.472 0.081,-0.473C0.081,-0.475 0.082,-0.485 0.082,-0.487C0.089,-0.487 0.118,-0.488 0.124,-0.488C0.125,-0.488 0.135,-0.489 0.138,-0.49C0.139,-0.49 0.142,-0.491 0.143,-0.491C0.145,-0.491 0.156,-0.495 0.159,-0.496C0.16,-0.496 0.164,-0.498 0.164,-0.498C0.165,-0.498 0.168,-0.499 0.169,-0.499L0.18,-0.505C0.18,-0.505 0.185,-0.508 0.186,-0.509C0.186,-0.509 0.189,-0.511 0.19,-0.512C0.191,-0.512 0.194,-0.515 0.194,-0.515L0.207,-0.528C0.207,-0.529 0.209,-0.532 0.209,-0.532C0.21,-0.534 0.215,-0.54 0.215,-0.54C0.215,-0.541 0.218,-0.546 0.219,-0.548C0.219,-0.548 0.22,-0.55 0.22,-0.551C0.221,-0.554 0.223,-0.563 0.223,-0.565C0.223,-0.565 0.224,-0.568 0.224,-0.569C0.224,-0.571 0.226,-0.58 0.226,-0.581C0.226,-0.582 0.227,-0.587 0.227,-0.588C0.227,-0.589 0.228,-0.594 0.228,-0.595L0.228,-0.609C0.228,-0.61 0.226,-0.621 0.226,-0.624C0.226,-0.624 0.224,-0.631 0.224,-0.632C0.224,-0.634 0.222,-0.645 0.222,-0.647C0.222,-0.647 0.221,-0.651 0.22,-0.652C0.219,-0.653 0.217,-0.658 0.217,-0.658C0.216,-0.66 0.213,-0.665 0.213,-0.666C0.213,-0.666 0.21,-0.67 0.209,-0.671C0.208,-0.672 0.207,-0.675 0.207,-0.675L0.196,-0.685C0.196,-0.685 0.194,-0.687 0.193,-0.687C0.192,-0.688 0.185,-0.692 0.184,-0.692L0.179,-0.694L0.175,-0.694C0.173,-0.694 0.165,-0.696 0.164,-0.696C0.164,-0.696 0.157,-0.697 0.156,-0.697C0.155,-0.697 0.15,-0.698 0.15,-0.698C0.144,-0.699 0.126,-0.7 0.124,-0.7L0.091,-0.7C0.089,-0.7 0.082,-0.698 0.08,-0.698L0.064,-0.698C0.064,-0.698 0.06,-0.699 0.059,-0.699C0.056,-0.699 0.054,-0.698 0.052,-0.698C0.051,-0.698 0.049,-0.697 0.049,-0.697C0.048,-0.697 0.045,-0.695 0.045,-0.695L0.04,-0.691C0.04,-0.691 0.038,-0.688 0.038,-0.687L0.037,-0.684L0.037,-0.653C0.037,-0.65 0.038,-0.632 0.038,-0.627C0.038,-0.626 0.039,-0.618 0.039,-0.617L0.039,-0.612C0.039,-0.606 0.038,-0.604 0.038,-0.601C0.037,-0.587 0.035,-0.519 0.035,-0.505C0.035,-0.483 0.034,-0.38 0.034,-0.358C0.034,-0.352 0.032,-0.323 0.032,-0.317C0.032,-0.31 0.031,-0.287 0.031,-0.283L0.031,-0.136C0.031,-0.128 0.03,-0.063 0.03,-0.055L0.03,-0.044C0.03,-0.041 0.031,-0.029 0.031,-0.027C0.031,-0.027 0.032,-0.024 0.032,-0.023C0.032,-0.022 0.035,-0.016 0.035,-0.015C0.035,-0.014 0.036,-0.007 0.036,-0.007C0.036,-0.006 0.039,-0.003 0.04,-0.003ZM0.082,-0.515C0.082,-0.517 0.083,-0.518 0.083,-0.519C0.083,-0.521 0.084,-0.53 0.084,-0.532C0.084,-0.541 0.085,-0.569 0.085,-0.572C0.085,-0.575 0.084,-0.603 0.083,-0.613C0.083,-0.614 0.082,-0.624 0.082,-0.624C0.082,-0.628 0.081,-0.654 0.081,-0.658C0.081,-0.659 0.08,-0.666 0.08,-0.666L0.08,-0.67C0.08,-0.67 0.081,-0.673 0.081,-0.674C0.081,-0.674 0.083,-0.678 0.085,-0.679C0.086,-0.68 0.087,-0.68 0.089,-0.68L0.093,-0.68L0.096,-0.681C0.097,-0.681 0.101,-0.682 0.102,-0.682C0.104,-0.682 0.108,-0.683 0.108,-0.683L0.14,-0.683C0.141,-0.683 0.145,-0.682 0.146,-0.682C0.147,-0.682 0.153,-0.68 0.154,-0.68L0.16,-0.68C0.161,-0.68 0.164,-0.679 0.164,-0.679C0.164,-0.679 0.166,-0.678 0.167,-0.678C0.168,-0.678 0.172,-0.676 0.172,-0.676C0.173,-0.676 0.177,-0.673 0.178,-0.673C0.181,-0.673 0.183,-0.668 0.185,-0.666C0.189,-0.664 0.189,-0.657 0.192,-0.654C0.192,-0.654 0.193,-0.649 0.194,-0.647L0.195,-0.644C0.196,-0.642 0.198,-0.636 0.198,-0.635C0.198,-0.634 0.199,-0.631 0.199,-0.631C0.199,-0.629 0.2,-0.624 0.2,-0.623L0.2,-0.575C0.2,-0.575 0.199,-0.568 0.198,-0.566C0.198,-0.566 0.196,-0.561 0.196,-0.559C0.196,-0.558 0.195,-0.556 0.195,-0.556C0.194,-0.555 0.192,-0.547 0.191,-0.545L0.184,-0.537C0.183,-0.535 0.177,-0.529 0.176,-0.528C0.176,-0.528 0.174,-0.526 0.173,-0.526C0.171,-0.526 0.168,-0.524 0.166,-0.523C0.16,-0.52 0.14,-0.512 0.139,-0.511C0.138,-0.511 0.135,-0.509 0.134,-0.509C0.133,-0.509 0.13,-0.508 0.129,-0.508C0.127,-0.508 0.114,-0.507 0.112,-0.507C0.111,-0.507 0.103,-0.506 0.102,-0.506L0.084,-0.506C0.084,-0.507 0.083,-0.51 0.083,-0.511C0.083,-0.511 0.082,-0.514 0.082,-0.515Z" style="fill:rgb(38,195,229);fill-rule:nonzero;"/>
                </g>
                <g transform="matrix(40.8143,0,0,40.8143,659.537,1861.34)">
                    <path d="M0.03,-0.018L0.03,-0.009C0.032,-0.007 0.034,-0.003 0.036,-0.003C0.036,-0.003 0.038,-0.002 0.039,-0.002C0.04,-0.002 0.043,-0.001 0.043,-0.001L0.047,-0.001C0.048,-0.001 0.053,-0.002 0.054,-0.002L0.058,-0.003C0.059,-0.003 0.069,-0.005 0.07,-0.005C0.07,-0.005 0.074,-0.007 0.075,-0.007C0.078,-0.01 0.079,-0.017 0.079,-0.025C0.079,-0.032 0.078,-0.04 0.078,-0.043C0.078,-0.045 0.08,-0.068 0.08,-0.071C0.08,-0.077 0.081,-0.105 0.081,-0.111L0.081,-0.224C0.081,-0.228 0.082,-0.245 0.082,-0.248L0.082,-0.543C0.082,-0.549 0.081,-0.578 0.081,-0.584L0.081,-0.594C0.081,-0.596 0.08,-0.607 0.08,-0.609L0.08,-0.649C0.08,-0.652 0.082,-0.673 0.082,-0.675L0.082,-0.69C0.081,-0.693 0.08,-0.695 0.076,-0.697C0.075,-0.697 0.073,-0.698 0.073,-0.698C0.07,-0.698 0.058,-0.7 0.055,-0.7L0.046,-0.7C0.045,-0.696 0.044,-0.686 0.044,-0.683C0.044,-0.682 0.043,-0.678 0.043,-0.677C0.043,-0.675 0.042,-0.656 0.042,-0.654C0.042,-0.652 0.041,-0.645 0.041,-0.644L0.041,-0.477C0.04,-0.476 0.039,-0.47 0.039,-0.468L0.039,-0.427C0.039,-0.425 0.04,-0.411 0.04,-0.409L0.04,-0.387C0.04,-0.383 0.039,-0.363 0.039,-0.358C0.039,-0.356 0.038,-0.349 0.038,-0.347L0.038,-0.289C0.038,-0.287 0.037,-0.27 0.037,-0.265C0.037,-0.265 0.036,-0.254 0.036,-0.253L0.036,-0.216C0.036,-0.215 0.037,-0.205 0.037,-0.204L0.037,-0.192C0.037,-0.191 0.036,-0.179 0.036,-0.178C0.036,-0.175 0.035,-0.149 0.035,-0.146C0.035,-0.145 0.034,-0.132 0.034,-0.13C0.034,-0.118 0.032,-0.061 0.032,-0.049C0.032,-0.047 0.031,-0.04 0.031,-0.038C0.031,-0.035 0.03,-0.021 0.03,-0.018Z" style="fill:rgb(38,195,229);fill-rule:nonzero;"/>
                </g>
            </g>
            <g transform="matrix(2.29488,0,0,2.01676,-1432.95,-3511.46)">
                <rect x="992.126" y="2409.45" width="377.953" height="377.953" style="fill:rgb(213,97,71);"/>
            </g>
            <g transform="matrix(1.68215,0,0,1.48287,-770.599,-273.715)">
                <g transform="matrix(522.607,0,0,522.607,998.858,1533.44)">
                    <path d="M0.033,-0.22C0.033,-0.219 0.034,-0.214 0.034,-0.213C0.034,-0.212 0.035,-0.208 0.035,-0.207C0.035,-0.206 0.036,-0.197 0.036,-0.196L0.038,-0.177C0.038,-0.176 0.04,-0.17 0.04,-0.169C0.04,-0.167 0.043,-0.147 0.043,-0.145C0.043,-0.144 0.044,-0.14 0.044,-0.139C0.044,-0.139 0.046,-0.126 0.046,-0.125C0.046,-0.124 0.048,-0.117 0.048,-0.116C0.048,-0.115 0.049,-0.111 0.049,-0.11C0.049,-0.108 0.052,-0.098 0.052,-0.096C0.052,-0.095 0.053,-0.093 0.053,-0.092C0.053,-0.092 0.057,-0.084 0.057,-0.079C0.057,-0.078 0.058,-0.074 0.058,-0.073C0.058,-0.073 0.059,-0.07 0.059,-0.069C0.059,-0.068 0.06,-0.065 0.06,-0.065C0.06,-0.064 0.064,-0.057 0.064,-0.057L0.066,-0.052C0.066,-0.051 0.07,-0.043 0.071,-0.041C0.072,-0.039 0.075,-0.035 0.075,-0.033C0.076,-0.031 0.08,-0.025 0.08,-0.025L0.098,-0.011C0.099,-0.01 0.103,-0.008 0.104,-0.008C0.104,-0.008 0.108,-0.007 0.109,-0.007L0.136,-0.002C0.137,-0.002 0.146,-0.001 0.149,-0.001L0.154,-0.001C0.16,-0.001 0.162,-0.002 0.165,-0.002L0.169,-0.002C0.171,-0.002 0.177,-0.004 0.179,-0.004C0.179,-0.004 0.184,-0.005 0.186,-0.006C0.19,-0.007 0.194,-0.01 0.198,-0.01L0.211,-0.017C0.212,-0.017 0.219,-0.022 0.221,-0.023C0.222,-0.024 0.226,-0.026 0.226,-0.026L0.235,-0.035C0.235,-0.035 0.238,-0.039 0.239,-0.04C0.24,-0.043 0.243,-0.045 0.243,-0.048C0.244,-0.05 0.246,-0.055 0.246,-0.055L0.246,-0.06C0.246,-0.06 0.244,-0.062 0.243,-0.063C0.243,-0.063 0.241,-0.064 0.24,-0.064C0.238,-0.064 0.238,-0.063 0.237,-0.063C0.236,-0.063 0.232,-0.059 0.231,-0.058L0.224,-0.052L0.22,-0.048L0.202,-0.033C0.201,-0.033 0.195,-0.029 0.193,-0.028C0.192,-0.028 0.189,-0.026 0.189,-0.026C0.188,-0.025 0.182,-0.024 0.181,-0.024C0.179,-0.024 0.167,-0.022 0.165,-0.022C0.164,-0.022 0.161,-0.021 0.16,-0.021L0.143,-0.021C0.142,-0.021 0.14,-0.022 0.139,-0.022L0.126,-0.028L0.117,-0.038C0.117,-0.038 0.113,-0.043 0.112,-0.045L0.11,-0.05C0.108,-0.056 0.104,-0.071 0.104,-0.072C0.104,-0.073 0.102,-0.079 0.102,-0.08L0.101,-0.084C0.099,-0.092 0.094,-0.115 0.094,-0.116C0.094,-0.117 0.093,-0.127 0.093,-0.128C0.093,-0.128 0.092,-0.133 0.092,-0.134C0.092,-0.134 0.091,-0.138 0.091,-0.139C0.09,-0.144 0.088,-0.16 0.088,-0.161L0.085,-0.194C0.085,-0.195 0.084,-0.2 0.084,-0.201C0.084,-0.203 0.083,-0.218 0.083,-0.22C0.083,-0.22 0.082,-0.224 0.082,-0.225C0.082,-0.228 0.08,-0.247 0.08,-0.25C0.08,-0.251 0.078,-0.255 0.078,-0.256C0.078,-0.259 0.079,-0.269 0.079,-0.272L0.079,-0.394C0.079,-0.396 0.081,-0.434 0.082,-0.448C0.082,-0.449 0.083,-0.457 0.083,-0.458C0.083,-0.464 0.085,-0.507 0.085,-0.513C0.085,-0.514 0.086,-0.519 0.086,-0.521L0.089,-0.54C0.089,-0.541 0.092,-0.549 0.092,-0.55C0.093,-0.552 0.095,-0.561 0.095,-0.562C0.095,-0.563 0.096,-0.567 0.096,-0.568L0.102,-0.597C0.102,-0.599 0.103,-0.602 0.104,-0.604C0.105,-0.608 0.109,-0.618 0.109,-0.619C0.109,-0.62 0.112,-0.625 0.113,-0.627C0.113,-0.627 0.115,-0.63 0.116,-0.631C0.116,-0.632 0.118,-0.634 0.118,-0.634L0.125,-0.644C0.126,-0.644 0.129,-0.647 0.13,-0.648C0.13,-0.648 0.133,-0.651 0.134,-0.651L0.142,-0.657L0.155,-0.663C0.155,-0.663 0.159,-0.665 0.16,-0.665C0.161,-0.666 0.166,-0.667 0.166,-0.667C0.167,-0.667 0.172,-0.668 0.172,-0.668C0.173,-0.668 0.177,-0.669 0.178,-0.669L0.194,-0.669C0.195,-0.669 0.199,-0.668 0.2,-0.668C0.201,-0.668 0.205,-0.667 0.206,-0.667C0.207,-0.667 0.211,-0.665 0.212,-0.665C0.213,-0.665 0.217,-0.662 0.218,-0.662C0.219,-0.662 0.223,-0.658 0.224,-0.658C0.225,-0.658 0.227,-0.656 0.227,-0.656C0.228,-0.655 0.23,-0.655 0.231,-0.655C0.235,-0.655 0.235,-0.657 0.237,-0.657C0.238,-0.657 0.239,-0.66 0.239,-0.66L0.239,-0.668C0.239,-0.668 0.237,-0.672 0.236,-0.674C0.236,-0.675 0.234,-0.677 0.234,-0.677C0.232,-0.678 0.225,-0.685 0.224,-0.686C0.223,-0.686 0.217,-0.69 0.215,-0.691C0.214,-0.691 0.21,-0.693 0.209,-0.693C0.205,-0.693 0.201,-0.694 0.197,-0.695C0.196,-0.695 0.191,-0.696 0.191,-0.696L0.188,-0.696C0.188,-0.696 0.184,-0.697 0.183,-0.697C0.182,-0.697 0.175,-0.699 0.174,-0.699L0.165,-0.699C0.164,-0.699 0.157,-0.698 0.156,-0.698C0.155,-0.698 0.149,-0.696 0.148,-0.696L0.143,-0.695C0.14,-0.694 0.133,-0.693 0.132,-0.693C0.131,-0.693 0.128,-0.691 0.127,-0.691L0.114,-0.684C0.114,-0.684 0.11,-0.682 0.109,-0.681L0.106,-0.679C0.105,-0.678 0.103,-0.677 0.103,-0.677L0.09,-0.664C0.09,-0.664 0.087,-0.658 0.085,-0.656C0.085,-0.655 0.082,-0.652 0.082,-0.651L0.076,-0.641C0.075,-0.64 0.071,-0.633 0.071,-0.632C0.07,-0.631 0.068,-0.628 0.068,-0.627C0.068,-0.627 0.064,-0.617 0.063,-0.613C0.062,-0.607 0.06,-0.597 0.057,-0.591L0.056,-0.588C0.056,-0.587 0.054,-0.58 0.054,-0.579C0.054,-0.579 0.052,-0.569 0.052,-0.568L0.051,-0.563C0.05,-0.562 0.046,-0.545 0.045,-0.543C0.045,-0.542 0.044,-0.539 0.044,-0.539C0.044,-0.538 0.043,-0.534 0.043,-0.533C0.043,-0.532 0.041,-0.528 0.041,-0.527C0.041,-0.525 0.037,-0.505 0.036,-0.498C0.036,-0.497 0.035,-0.494 0.035,-0.493C0.035,-0.492 0.034,-0.485 0.034,-0.484C0.034,-0.483 0.033,-0.48 0.033,-0.479C0.033,-0.477 0.032,-0.471 0.032,-0.47C0.032,-0.466 0.031,-0.456 0.031,-0.455L0.031,-0.407C0.031,-0.405 0.03,-0.396 0.03,-0.394L0.03,-0.322C0.03,-0.32 0.031,-0.306 0.031,-0.304L0.031,-0.272C0.031,-0.265 0.033,-0.227 0.033,-0.22Z" style="fill:white;fill-rule:nonzero;"/>
                </g>
                <g transform="matrix(522.607,0,0,522.607,1143.1,1533.44)">
                    <path d="M0.247,-0.136L0.247,-0.068C0.247,-0.066 0.248,-0.044 0.248,-0.042L0.248,-0.039C0.248,-0.029 0.249,-0.005 0.249,-0.005L0.252,-0.002L0.259,-0.002C0.26,-0.002 0.264,-0.004 0.265,-0.005C0.265,-0.005 0.267,-0.006 0.268,-0.007C0.27,-0.009 0.271,-0.013 0.271,-0.015L0.271,-0.133C0.271,-0.137 0.272,-0.151 0.272,-0.155L0.272,-0.302C0.271,-0.314 0.271,-0.372 0.271,-0.384C0.271,-0.391 0.272,-0.445 0.272,-0.452L0.272,-0.458C0.272,-0.48 0.273,-0.538 0.273,-0.541C0.273,-0.543 0.274,-0.554 0.274,-0.556C0.274,-0.559 0.275,-0.58 0.275,-0.583C0.275,-0.584 0.276,-0.594 0.276,-0.595L0.276,-0.651C0.276,-0.657 0.275,-0.682 0.275,-0.686C0.275,-0.687 0.274,-0.692 0.274,-0.693C0.274,-0.693 0.272,-0.696 0.271,-0.696C0.271,-0.696 0.27,-0.697 0.256,-0.697C0.254,-0.695 0.25,-0.694 0.248,-0.692C0.248,-0.692 0.246,-0.688 0.245,-0.687C0.245,-0.686 0.243,-0.684 0.243,-0.684C0.242,-0.683 0.239,-0.678 0.239,-0.677C0.239,-0.676 0.237,-0.672 0.237,-0.671C0.237,-0.671 0.235,-0.666 0.234,-0.665C0.234,-0.664 0.23,-0.654 0.229,-0.653C0.229,-0.652 0.225,-0.645 0.225,-0.644C0.224,-0.643 0.221,-0.633 0.22,-0.632C0.22,-0.631 0.218,-0.626 0.218,-0.625C0.218,-0.624 0.213,-0.614 0.213,-0.613L0.206,-0.593C0.206,-0.592 0.204,-0.589 0.204,-0.588C0.204,-0.588 0.202,-0.574 0.197,-0.574C0.197,-0.574 0.196,-0.567 0.194,-0.565C0.194,-0.564 0.192,-0.561 0.192,-0.561C0.192,-0.56 0.189,-0.553 0.189,-0.552C0.189,-0.551 0.187,-0.548 0.186,-0.547L0.184,-0.544C0.183,-0.54 0.174,-0.524 0.172,-0.52C0.172,-0.519 0.167,-0.525 0.167,-0.526C0.167,-0.526 0.165,-0.53 0.165,-0.531L0.164,-0.534L0.162,-0.538L0.161,-0.541C0.161,-0.542 0.159,-0.545 0.159,-0.546L0.158,-0.55C0.158,-0.55 0.155,-0.555 0.155,-0.556C0.155,-0.556 0.15,-0.564 0.15,-0.569C0.15,-0.57 0.147,-0.575 0.147,-0.576L0.146,-0.579C0.146,-0.58 0.144,-0.583 0.144,-0.584C0.144,-0.585 0.139,-0.593 0.139,-0.594C0.139,-0.595 0.135,-0.603 0.135,-0.604C0.135,-0.605 0.134,-0.608 0.134,-0.609L0.132,-0.612C0.132,-0.613 0.129,-0.619 0.129,-0.62C0.129,-0.62 0.122,-0.63 0.122,-0.635C0.122,-0.635 0.12,-0.639 0.12,-0.64C0.12,-0.641 0.117,-0.647 0.117,-0.647C0.117,-0.648 0.113,-0.655 0.112,-0.658L0.109,-0.664C0.109,-0.665 0.105,-0.669 0.105,-0.67L0.103,-0.674C0.103,-0.675 0.101,-0.677 0.101,-0.678C0.101,-0.679 0.098,-0.682 0.098,-0.683L0.097,-0.686C0.096,-0.687 0.094,-0.691 0.094,-0.691C0.09,-0.693 0.09,-0.695 0.088,-0.695C0.087,-0.695 0.083,-0.696 0.081,-0.696C0.078,-0.697 0.067,-0.699 0.066,-0.699L0.06,-0.699C0.06,-0.699 0.054,-0.698 0.051,-0.697L0.048,-0.696L0.043,-0.695C0.039,-0.695 0.037,-0.692 0.036,-0.691C0.036,-0.691 0.035,-0.689 0.035,-0.688L0.032,-0.608C0.032,-0.606 0.031,-0.598 0.031,-0.597C0.031,-0.596 0.032,-0.586 0.032,-0.586C0.032,-0.584 0.031,-0.576 0.031,-0.574L0.031,-0.426C0.031,-0.42 0.03,-0.379 0.03,-0.373C0.03,-0.371 0.031,-0.354 0.031,-0.352C0.031,-0.344 0.032,-0.262 0.032,-0.235L0.032,-0.206C0.032,-0.203 0.034,-0.179 0.034,-0.176L0.034,-0.165C0.034,-0.163 0.032,-0.147 0.032,-0.144C0.032,-0.128 0.031,-0.053 0.031,-0.037L0.031,-0.033C0.031,-0.024 0.032,-0.019 0.032,-0.013C0.032,-0.013 0.034,-0.009 0.035,-0.008L0.041,-0.006L0.05,-0.006C0.05,-0.006 0.056,-0.007 0.058,-0.007C0.06,-0.007 0.064,-0.008 0.064,-0.008C0.065,-0.008 0.068,-0.009 0.068,-0.009C0.068,-0.009 0.071,-0.011 0.071,-0.012C0.071,-0.012 0.072,-0.014 0.072,-0.015L0.072,-0.029C0.072,-0.03 0.073,-0.038 0.073,-0.039L0.073,-0.044C0.073,-0.058 0.071,-0.12 0.071,-0.134L0.071,-0.141C0.07,-0.149 0.07,-0.182 0.07,-0.189C0.07,-0.194 0.071,-0.231 0.071,-0.236L0.071,-0.272C0.071,-0.28 0.07,-0.339 0.07,-0.346L0.07,-0.466C0.071,-0.472 0.072,-0.501 0.072,-0.506L0.072,-0.543C0.072,-0.545 0.073,-0.564 0.073,-0.566L0.073,-0.615C0.073,-0.618 0.072,-0.629 0.072,-0.632C0.072,-0.633 0.071,-0.637 0.071,-0.638L0.071,-0.655C0.072,-0.655 0.074,-0.649 0.075,-0.647C0.075,-0.647 0.079,-0.64 0.079,-0.639L0.085,-0.628C0.085,-0.626 0.091,-0.61 0.092,-0.609C0.092,-0.608 0.095,-0.603 0.095,-0.602L0.105,-0.582L0.121,-0.551C0.122,-0.547 0.122,-0.54 0.125,-0.537C0.126,-0.535 0.134,-0.516 0.134,-0.514L0.141,-0.5C0.141,-0.499 0.144,-0.495 0.144,-0.494C0.145,-0.493 0.147,-0.489 0.147,-0.489C0.149,-0.488 0.149,-0.487 0.15,-0.487L0.168,-0.487C0.168,-0.487 0.17,-0.488 0.171,-0.488C0.172,-0.488 0.173,-0.489 0.174,-0.49C0.175,-0.491 0.179,-0.495 0.179,-0.495L0.184,-0.504C0.184,-0.505 0.186,-0.508 0.186,-0.509L0.192,-0.519L0.204,-0.545C0.205,-0.547 0.211,-0.562 0.212,-0.563C0.212,-0.564 0.214,-0.569 0.214,-0.57L0.228,-0.599C0.228,-0.6 0.231,-0.604 0.231,-0.605C0.232,-0.607 0.236,-0.62 0.238,-0.623L0.242,-0.634C0.242,-0.635 0.246,-0.64 0.246,-0.641C0.246,-0.642 0.248,-0.649 0.248,-0.65C0.248,-0.651 0.249,-0.653 0.249,-0.653C0.25,-0.643 0.252,-0.632 0.252,-0.621L0.252,-0.617C0.252,-0.615 0.253,-0.599 0.253,-0.598L0.253,-0.582C0.253,-0.58 0.252,-0.568 0.252,-0.565C0.252,-0.564 0.251,-0.557 0.251,-0.556C0.251,-0.553 0.25,-0.528 0.25,-0.526C0.25,-0.523 0.248,-0.502 0.248,-0.499L0.248,-0.477C0.248,-0.476 0.247,-0.462 0.247,-0.46L0.247,-0.402C0.247,-0.394 0.248,-0.336 0.248,-0.329L0.248,-0.306C0.248,-0.29 0.247,-0.215 0.247,-0.199C0.247,-0.197 0.246,-0.184 0.246,-0.181C0.246,-0.175 0.246,-0.142 0.247,-0.136Z" style="fill:white;fill-rule:nonzero;"/>
                </g>
                <g transform="matrix(522.607,0,0,522.607,1303.02,1533.44)">
                    <path d="M0.039,-0.061C0.039,-0.056 0.04,-0.054 0.04,-0.052C0.04,-0.052 0.042,-0.047 0.043,-0.046C0.043,-0.045 0.046,-0.043 0.046,-0.042L0.051,-0.031C0.051,-0.031 0.055,-0.026 0.056,-0.024C0.057,-0.023 0.06,-0.019 0.06,-0.019C0.061,-0.019 0.065,-0.014 0.066,-0.013C0.066,-0.013 0.07,-0.011 0.071,-0.01C0.076,-0.007 0.083,-0.004 0.089,-0.003C0.09,-0.003 0.094,-0.002 0.095,-0.002C0.097,-0.002 0.108,-0.001 0.11,-0.001L0.124,-0.001C0.125,-0.001 0.128,-0.002 0.13,-0.002C0.132,-0.002 0.143,-0.005 0.145,-0.005L0.149,-0.006C0.15,-0.006 0.156,-0.007 0.157,-0.007C0.158,-0.007 0.16,-0.008 0.16,-0.008C0.162,-0.009 0.167,-0.012 0.167,-0.012C0.167,-0.012 0.17,-0.014 0.171,-0.015C0.172,-0.015 0.176,-0.019 0.177,-0.019L0.181,-0.022C0.181,-0.023 0.186,-0.028 0.187,-0.029L0.189,-0.032L0.191,-0.037C0.191,-0.038 0.195,-0.044 0.195,-0.045L0.201,-0.055C0.201,-0.056 0.206,-0.066 0.207,-0.07C0.207,-0.071 0.209,-0.073 0.209,-0.074C0.213,-0.084 0.216,-0.095 0.219,-0.105C0.219,-0.107 0.22,-0.111 0.22,-0.112C0.22,-0.113 0.221,-0.117 0.221,-0.118C0.222,-0.128 0.225,-0.16 0.225,-0.162L0.225,-0.193C0.225,-0.194 0.224,-0.198 0.224,-0.2C0.224,-0.2 0.223,-0.202 0.223,-0.203C0.223,-0.204 0.221,-0.209 0.221,-0.21C0.22,-0.212 0.218,-0.23 0.217,-0.232C0.217,-0.233 0.216,-0.235 0.216,-0.236C0.215,-0.239 0.212,-0.248 0.212,-0.249L0.207,-0.264C0.207,-0.266 0.205,-0.271 0.205,-0.272C0.205,-0.273 0.2,-0.283 0.199,-0.286C0.198,-0.287 0.196,-0.292 0.196,-0.292C0.195,-0.294 0.193,-0.301 0.192,-0.302L0.181,-0.319C0.181,-0.32 0.178,-0.326 0.177,-0.327L0.163,-0.348L0.16,-0.353L0.146,-0.375L0.136,-0.394L0.123,-0.414C0.122,-0.416 0.113,-0.432 0.11,-0.435C0.109,-0.436 0.106,-0.441 0.106,-0.442L0.102,-0.449C0.102,-0.45 0.1,-0.455 0.1,-0.456L0.092,-0.472L0.082,-0.496L0.075,-0.509C0.075,-0.51 0.074,-0.513 0.074,-0.513L0.069,-0.533C0.069,-0.534 0.067,-0.545 0.067,-0.546C0.067,-0.547 0.066,-0.551 0.066,-0.552L0.066,-0.604C0.066,-0.604 0.067,-0.61 0.067,-0.613C0.067,-0.617 0.068,-0.62 0.069,-0.624C0.069,-0.625 0.071,-0.629 0.071,-0.629C0.071,-0.629 0.074,-0.634 0.075,-0.636C0.079,-0.643 0.085,-0.648 0.09,-0.654L0.106,-0.665C0.107,-0.666 0.113,-0.669 0.114,-0.669C0.115,-0.669 0.123,-0.671 0.125,-0.672C0.126,-0.672 0.129,-0.673 0.13,-0.673C0.131,-0.673 0.139,-0.675 0.14,-0.675C0.144,-0.675 0.147,-0.675 0.15,-0.674C0.151,-0.674 0.156,-0.671 0.157,-0.67L0.164,-0.664L0.167,-0.659C0.168,-0.657 0.172,-0.651 0.172,-0.651C0.172,-0.651 0.174,-0.649 0.175,-0.649C0.175,-0.649 0.177,-0.648 0.178,-0.648C0.18,-0.648 0.18,-0.649 0.181,-0.649C0.181,-0.65 0.183,-0.652 0.183,-0.652L0.183,-0.657C0.183,-0.657 0.182,-0.659 0.182,-0.66C0.181,-0.666 0.179,-0.671 0.175,-0.676C0.175,-0.677 0.173,-0.679 0.172,-0.68C0.171,-0.681 0.168,-0.684 0.168,-0.684L0.164,-0.689L0.154,-0.697C0.152,-0.698 0.151,-0.699 0.15,-0.699L0.121,-0.699C0.121,-0.699 0.113,-0.697 0.11,-0.696C0.109,-0.696 0.105,-0.695 0.104,-0.695C0.103,-0.695 0.098,-0.692 0.097,-0.691C0.097,-0.691 0.095,-0.689 0.094,-0.689C0.092,-0.688 0.088,-0.684 0.088,-0.684C0.088,-0.684 0.084,-0.681 0.083,-0.68C0.082,-0.679 0.074,-0.67 0.074,-0.669C0.073,-0.669 0.067,-0.663 0.065,-0.659C0.063,-0.657 0.062,-0.655 0.061,-0.653L0.058,-0.648C0.058,-0.647 0.054,-0.643 0.054,-0.643C0.05,-0.639 0.044,-0.624 0.044,-0.618C0.043,-0.617 0.038,-0.601 0.036,-0.596C0.036,-0.595 0.035,-0.591 0.035,-0.589C0.035,-0.587 0.033,-0.58 0.033,-0.579C0.033,-0.578 0.032,-0.575 0.032,-0.573C0.031,-0.568 0.03,-0.558 0.03,-0.558L0.03,-0.513C0.03,-0.513 0.031,-0.509 0.031,-0.508C0.031,-0.506 0.034,-0.49 0.034,-0.488C0.034,-0.488 0.035,-0.486 0.035,-0.485C0.035,-0.48 0.038,-0.477 0.038,-0.475L0.047,-0.459C0.048,-0.455 0.068,-0.422 0.071,-0.419C0.075,-0.415 0.08,-0.407 0.082,-0.402C0.084,-0.398 0.101,-0.371 0.102,-0.368C0.103,-0.367 0.109,-0.357 0.11,-0.357L0.119,-0.342C0.123,-0.336 0.126,-0.33 0.129,-0.324L0.145,-0.3C0.145,-0.299 0.149,-0.294 0.149,-0.293C0.149,-0.293 0.152,-0.29 0.152,-0.289L0.163,-0.266C0.163,-0.266 0.166,-0.259 0.166,-0.258C0.166,-0.257 0.167,-0.254 0.167,-0.253C0.167,-0.253 0.17,-0.249 0.17,-0.248L0.173,-0.24C0.174,-0.239 0.176,-0.232 0.176,-0.231C0.176,-0.23 0.178,-0.226 0.178,-0.224C0.178,-0.223 0.18,-0.217 0.18,-0.215C0.18,-0.214 0.181,-0.211 0.181,-0.211L0.181,-0.204C0.181,-0.203 0.183,-0.194 0.183,-0.193C0.183,-0.191 0.186,-0.172 0.186,-0.17C0.186,-0.169 0.187,-0.164 0.187,-0.163C0.188,-0.159 0.189,-0.145 0.189,-0.144L0.189,-0.121C0.189,-0.121 0.188,-0.115 0.188,-0.113C0.188,-0.112 0.187,-0.109 0.187,-0.108C0.187,-0.107 0.186,-0.102 0.186,-0.101L0.184,-0.087C0.184,-0.086 0.182,-0.078 0.181,-0.076C0.181,-0.075 0.18,-0.071 0.18,-0.07C0.18,-0.069 0.178,-0.066 0.178,-0.065C0.177,-0.064 0.175,-0.06 0.175,-0.059L0.165,-0.043C0.165,-0.042 0.163,-0.04 0.163,-0.04L0.159,-0.036C0.158,-0.035 0.156,-0.033 0.155,-0.033C0.154,-0.033 0.149,-0.03 0.147,-0.029L0.139,-0.025L0.134,-0.024C0.133,-0.024 0.128,-0.022 0.127,-0.022C0.126,-0.021 0.12,-0.02 0.12,-0.02C0.116,-0.02 0.112,-0.021 0.111,-0.021L0.097,-0.021C0.096,-0.021 0.094,-0.022 0.093,-0.022C0.092,-0.022 0.088,-0.024 0.088,-0.025C0.088,-0.025 0.085,-0.027 0.084,-0.028L0.074,-0.035L0.071,-0.038L0.062,-0.046L0.055,-0.058L0.046,-0.067L0.043,-0.067C0.042,-0.066 0.039,-0.064 0.039,-0.061Z" style="fill:white;fill-rule:nonzero;"/>
                </g>
            </g>
            <g transform="matrix(1.21635,0,0,1.06319,-244.851,222.861)">
                <path d="M918.678,1105.15C916.718,1105.19 914.856,1105.98 913.517,1107.34C912.178,1108.7 911.478,1110.53 911.576,1112.39C911.576,1112.39 926.251,1406.7 933.203,1575.78C936.003,1643.9 937.325,1691.68 937.325,1691.68C937.629,1697.49 942.507,1702.12 948.601,1702.4C948.601,1702.4 1120.77,1717.88 1279.54,1730.44C1307.93,1732.68 1335.85,1734.95 1362.32,1736.52C1461.75,1742.42 1539.96,1744.55 1539.96,1744.55C1547.37,1744.89 1554.61,1742.39 1560.08,1737.63C1565.55,1732.86 1568.8,1726.22 1569.1,1719.16L1583.95,1101.59C1584.13,1097.36 1582.47,1093.25 1579.37,1090.23C1576.26,1087.2 1571.99,1085.53 1567.54,1085.61L918.678,1105.15ZM918.808,1112.05L1567.83,1100.96L1541.29,1718.08L949.167,1691.12L918.808,1112.05Z" style="fill:white;"/>
            </g>
        </g>
    </g>
</svg>
